<svg width="1499" height="1488" viewBox="0 0 1499 1488" fill="none" xmlns="http://www.w3.org/2000/svg">
<path d="M554.807 1249.11L557.813 1242.35H558.469L561.475 1249.11H560.497L558.141 1243.68L555.786 1249.11H554.807ZM562.225 1252.7V1251.53H563.298V1252.7H562.225ZM554.28 1252.64V1251.6H560.901V1252.64H554.28ZM554.28 1260.11V1259.08H557.989C558.848 1259.08 559.417 1258.97 559.694 1258.74C559.975 1258.51 560.116 1258.14 560.116 1257.62C560.116 1257.01 559.831 1256.36 559.26 1255.67H554.28V1254.64H560.901V1255.67H560.104C560.76 1256.45 561.089 1257.22 561.089 1257.97C561.089 1258.66 560.874 1259.18 560.444 1259.56C560.018 1259.93 559.401 1260.11 558.593 1260.11H554.28ZM554.661 1263.09H551.837V1262.06H560.901V1263.09H560.169C560.782 1263.84 561.089 1264.57 561.089 1265.29C561.089 1266.07 560.784 1266.69 560.175 1267.15C559.569 1267.61 558.735 1267.84 557.673 1267.84C556.63 1267.84 555.782 1267.56 555.13 1267C554.477 1266.44 554.151 1265.75 554.151 1264.93C554.151 1264.3 554.321 1263.69 554.661 1263.09ZM559.331 1263.09H555.464C555.202 1263.67 555.071 1264.22 555.071 1264.72C555.071 1265.36 555.294 1265.87 555.739 1266.23C556.188 1266.59 556.821 1266.77 557.637 1266.77C559.29 1266.77 560.116 1266.18 560.116 1264.99C560.116 1264.35 559.854 1263.72 559.331 1263.09ZM554.28 1274.78V1273.75H555.077C554.425 1272.95 554.098 1272.18 554.098 1271.45C554.098 1270.76 554.311 1270.23 554.737 1269.86C555.167 1269.49 555.78 1269.31 556.577 1269.31H560.901V1270.34H557.18C556.329 1270.34 555.764 1270.46 555.487 1270.68C555.21 1270.91 555.071 1271.29 555.071 1271.8C555.071 1272.41 555.354 1273.06 555.921 1273.75H560.901V1274.78H554.28ZM554.151 1278.87C554.151 1277.5 554.903 1276.82 556.407 1276.82H560.057V1276.06H560.901V1276.82H562.805V1277.85H560.901V1280.17H560.057V1277.85H556.993C556.298 1277.85 555.846 1277.9 555.639 1277.99C555.436 1278.09 555.286 1278.23 555.188 1278.43C555.094 1278.62 555.048 1278.87 555.048 1279.18C555.048 1279.47 555.118 1279.79 555.259 1280.13V1280.17H554.321C554.208 1279.7 554.151 1279.27 554.151 1278.87ZM557.813 1288.57L554.807 1281.81H555.786L558.141 1287.24L560.497 1281.81H561.475L558.469 1288.57H557.813Z" fill="#CCCCCC"/>
<path d="M1487.53 54.2907L1490.53 47.529H1491.19L1494.2 54.2907H1493.22L1490.86 48.8591L1488.51 54.2907H1487.53ZM1488.58 60.7653H1490.5C1490.43 59.3083 1490.27 58.3708 1490.01 57.9528C1489.76 57.5388 1489.41 57.3317 1488.96 57.3317C1488.16 57.3317 1487.77 57.8122 1487.77 58.7731C1487.77 59.4255 1488.04 60.0896 1488.58 60.7653ZM1487 60.7653H1487.74C1487.34 60.2146 1487.09 59.7614 1486.98 59.406C1486.87 59.0505 1486.82 58.6892 1486.82 58.322C1486.82 57.7321 1487.01 57.2419 1487.4 56.8513C1487.79 56.4606 1488.29 56.2653 1488.89 56.2653C1489.66 56.2653 1490.24 56.5544 1490.63 57.1325C1491.02 57.7146 1491.25 58.9255 1491.32 60.7653H1491.52C1491.98 60.7653 1492.32 60.6286 1492.54 60.3552C1492.77 60.0817 1492.88 59.6013 1492.88 58.9138C1492.88 58.3083 1492.72 57.6345 1492.41 56.8923V56.8454H1493.48C1493.68 57.5759 1493.78 58.279 1493.78 58.9548C1493.78 59.9353 1493.6 60.6521 1493.23 61.1052C1492.87 61.5622 1492.3 61.7907 1491.53 61.7907H1487V60.7653ZM1486.84 65.5993C1486.84 64.7712 1487.02 63.9939 1487.39 63.2673H1488.58V63.3083C1488 64.0974 1487.7 64.8806 1487.7 65.6579C1487.7 66.7478 1488.05 67.2927 1488.73 67.2927C1489 67.2927 1489.21 67.2204 1489.36 67.0759C1489.51 66.9314 1489.64 66.6306 1489.74 66.1735C1489.82 65.7907 1489.91 65.3513 1490.03 64.8552C1490.15 64.3591 1490.35 63.9743 1490.64 63.7009C1490.94 63.4314 1491.32 63.2966 1491.78 63.2966C1492.37 63.2966 1492.85 63.5349 1493.22 64.0114C1493.59 64.488 1493.78 65.1247 1493.78 65.9216C1493.78 66.7419 1493.62 67.4626 1493.3 68.0837H1492.16V68.0427C1492.67 67.3591 1492.92 66.6345 1492.92 65.8689C1492.92 65.3962 1492.83 65.0231 1492.65 64.7497C1492.48 64.4763 1492.24 64.3396 1491.93 64.3396C1491.66 64.3396 1491.45 64.4118 1491.31 64.5564C1491.16 64.7048 1491.04 64.9978 1490.93 65.4353L1490.64 66.7302C1490.53 67.2653 1490.32 67.6677 1490.02 67.9372C1489.73 68.2067 1489.35 68.3415 1488.88 68.3415C1488.28 68.3415 1487.78 68.0935 1487.4 67.5974C1487.03 67.1013 1486.84 66.4353 1486.84 65.5993ZM1494.95 70.8142V69.6481H1496.02V70.8142H1494.95ZM1487 70.7497V69.7185H1493.62V70.7497H1487ZM1488.57 77.031H1492.49C1492.76 76.4528 1492.89 75.9118 1492.89 75.4079C1492.89 74.7595 1492.66 74.2536 1492.2 73.8903C1491.75 73.5271 1491.11 73.3454 1490.29 73.3454C1488.62 73.3454 1487.79 73.9411 1487.79 75.1325C1487.79 75.8005 1488.05 76.4333 1488.57 77.031ZM1487 77.031H1487.73C1487.12 76.2771 1486.82 75.5466 1486.82 74.8396C1486.82 74.0583 1487.12 73.4353 1487.74 72.9704C1488.35 72.5095 1489.19 72.279 1490.25 72.279C1491.3 72.279 1492.16 72.5583 1492.82 73.1169C1493.48 73.6755 1493.81 74.3649 1493.81 75.1853C1493.81 75.7595 1493.63 76.3747 1493.29 77.031H1496.22V78.0622H1487V77.031ZM1491 80.6228V84.5075C1492.31 84.4763 1492.97 83.8728 1492.97 82.697C1492.97 82.1032 1492.79 81.6228 1492.44 81.2556C1492.09 80.8884 1491.61 80.6774 1491 80.6228ZM1486.85 83.0427C1486.85 81.9411 1487.14 81.0856 1487.74 80.4763C1488.34 79.8708 1489.18 79.5681 1490.27 79.5681C1491.35 79.5681 1492.21 79.8591 1492.85 80.4411C1493.49 81.0231 1493.81 81.7946 1493.81 82.7556C1493.81 83.6306 1493.55 84.3083 1493.02 84.7888C1492.5 85.2731 1491.75 85.5153 1490.79 85.5153H1490.22V80.6228C1489.42 80.6228 1488.81 80.8376 1488.38 81.2673C1487.95 81.7009 1487.74 82.2985 1487.74 83.0603C1487.74 83.8181 1488 84.5759 1488.53 85.3337V85.3806H1487.41C1487.04 84.4392 1486.85 83.6599 1486.85 83.0427ZM1490.53 94.2282L1487.53 87.4665H1488.51L1490.86 92.8981L1493.22 87.4665H1494.2L1491.19 94.2282H1490.53Z" fill="#CCCCCC"/>
<path d="M1487.53 126.456L1490.53 119.694H1491.19L1494.2 126.456H1493.22L1490.86 121.024L1488.51 126.456H1487.53ZM1496.22 132.954L1485.22 128.712V127.768L1496.22 131.993V132.954ZM1488.58 138.321H1490.5C1490.43 136.864 1490.27 135.927 1490.01 135.509C1489.76 135.095 1489.41 134.888 1488.96 134.888C1488.16 134.888 1487.77 135.368 1487.77 136.329C1487.77 136.981 1488.04 137.645 1488.58 138.321ZM1487 138.321H1487.74C1487.34 137.77 1487.09 137.317 1486.98 136.962C1486.87 136.606 1486.82 136.245 1486.82 135.878C1486.82 135.288 1487.01 134.798 1487.4 134.407C1487.79 134.016 1488.29 133.821 1488.89 133.821C1489.66 133.821 1490.24 134.11 1490.63 134.688C1491.02 135.27 1491.25 136.481 1491.32 138.321H1491.52C1491.98 138.321 1492.32 138.184 1492.54 137.911C1492.77 137.638 1492.88 137.157 1492.88 136.47C1492.88 135.864 1492.72 135.19 1492.41 134.448V134.401H1493.48C1493.68 135.132 1493.78 135.835 1493.78 136.511C1493.78 137.491 1493.6 138.208 1493.23 138.661C1492.87 139.118 1492.3 139.347 1491.53 139.347H1487V138.321ZM1486.84 143.155C1486.84 142.327 1487.02 141.55 1487.39 140.823H1488.58V140.864C1488 141.653 1487.7 142.436 1487.7 143.214C1487.7 144.304 1488.05 144.848 1488.73 144.848C1489 144.848 1489.21 144.776 1489.36 144.632C1489.51 144.487 1489.64 144.186 1489.74 143.729C1489.82 143.347 1489.91 142.907 1490.03 142.411C1490.15 141.915 1490.35 141.53 1490.64 141.257C1490.94 140.987 1491.32 140.852 1491.78 140.852C1492.37 140.852 1492.85 141.091 1493.22 141.567C1493.59 142.044 1493.78 142.681 1493.78 143.477C1493.78 144.298 1493.62 145.018 1493.3 145.64H1492.16V145.598C1492.67 144.915 1492.92 144.19 1492.92 143.425C1492.92 142.952 1492.83 142.579 1492.65 142.306C1492.48 142.032 1492.24 141.895 1491.93 141.895C1491.66 141.895 1491.45 141.968 1491.31 142.112C1491.16 142.261 1491.04 142.554 1490.93 142.991L1490.64 144.286C1490.53 144.821 1490.32 145.223 1490.02 145.493C1489.73 145.763 1489.35 145.897 1488.88 145.897C1488.28 145.897 1487.78 145.649 1487.4 145.153C1487.03 144.657 1486.84 143.991 1486.84 143.155ZM1494.95 148.37V147.204H1496.02V148.37H1494.95ZM1487 148.306V147.274H1493.62V148.306H1487ZM1488.57 154.587H1492.49C1492.76 154.009 1492.89 153.468 1492.89 152.964C1492.89 152.315 1492.66 151.809 1492.2 151.446C1491.75 151.083 1491.11 150.901 1490.29 150.901C1488.62 150.901 1487.79 151.497 1487.79 152.688C1487.79 153.356 1488.05 153.989 1488.57 154.587ZM1487 154.587H1487.73C1487.12 153.833 1486.82 153.102 1486.82 152.395C1486.82 151.614 1487.12 150.991 1487.74 150.526C1488.35 150.065 1489.19 149.835 1490.25 149.835C1491.3 149.835 1492.16 150.114 1492.82 150.673C1493.48 151.231 1493.81 151.921 1493.81 152.741C1493.81 153.315 1493.63 153.931 1493.29 154.587H1496.22V155.618H1487V154.587ZM1491 158.179V162.063C1492.31 162.032 1492.97 161.429 1492.97 160.253C1492.97 159.659 1492.79 159.179 1492.44 158.811C1492.09 158.444 1491.61 158.233 1491 158.179ZM1486.85 160.598C1486.85 159.497 1487.14 158.641 1487.74 158.032C1488.34 157.427 1489.18 157.124 1490.27 157.124C1491.35 157.124 1492.21 157.415 1492.85 157.997C1493.49 158.579 1493.81 159.35 1493.81 160.311C1493.81 161.186 1493.55 161.864 1493.02 162.345C1492.5 162.829 1491.75 163.071 1490.79 163.071H1490.22V158.179C1489.42 158.179 1488.81 158.393 1488.38 158.823C1487.95 159.257 1487.74 159.854 1487.74 160.616C1487.74 161.374 1488 162.132 1488.53 162.89V162.936H1487.41C1487.04 161.995 1486.85 161.216 1486.85 160.598ZM1490.53 171.784L1487.53 165.022H1488.51L1490.86 170.454L1493.22 165.022H1494.2L1491.19 171.784H1490.53Z" fill="#CCCCCC"/>
<path d="M1246.61 135.759L1249.62 128.998H1250.27L1253.28 135.759H1252.3L1249.95 130.328L1247.59 135.759H1246.61ZM1246.08 143.71V142.679H1249.79C1250.65 142.679 1251.22 142.566 1251.5 142.339C1251.78 142.113 1251.92 141.74 1251.92 141.22C1251.92 140.611 1251.64 139.96 1251.07 139.269H1246.08V138.238H1255.31V139.269H1251.91C1252.57 140.042 1252.89 140.81 1252.89 141.572C1252.89 142.255 1252.68 142.783 1252.25 143.154C1251.82 143.525 1251.2 143.71 1250.4 143.71H1246.08ZM1248.63 151.621V150.326H1246.08V149.271H1248.63V145.023H1249.86L1254.91 149.318V150.326H1249.49V151.621H1248.63ZM1249.49 149.271H1253.62L1249.49 145.761V149.271ZM1249.62 160.357L1246.61 153.595H1247.59L1249.95 159.027L1252.3 153.595H1253.28L1250.27 160.357H1249.62Z" fill="#CCCCCC"/>
<path d="M1246.61 190.935L1249.62 184.173H1250.27L1253.28 190.935H1252.3L1249.95 185.503L1247.59 190.935H1246.61ZM1255.31 197.433L1244.3 193.191V192.247L1255.31 196.472V197.433ZM1246.08 204.277V203.245H1249.79C1250.65 203.245 1251.22 203.132 1251.5 202.906C1251.78 202.679 1251.92 202.306 1251.92 201.786C1251.92 201.177 1251.64 200.527 1251.07 199.835H1246.08V198.804H1255.31V199.835H1251.91C1252.57 200.609 1252.89 201.376 1252.89 202.138C1252.89 202.822 1252.68 203.349 1252.25 203.72C1251.82 204.091 1251.2 204.277 1250.4 204.277H1246.08ZM1248.63 212.187V210.892H1246.08V209.837H1248.63V205.589H1249.86L1254.91 209.884V210.892H1249.49V212.187H1248.63ZM1249.49 209.837H1253.62L1249.49 206.327V209.837ZM1249.62 220.923L1246.61 214.161H1247.59L1249.95 219.593L1252.3 214.161H1253.28L1250.27 220.923H1249.62Z" fill="#CCCCCC"/>
<path d="M191.413 184.604L194.419 177.843H195.075L198.081 184.604H197.103L194.747 179.173L192.392 184.604H191.413ZM190.886 192.556V191.524H194.589C195.452 191.524 196.022 191.411 196.3 191.184C196.581 190.958 196.722 190.585 196.722 190.065C196.722 189.456 196.438 188.806 195.872 188.114H190.886V187.083H200.108V188.114H196.716C197.368 188.888 197.694 189.655 197.694 190.417C197.694 191.1 197.479 191.628 197.05 191.999C196.624 192.37 196.007 192.556 195.198 192.556H190.886ZM190.886 199.763V195.063H191.694V196.903H197.765V195.063H198.479C198.483 195.782 198.585 196.296 198.784 196.604C198.987 196.913 199.308 197.087 199.745 197.126V197.958H191.694V199.763H190.886ZM194.419 209.202L191.413 202.44H192.392L194.747 207.872L197.103 202.44H198.081L195.075 209.202H194.419Z" fill="#CCCCCC"/>
<path d="M191.413 239.78L194.419 233.018H195.075L198.081 239.78H197.103L194.747 234.348L192.392 239.78H191.413ZM200.108 246.278L189.104 242.036V241.092L200.108 245.317V246.278ZM190.886 253.122V252.091H194.589C195.452 252.091 196.022 251.977 196.3 251.751C196.581 251.524 196.722 251.151 196.722 250.632C196.722 250.022 196.438 249.372 195.872 248.68H190.886V247.649H200.108V248.68H196.716C197.368 249.454 197.694 250.221 197.694 250.983C197.694 251.667 197.479 252.194 197.05 252.565C196.624 252.936 196.007 253.122 195.198 253.122H190.886ZM190.886 260.329V255.63H191.694V257.469H197.765V255.63H198.479C198.483 256.348 198.585 256.862 198.784 257.171C198.987 257.479 199.308 257.653 199.745 257.692V258.524H191.694V260.329H190.886ZM194.419 269.768L191.413 263.007H192.392L194.747 268.438L197.103 263.007H198.081L195.075 269.768H194.419Z" fill="#CCCCCC"/>
<path d="M585.131 445.222L588.136 438.461H588.793L591.799 445.222H590.82L588.465 439.791L586.109 445.222H585.131ZM584.603 453.174V452.142H588.306C589.17 452.142 589.74 452.029 590.017 451.803C590.299 451.576 590.439 451.203 590.439 450.683C590.439 450.074 590.156 449.424 589.59 448.732H584.603V447.701H593.826V448.732H590.433C591.086 449.506 591.412 450.273 591.412 451.035C591.412 451.719 591.197 452.246 590.767 452.617C590.342 452.988 589.724 453.174 588.916 453.174H584.603ZM588.599 455.687V459.572C589.916 459.541 590.574 458.937 590.574 457.762C590.574 457.168 590.398 456.687 590.047 456.32C589.695 455.953 589.213 455.742 588.599 455.687ZM584.451 458.107C584.451 457.006 584.748 456.15 585.342 455.541C585.939 454.935 586.783 454.633 587.873 454.633C588.955 454.633 589.814 454.924 590.451 455.506C591.092 456.088 591.412 456.859 591.412 457.82C591.412 458.695 591.15 459.373 590.627 459.853C590.103 460.338 589.357 460.58 588.388 460.58H587.82V455.687C587.023 455.687 586.41 455.902 585.98 456.332C585.554 456.765 585.342 457.363 585.342 458.125C585.342 458.883 585.605 459.64 586.133 460.398V460.445H585.013C584.638 459.504 584.451 458.724 584.451 458.107ZM586.179 466.041H588.101C588.035 464.584 587.873 463.646 587.615 463.228C587.361 462.814 587.01 462.607 586.56 462.607C585.767 462.607 585.371 463.088 585.371 464.049C585.371 464.701 585.64 465.365 586.179 466.041ZM584.603 466.041H585.342C584.943 465.49 584.691 465.037 584.586 464.681C584.476 464.326 584.422 463.965 584.422 463.597C584.422 463.008 584.617 462.517 585.008 462.127C585.398 461.736 585.894 461.541 586.496 461.541C587.265 461.541 587.844 461.83 588.23 462.408C588.621 462.99 588.853 464.201 588.927 466.041H589.127C589.588 466.041 589.927 465.904 590.146 465.631C590.369 465.357 590.48 464.877 590.48 464.189C590.48 463.584 590.324 462.91 590.011 462.168V462.121H591.084C591.283 462.851 591.383 463.555 591.383 464.23C591.383 465.211 591.199 465.928 590.832 466.381C590.469 466.838 589.902 467.066 589.133 467.066H584.603V466.041ZM586.174 473.283H590.094C590.359 472.705 590.492 472.164 590.492 471.66C590.492 471.012 590.263 470.506 589.806 470.142C589.353 469.779 588.715 469.597 587.89 469.597C586.226 469.597 585.394 470.193 585.394 471.385C585.394 472.053 585.654 472.685 586.174 473.283ZM584.603 473.283H585.336C584.726 472.529 584.422 471.799 584.422 471.092C584.422 470.31 584.728 469.687 585.342 469.222C585.955 468.762 586.793 468.531 587.855 468.531C588.906 468.531 589.761 468.81 590.422 469.369C591.082 469.928 591.412 470.617 591.412 471.437C591.412 472.012 591.238 472.627 590.89 473.283H593.826V474.314H584.603V473.283ZM588.599 476.875V480.76C589.916 480.728 590.574 480.125 590.574 478.949C590.574 478.355 590.398 477.875 590.047 477.508C589.695 477.14 589.213 476.93 588.599 476.875ZM584.451 479.295C584.451 478.193 584.748 477.338 585.342 476.728C585.939 476.123 586.783 475.82 587.873 475.82C588.955 475.82 589.814 476.111 590.451 476.693C591.092 477.275 591.412 478.047 591.412 479.008C591.412 479.883 591.15 480.56 590.627 481.041C590.103 481.525 589.357 481.767 588.388 481.767H587.82V476.875C587.023 476.875 586.41 477.09 585.98 477.519C585.554 477.953 585.342 478.551 585.342 479.312C585.342 480.07 585.605 480.828 586.133 481.586V481.633H585.013C584.638 480.691 584.451 479.912 584.451 479.295ZM584.603 483.232H591.224V484.263H590.205C590.885 485.092 591.224 485.855 591.224 486.555C591.224 486.801 591.205 487.049 591.166 487.299H590.088V487.258C590.166 486.933 590.205 486.605 590.205 486.273C590.205 485.609 589.924 484.939 589.361 484.263H584.603V483.232ZM588.136 495.437L585.131 488.676H586.109L588.465 494.107L590.82 488.676H591.799L588.793 495.437H588.136Z" fill="#CCCCCC"/>
<path d="M585.131 527.475L588.136 520.714H588.793L591.799 527.475H590.82L588.465 522.044L586.109 527.475H585.131ZM593.826 533.973L582.822 529.731V528.788L593.826 533.012V533.973ZM584.603 540.817V539.786H588.306C589.17 539.786 589.74 539.673 590.017 539.446C590.299 539.22 590.439 538.846 590.439 538.327C590.439 537.718 590.156 537.067 589.59 536.376H584.603V535.345H593.826V536.376H590.433C591.086 537.149 591.412 537.917 591.412 538.678C591.412 539.362 591.197 539.889 590.767 540.261C590.342 540.632 589.724 540.817 588.916 540.817H584.603ZM588.599 543.331V547.216C589.916 547.184 590.574 546.581 590.574 545.405C590.574 544.811 590.398 544.331 590.047 543.964C589.695 543.596 589.213 543.386 588.599 543.331ZM584.451 545.751C584.451 544.649 584.748 543.794 585.342 543.184C585.939 542.579 586.783 542.276 587.873 542.276C588.955 542.276 589.814 542.567 590.451 543.149C591.092 543.731 591.412 544.503 591.412 545.464C591.412 546.339 591.15 547.016 590.627 547.497C590.103 547.981 589.357 548.223 588.388 548.223H587.82V543.331C587.023 543.331 586.41 543.546 585.98 543.975C585.554 544.409 585.342 545.007 585.342 545.768C585.342 546.526 585.605 547.284 586.133 548.042V548.089H585.013C584.638 547.147 584.451 546.368 584.451 545.751ZM586.179 553.684H588.101C588.035 552.227 587.873 551.29 587.615 550.872C587.361 550.458 587.01 550.251 586.56 550.251C585.767 550.251 585.371 550.731 585.371 551.692C585.371 552.345 585.64 553.009 586.179 553.684ZM584.603 553.684H585.342C584.943 553.134 584.691 552.68 584.586 552.325C584.476 551.97 584.422 551.608 584.422 551.241C584.422 550.651 584.617 550.161 585.008 549.77C585.398 549.38 585.894 549.184 586.496 549.184C587.265 549.184 587.844 549.473 588.23 550.052C588.621 550.634 588.853 551.845 588.927 553.684H589.127C589.588 553.684 589.927 553.548 590.146 553.274C590.369 553.001 590.48 552.52 590.48 551.833C590.48 551.227 590.324 550.553 590.011 549.811V549.764H591.084C591.283 550.495 591.383 551.198 591.383 551.874C591.383 552.854 591.199 553.571 590.832 554.024C590.469 554.481 589.902 554.71 589.133 554.71H584.603V553.684ZM586.174 560.927H590.094C590.359 560.348 590.492 559.807 590.492 559.303C590.492 558.655 590.263 558.149 589.806 557.786C589.353 557.423 588.715 557.241 587.89 557.241C586.226 557.241 585.394 557.837 585.394 559.028C585.394 559.696 585.654 560.329 586.174 560.927ZM584.603 560.927H585.336C584.726 560.173 584.422 559.442 584.422 558.735C584.422 557.954 584.728 557.331 585.342 556.866C585.955 556.405 586.793 556.175 587.855 556.175C588.906 556.175 589.761 556.454 590.422 557.012C591.082 557.571 591.412 558.261 591.412 559.081C591.412 559.655 591.238 560.27 590.89 560.927H593.826V561.958H584.603V560.927ZM588.599 564.518V568.403C589.916 568.372 590.574 567.768 590.574 566.593C590.574 565.999 590.398 565.518 590.047 565.151C589.695 564.784 589.213 564.573 588.599 564.518ZM584.451 566.938C584.451 565.837 584.748 564.981 585.342 564.372C585.939 563.766 586.783 563.464 587.873 563.464C588.955 563.464 589.814 563.755 590.451 564.337C591.092 564.919 591.412 565.69 591.412 566.651C591.412 567.526 591.15 568.204 590.627 568.684C590.103 569.169 589.357 569.411 588.388 569.411H587.82V564.518C587.023 564.518 586.41 564.733 585.98 565.163C585.554 565.596 585.342 566.194 585.342 566.956C585.342 567.714 585.605 568.471 586.133 569.229V569.276H585.013C584.638 568.335 584.451 567.555 584.451 566.938ZM584.603 570.876H591.224V571.907H590.205C590.885 572.735 591.224 573.499 591.224 574.198C591.224 574.444 591.205 574.692 591.166 574.942H590.088V574.901C590.166 574.577 590.205 574.249 590.205 573.917C590.205 573.253 589.924 572.583 589.361 571.907H584.603V570.876ZM588.136 583.081L585.131 576.319H586.109L588.465 581.751L590.82 576.319H591.799L588.793 583.081H588.136Z" fill="#CCCCCC"/>
<path d="M436.596 9.78805L439.602 3.02633H440.259L443.264 9.78805H442.286L439.93 4.35641L437.575 9.78805H436.596ZM437.639 16.5439L441.559 16.5439C441.825 15.9658 441.958 15.4248 441.958 14.9209C441.958 14.2724 441.729 13.7666 441.272 13.4033C440.819 13.04 440.18 12.8584 439.356 12.8584C437.692 12.8584 436.86 13.4541 436.86 14.6455C436.86 15.3134 437.12 15.9463 437.639 16.5439ZM436.069 16.5439H436.802C436.192 15.79 435.887 15.0595 435.887 14.3525C435.887 13.5713 436.194 12.9482 436.807 12.4834C437.421 12.0224 438.259 11.792 439.321 11.792C440.372 11.792 441.227 12.0713 441.887 12.6298C442.548 13.1884 442.878 13.8779 442.878 14.6982C442.878 15.2724 442.704 15.8877 442.356 16.5439H445.292V17.5752L436.069 17.5752V16.5439ZM444.014 20.6748V19.5088H445.087V20.6748H444.014ZM436.069 20.6103V19.5791L442.69 19.5791V20.6103L436.069 20.6103ZM442.69 28.2216L436.069 25.4033V24.6005L442.69 21.7998V22.9189L437.522 25.0459L442.69 27.1435V28.2216ZM439.602 36.6591L436.596 29.8974H437.575L439.93 35.3291L442.286 29.8974H443.264L440.259 36.6591H439.602Z" fill="#CCCCCC"/>
<path d="M436.596 67.6935L439.602 60.9318H440.259L443.264 67.6935H442.286L439.93 62.2619L437.575 67.6935H436.596ZM445.292 74.1915L434.288 69.9494V69.006L445.292 73.2306V74.1915ZM437.639 79.84H441.559C441.825 79.2619 441.958 78.7208 441.958 78.2169C441.958 77.5685 441.729 77.0626 441.272 76.6994C440.819 76.3361 440.18 76.1544 439.356 76.1544C437.692 76.1544 436.86 76.7501 436.86 77.9415C436.86 78.6095 437.12 79.2423 437.639 79.84ZM436.069 79.84H436.802C436.192 79.0861 435.887 78.3556 435.887 77.6486C435.887 76.8673 436.194 76.2443 436.807 75.7794C437.421 75.3185 438.259 75.088 439.321 75.088C440.372 75.088 441.227 75.3673 441.887 75.9259C442.548 76.4845 442.878 77.174 442.878 77.9943C442.878 78.5685 442.704 79.1837 442.356 79.84H445.292V80.8712H436.069V79.84ZM444.014 83.9708V82.8048H445.087V83.9708H444.014ZM436.069 83.9064V82.8751H442.69V83.9064H436.069ZM442.69 91.5177L436.069 88.6994V87.8966L442.69 85.0958V86.215L437.522 88.3419L442.69 90.4396V91.5177ZM439.602 99.9552L436.596 93.1935H437.575L439.93 98.6251L442.286 93.1935H443.264L440.259 99.9552H439.602Z" fill="#CCCCCC"/>
<path d="M823.701 1132.27L827.709 1123.26H828.584L832.592 1132.27H831.287L828.146 1125.03L825.006 1132.27H823.701ZM822.826 1138.37C822.826 1136.54 823.829 1135.63 825.834 1135.63H830.701V1134.62H831.826V1135.64H834.365V1137.01H831.826V1140.1H830.701V1137.01H826.615C825.688 1137.01 825.086 1137.07 824.81 1137.19C824.539 1137.32 824.339 1137.52 824.209 1137.78C824.084 1138.04 824.021 1138.37 824.021 1138.78C824.021 1139.17 824.115 1139.59 824.302 1140.05V1140.1H823.052C822.901 1139.48 822.826 1138.9 822.826 1138.37ZM825.099 1146.97H827.662C827.573 1145.02 827.357 1143.77 827.013 1143.22C826.675 1142.67 826.206 1142.39 825.607 1142.39C824.55 1142.39 824.021 1143.03 824.021 1144.31C824.021 1145.18 824.381 1146.07 825.099 1146.97ZM822.998 1146.97H823.982C823.451 1146.23 823.115 1145.63 822.974 1145.15C822.829 1144.68 822.756 1144.2 822.756 1143.71C822.756 1142.92 823.016 1142.27 823.537 1141.75C824.058 1141.23 824.719 1140.97 825.521 1140.97C826.547 1140.97 827.318 1141.35 827.834 1142.12C828.355 1142.9 828.664 1144.51 828.763 1146.97H829.029C829.644 1146.97 830.097 1146.78 830.388 1146.42C830.685 1146.06 830.834 1145.42 830.834 1144.5C830.834 1143.69 830.625 1142.79 830.209 1141.8V1141.74H831.638C831.904 1142.71 832.037 1143.65 832.037 1144.55C832.037 1145.86 831.792 1146.82 831.302 1147.42C830.818 1148.03 830.063 1148.33 829.037 1148.33H822.998V1146.97ZM823.467 1152.3L822.998 1152.19V1150.92H835.295V1152.3H830.857C831.67 1153.3 832.076 1154.28 832.076 1155.23C832.076 1156.26 831.667 1157.09 830.849 1157.7C830.032 1158.32 828.912 1158.63 827.49 1158.63C826.084 1158.63 824.943 1158.26 824.068 1157.51C823.193 1156.77 822.756 1155.85 822.756 1154.75C822.756 1153.89 822.993 1153.07 823.467 1152.3ZM829.74 1152.3H824.506C824.157 1153.08 823.982 1153.8 823.982 1154.47C823.982 1155.33 824.284 1156 824.888 1156.48C825.493 1156.97 826.347 1157.21 827.451 1157.21C829.67 1157.21 830.779 1156.42 830.779 1154.83C830.779 1153.98 830.433 1153.14 829.74 1152.3ZM822.998 1162.05V1160.67H835.295V1162.05H822.998ZM828.326 1165.48V1170.65C830.081 1170.61 830.959 1169.81 830.959 1168.24C830.959 1167.45 830.724 1166.81 830.256 1166.32C829.787 1165.83 829.144 1165.55 828.326 1165.48ZM822.795 1168.7C822.795 1167.23 823.191 1166.09 823.982 1165.28C824.779 1164.47 825.904 1164.07 827.357 1164.07C828.8 1164.07 829.946 1164.46 830.795 1165.23C831.649 1166.01 832.076 1167.04 832.076 1168.32C832.076 1169.49 831.727 1170.39 831.029 1171.03C830.331 1171.68 829.336 1172 828.045 1172H827.287V1165.48C826.224 1165.48 825.407 1165.76 824.834 1166.33C824.266 1166.91 823.982 1167.71 823.982 1168.73C823.982 1169.74 824.334 1170.75 825.037 1171.76V1171.82H823.545C823.045 1170.56 822.795 1169.52 822.795 1168.7ZM827.709 1183.62L823.701 1174.6H825.006L828.146 1181.84L831.287 1174.6H832.592L828.584 1183.62H827.709Z" fill="#CCCCCC"/>
<path d="M823.701 1217.34L827.709 1208.33H828.584L832.592 1217.34H831.287L828.146 1210.1L825.006 1217.34H823.701ZM835.295 1226.01L820.623 1220.35V1219.09L835.295 1224.73V1226.01ZM822.826 1230.62C822.826 1228.8 823.829 1227.89 825.834 1227.89H830.701V1226.88H831.826V1227.9H834.365V1229.26H831.826V1232.36H830.701V1229.26H826.615C825.688 1229.26 825.086 1229.33 824.81 1229.45C824.539 1229.58 824.339 1229.78 824.209 1230.04C824.084 1230.3 824.021 1230.63 824.021 1231.04C824.021 1231.42 824.115 1231.85 824.302 1232.31V1232.36H823.052C822.901 1231.74 822.826 1231.16 822.826 1230.62ZM825.099 1239.23H827.662C827.573 1237.28 827.357 1236.03 827.013 1235.48C826.675 1234.92 826.206 1234.65 825.607 1234.65C824.55 1234.65 824.021 1235.29 824.021 1236.57C824.021 1237.44 824.381 1238.32 825.099 1239.23ZM822.998 1239.23H823.982C823.451 1238.49 823.115 1237.89 822.974 1237.41C822.829 1236.94 822.756 1236.46 822.756 1235.97C822.756 1235.18 823.016 1234.53 823.537 1234.01C824.058 1233.49 824.719 1233.23 825.521 1233.23C826.547 1233.23 827.318 1233.61 827.834 1234.38C828.355 1235.16 828.664 1236.77 828.763 1239.23H829.029C829.644 1239.23 830.097 1239.04 830.388 1238.68C830.685 1238.31 830.834 1237.67 830.834 1236.76C830.834 1235.95 830.625 1235.05 830.209 1234.06V1234H831.638C831.904 1234.97 832.037 1235.91 832.037 1236.81C832.037 1238.12 831.792 1239.07 831.302 1239.68C830.818 1240.29 830.063 1240.59 829.037 1240.59H822.998V1239.23ZM823.467 1244.56L822.998 1244.44V1243.18H835.295V1244.55H830.857C831.67 1245.56 832.076 1246.54 832.076 1247.48C832.076 1248.52 831.667 1249.35 830.849 1249.96C830.032 1250.58 828.912 1250.89 827.49 1250.89C826.084 1250.89 824.943 1250.52 824.068 1249.77C823.193 1249.03 822.756 1248.11 822.756 1247.01C822.756 1246.15 822.993 1245.33 823.467 1244.56ZM829.74 1244.55H824.506C824.157 1245.33 823.982 1246.06 823.982 1246.73C823.982 1247.59 824.284 1248.26 824.888 1248.74C825.493 1249.23 826.347 1249.47 827.451 1249.47C829.67 1249.47 830.779 1248.67 830.779 1247.08C830.779 1246.24 830.433 1245.4 829.74 1244.55ZM822.998 1254.3V1252.93H835.295V1254.3H822.998ZM828.326 1257.73V1262.91C830.081 1262.87 830.959 1262.07 830.959 1260.5C830.959 1259.71 830.724 1259.07 830.256 1258.58C829.787 1258.09 829.144 1257.81 828.326 1257.73ZM822.795 1260.96C822.795 1259.49 823.191 1258.35 823.982 1257.54C824.779 1256.73 825.904 1256.33 827.357 1256.33C828.8 1256.33 829.946 1256.72 830.795 1257.49C831.649 1258.27 832.076 1259.3 832.076 1260.58C832.076 1261.74 831.727 1262.65 831.029 1263.29C830.331 1263.93 829.336 1264.26 828.045 1264.26H827.287V1257.73C826.224 1257.73 825.407 1258.02 824.834 1258.59C824.266 1259.17 823.982 1259.97 823.982 1260.98C823.982 1261.99 824.334 1263 825.037 1264.01V1264.08H823.545C823.045 1262.82 822.795 1261.78 822.795 1260.96ZM827.709 1275.87L823.701 1266.86H825.006L828.146 1274.1L831.287 1266.86H832.592L828.584 1275.87H827.709Z" fill="#CCCCCC"/>
<path d="M654.82 881.943L658.827 872.928H659.702L663.71 881.943H662.406L659.265 874.701L656.124 881.943H654.82ZM653.906 887.74C653.906 886.636 654.148 885.599 654.632 884.631H656.226V884.685C655.445 885.737 655.054 886.782 655.054 887.818C655.054 889.271 655.512 889.998 656.429 889.998C656.788 889.998 657.067 889.902 657.265 889.709C657.463 889.516 657.632 889.115 657.773 888.506C657.872 887.995 657.999 887.409 658.156 886.748C658.312 886.086 658.585 885.573 658.976 885.209C659.372 884.849 659.877 884.67 660.491 884.67C661.273 884.67 661.911 884.987 662.406 885.623C662.906 886.258 663.156 887.107 663.156 888.17C663.156 889.264 662.942 890.224 662.515 891.053H660.999V890.998C661.671 890.086 662.007 889.12 662.007 888.099C662.007 887.469 661.89 886.972 661.656 886.607C661.426 886.243 661.106 886.06 660.695 886.06C660.33 886.06 660.051 886.157 659.859 886.349C659.666 886.547 659.497 886.938 659.351 887.521L658.976 889.248C658.82 889.961 658.544 890.498 658.148 890.857C657.757 891.217 657.249 891.396 656.624 891.396C655.817 891.396 655.161 891.066 654.656 890.404C654.156 889.743 653.906 888.855 653.906 887.74ZM659.445 893.974V899.154C661.2 899.112 662.077 898.308 662.077 896.74C662.077 895.948 661.843 895.308 661.374 894.818C660.906 894.329 660.262 894.047 659.445 893.974ZM653.913 897.201C653.913 895.732 654.309 894.592 655.101 893.779C655.898 892.972 657.023 892.568 658.476 892.568C659.919 892.568 661.064 892.956 661.913 893.732C662.767 894.508 663.195 895.537 663.195 896.818C663.195 897.985 662.846 898.889 662.148 899.529C661.45 900.175 660.455 900.498 659.163 900.498H658.406V893.974C657.343 893.974 656.525 894.261 655.952 894.834C655.385 895.412 655.101 896.209 655.101 897.224C655.101 898.235 655.452 899.245 656.156 900.256V900.318H654.663C654.163 899.063 653.913 898.024 653.913 897.201ZM654.656 908.865C654.161 907.808 653.913 906.886 653.913 906.099C653.913 904.74 654.312 903.683 655.109 902.928C655.906 902.178 657.041 901.803 658.515 901.803C659.958 901.803 661.093 902.191 661.921 902.967C662.749 903.743 663.163 904.79 663.163 906.107C663.163 906.977 662.921 907.896 662.437 908.865H660.906V908.803C661.619 907.829 661.976 906.92 661.976 906.076C661.976 905.175 661.676 904.474 661.077 903.974C660.478 903.474 659.624 903.224 658.515 903.224C657.406 903.224 656.559 903.472 655.976 903.967C655.392 904.467 655.101 905.17 655.101 906.076C655.101 906.946 655.452 907.855 656.156 908.803V908.865H654.656ZM653.945 913.349C653.945 911.527 654.947 910.615 656.952 910.615H661.82V909.607H662.945V910.623H665.484V911.99H662.945V915.084H661.82V911.99H657.734C656.807 911.99 656.205 912.053 655.929 912.178C655.658 912.308 655.458 912.503 655.327 912.764C655.202 913.024 655.14 913.357 655.14 913.764C655.14 914.149 655.234 914.573 655.421 915.037V915.084H654.171C654.02 914.464 653.945 913.886 653.945 913.349ZM664.71 918.099V916.545H666.14V918.099H664.71ZM654.116 918.014V916.639H662.945V918.014H654.116ZM653.874 924.107C653.874 922.852 654.288 921.86 655.116 921.131C655.95 920.402 657.085 920.037 658.523 920.037C659.96 920.037 661.098 920.404 661.937 921.139C662.775 921.873 663.195 922.862 663.195 924.107C663.195 925.352 662.778 926.342 661.945 927.076C661.111 927.81 659.971 928.178 658.523 928.178C657.075 928.178 655.937 927.81 655.109 927.076C654.286 926.347 653.874 925.357 653.874 924.107ZM662.023 924.107C662.023 923.258 661.723 922.605 661.124 922.146C660.525 921.688 659.658 921.459 658.523 921.459C657.403 921.459 656.544 921.688 655.945 922.146C655.346 922.605 655.046 923.258 655.046 924.107C655.046 924.956 655.346 925.61 655.945 926.068C656.544 926.527 657.403 926.756 658.523 926.756C660.856 926.756 662.023 925.873 662.023 924.107ZM654.116 937.482V936.107H659.062C660.208 936.107 660.965 935.956 661.335 935.654C661.71 935.352 661.898 934.855 661.898 934.162C661.898 933.344 661.517 932.477 660.757 931.56H654.116V930.185H662.945V931.56H661.882C662.757 932.597 663.195 933.62 663.195 934.631C663.195 935.542 662.908 936.245 662.335 936.74C661.767 937.235 660.945 937.482 659.866 937.482H654.116ZM658.827 949.74L654.82 940.724H656.124L659.265 947.967L662.406 940.724H663.71L659.702 949.74H658.827Z" fill="#CCCCCC"/>
<path d="M654.819 985.066L658.827 976.05H659.702L663.71 985.066H662.405L659.265 977.823L656.124 985.066H654.819ZM666.413 993.73L651.741 988.073V986.816L666.413 992.448V993.73ZM653.905 998.05C653.905 996.946 654.147 995.909 654.632 994.941H656.226V994.995C655.444 996.047 655.054 997.092 655.054 998.128C655.054 999.581 655.512 1000.31 656.429 1000.31C656.788 1000.31 657.067 1000.21 657.265 1000.02C657.463 999.826 657.632 999.425 657.772 998.816C657.871 998.305 657.999 997.719 658.155 997.058C658.312 996.396 658.585 995.883 658.976 995.519C659.371 995.159 659.877 994.98 660.491 994.98C661.272 994.98 661.91 995.297 662.405 995.933C662.905 996.568 663.155 997.417 663.155 998.48C663.155 999.573 662.942 1000.53 662.515 1001.36H660.999V1001.31C661.671 1000.4 662.007 999.43 662.007 998.409C662.007 997.779 661.89 997.282 661.655 996.917C661.426 996.553 661.106 996.37 660.694 996.37C660.33 996.37 660.051 996.467 659.858 996.659C659.666 996.857 659.496 997.248 659.351 997.831L658.976 999.558C658.819 1000.27 658.543 1000.81 658.147 1001.17C657.757 1001.53 657.249 1001.71 656.624 1001.71C655.817 1001.71 655.16 1001.38 654.655 1000.71C654.155 1000.05 653.905 999.165 653.905 998.05ZM659.444 1004.28V1009.46C661.2 1009.42 662.077 1008.62 662.077 1007.05C662.077 1006.26 661.843 1005.62 661.374 1005.13C660.905 1004.64 660.262 1004.36 659.444 1004.28ZM653.913 1007.51C653.913 1006.04 654.309 1004.9 655.101 1004.09C655.897 1003.28 657.022 1002.88 658.476 1002.88C659.918 1002.88 661.064 1003.27 661.913 1004.04C662.767 1004.82 663.194 1005.85 663.194 1007.13C663.194 1008.29 662.845 1009.2 662.147 1009.84C661.45 1010.48 660.455 1010.81 659.163 1010.81H658.405V1004.28C657.343 1004.28 656.525 1004.57 655.952 1005.14C655.384 1005.72 655.101 1006.52 655.101 1007.53C655.101 1008.54 655.452 1009.56 656.155 1010.57V1010.63H654.663C654.163 1009.37 653.913 1008.33 653.913 1007.51ZM654.655 1019.17C654.16 1018.12 653.913 1017.2 653.913 1016.41C653.913 1015.05 654.312 1013.99 655.108 1013.24C655.905 1012.49 657.041 1012.11 658.515 1012.11C659.957 1012.11 661.093 1012.5 661.921 1013.28C662.749 1014.05 663.163 1015.1 663.163 1016.42C663.163 1017.29 662.921 1018.21 662.437 1019.17H660.905V1019.11C661.619 1018.14 661.976 1017.23 661.976 1016.39C661.976 1015.48 661.676 1014.78 661.077 1014.28C660.478 1013.78 659.624 1013.53 658.515 1013.53C657.405 1013.53 656.559 1013.78 655.976 1014.28C655.392 1014.78 655.101 1015.48 655.101 1016.39C655.101 1017.26 655.452 1018.16 656.155 1019.11V1019.17H654.655ZM653.944 1023.66C653.944 1021.84 654.947 1020.92 656.952 1020.92H661.819V1019.92H662.944V1020.93H665.483V1022.3H662.944V1025.39H661.819V1022.3H657.733C656.806 1022.3 656.205 1022.36 655.929 1022.49C655.658 1022.62 655.457 1022.81 655.327 1023.07C655.202 1023.33 655.14 1023.67 655.14 1024.07C655.14 1024.46 655.233 1024.88 655.421 1025.35V1025.39H654.171C654.02 1024.77 653.944 1024.2 653.944 1023.66ZM664.71 1028.41V1026.85H666.14V1028.41H664.71ZM654.116 1028.32V1026.95H662.944V1028.32H654.116ZM653.874 1034.42C653.874 1033.16 654.288 1032.17 655.116 1031.44C655.95 1030.71 657.085 1030.35 658.522 1030.35C659.96 1030.35 661.098 1030.71 661.937 1031.45C662.775 1032.18 663.194 1033.17 663.194 1034.42C663.194 1035.66 662.778 1036.65 661.944 1037.39C661.111 1038.12 659.97 1038.49 658.522 1038.49C657.075 1038.49 655.937 1038.12 655.108 1037.39C654.285 1036.66 653.874 1035.67 653.874 1034.42ZM662.022 1034.42C662.022 1033.57 661.723 1032.91 661.124 1032.46C660.525 1032 659.658 1031.77 658.522 1031.77C657.403 1031.77 656.543 1032 655.944 1032.46C655.345 1032.91 655.046 1033.57 655.046 1034.42C655.046 1035.27 655.345 1035.92 655.944 1036.38C656.543 1036.84 657.403 1037.07 658.522 1037.07C660.856 1037.07 662.022 1036.18 662.022 1034.42ZM654.116 1047.79V1046.42H659.062C660.207 1046.42 660.965 1046.27 661.335 1045.96C661.71 1045.66 661.897 1045.16 661.897 1044.47C661.897 1043.65 661.517 1042.79 660.757 1041.87H654.116V1040.5H662.944V1041.87H661.882C662.757 1042.91 663.194 1043.93 663.194 1044.94C663.194 1045.85 662.908 1046.56 662.335 1047.05C661.767 1047.54 660.944 1047.79 659.866 1047.79H654.116ZM658.827 1060.05L654.819 1051.03H656.124L659.265 1058.28L662.405 1051.03H663.71L659.702 1060.05H658.827Z" fill="#CCCCCC"/>
<path d="M352.664 440.083L356.672 431.067H357.547L361.555 440.083H360.25L357.11 432.84L353.969 440.083H352.664ZM354.063 448.715H356.625C356.537 446.773 356.321 445.523 355.977 444.965C355.638 444.413 355.17 444.137 354.571 444.137C353.513 444.137 352.985 444.778 352.985 446.059C352.985 446.929 353.344 447.814 354.063 448.715ZM351.961 448.715H352.946C352.414 447.981 352.078 447.377 351.938 446.903C351.792 446.429 351.719 445.947 351.719 445.458C351.719 444.671 351.979 444.017 352.5 443.497C353.021 442.976 353.683 442.715 354.485 442.715C355.511 442.715 356.281 443.101 356.797 443.872C357.318 444.648 357.628 446.262 357.727 448.715H357.992C358.607 448.715 359.06 448.533 359.352 448.169C359.649 447.804 359.797 447.163 359.797 446.247C359.797 445.439 359.589 444.541 359.172 443.551V443.489H360.602C360.867 444.463 361 445.4 361 446.301C361 447.609 360.755 448.564 360.266 449.169C359.781 449.778 359.026 450.083 358 450.083H351.961V448.715ZM351.961 452.669H360.789V454.044H359.43C360.336 455.148 360.789 456.166 360.789 457.098C360.789 457.426 360.763 457.757 360.711 458.09H359.274V458.036C359.378 457.603 359.43 457.166 359.43 456.723C359.43 455.838 359.055 454.945 358.305 454.044H351.961V452.669ZM351.789 462.301C351.789 460.478 352.792 459.567 354.797 459.567H359.664V458.559H360.789V459.575H363.328V460.942H360.789V464.036H359.664V460.942H355.578C354.651 460.942 354.05 461.004 353.774 461.129C353.503 461.26 353.302 461.455 353.172 461.715C353.047 461.976 352.985 462.309 352.985 462.715C352.985 463.101 353.078 463.525 353.266 463.989V464.036H352.016C351.865 463.416 351.789 462.838 351.789 462.301ZM362.555 467.051V465.497H363.985V467.051H362.555ZM351.961 466.965V465.59H360.789V466.965H351.961ZM352.5 476.051C352.005 474.994 351.758 474.072 351.758 473.286C351.758 471.926 352.156 470.869 352.953 470.114C353.75 469.364 354.886 468.989 356.36 468.989C357.802 468.989 358.938 469.377 359.766 470.153C360.594 470.929 361.008 471.976 361.008 473.294C361.008 474.163 360.766 475.083 360.281 476.051H358.75V475.989C359.464 475.015 359.821 474.106 359.821 473.262C359.821 472.361 359.521 471.661 358.922 471.161C358.323 470.661 357.469 470.411 356.36 470.411C355.25 470.411 354.404 470.658 353.821 471.153C353.237 471.653 352.946 472.356 352.946 473.262C352.946 474.132 353.297 475.041 354 475.989V476.051H352.5ZM351.961 479.137V477.762H364.258V479.137H351.961ZM357.289 482.567V487.747C359.045 487.705 359.922 486.9 359.922 485.333C359.922 484.541 359.688 483.9 359.219 483.411C358.75 482.921 358.107 482.64 357.289 482.567ZM351.758 485.794C351.758 484.325 352.154 483.184 352.946 482.372C353.742 481.564 354.867 481.161 356.321 481.161C357.763 481.161 358.909 481.549 359.758 482.325C360.612 483.101 361.039 484.129 361.039 485.411C361.039 486.577 360.69 487.481 359.992 488.122C359.295 488.767 358.3 489.09 357.008 489.09H356.25V482.567C355.188 482.567 354.37 482.853 353.797 483.426C353.229 484.004 352.946 484.801 352.946 485.817C352.946 486.827 353.297 487.838 354 488.848V488.911H352.508C352.008 487.655 351.758 486.616 351.758 485.794ZM356.672 500.708L352.664 491.692H353.969L357.11 498.934L360.25 491.692H361.555L357.547 500.708H356.672Z" fill="#CCCCCC"/>
<path d="M352.664 534.71L356.672 525.694H357.547L361.555 534.71H360.25L357.109 527.468L353.969 534.71H352.664ZM364.258 543.374L349.586 537.718V536.46L364.258 542.093V543.374ZM354.062 550.53H356.625C356.536 548.588 356.32 547.338 355.977 546.78C355.638 546.228 355.169 545.952 354.57 545.952C353.513 545.952 352.984 546.593 352.984 547.874C352.984 548.744 353.344 549.629 354.062 550.53ZM351.961 550.53H352.945C352.414 549.796 352.078 549.192 351.938 548.718C351.792 548.244 351.719 547.762 351.719 547.273C351.719 546.486 351.979 545.832 352.5 545.312C353.021 544.791 353.682 544.53 354.484 544.53C355.51 544.53 356.281 544.916 356.797 545.687C357.318 546.463 357.628 548.077 357.727 550.53H357.992C358.607 550.53 359.06 550.348 359.352 549.983C359.648 549.619 359.797 548.978 359.797 548.062C359.797 547.254 359.589 546.356 359.172 545.366V545.304H360.602C360.867 546.278 361 547.215 361 548.116C361 549.424 360.755 550.379 360.266 550.983C359.781 551.593 359.026 551.898 358 551.898H351.961V550.53ZM351.961 554.483H360.789V555.858H359.43C360.336 556.963 360.789 557.981 360.789 558.913C360.789 559.241 360.763 559.572 360.711 559.905H359.273V559.851C359.378 559.418 359.43 558.981 359.43 558.538C359.43 557.653 359.055 556.76 358.305 555.858H351.961V554.483ZM351.789 564.116C351.789 562.293 352.792 561.382 354.797 561.382H359.664V560.374H360.789V561.39H363.328V562.757H360.789V565.851H359.664V562.757H355.578C354.651 562.757 354.049 562.819 353.773 562.944C353.503 563.075 353.302 563.27 353.172 563.53C353.047 563.791 352.984 564.124 352.984 564.53C352.984 564.916 353.078 565.34 353.266 565.804V565.851H352.016C351.865 565.231 351.789 564.653 351.789 564.116ZM362.555 568.866V567.312H363.984V568.866H362.555ZM351.961 568.78V567.405H360.789V568.78H351.961ZM352.5 577.866C352.005 576.809 351.758 575.887 351.758 575.101C351.758 573.741 352.156 572.684 352.953 571.929C353.75 571.179 354.885 570.804 356.359 570.804C357.802 570.804 358.938 571.192 359.766 571.968C360.594 572.744 361.008 573.791 361.008 575.108C361.008 575.978 360.766 576.898 360.281 577.866H358.75V577.804C359.464 576.83 359.82 575.921 359.82 575.077C359.82 574.176 359.521 573.476 358.922 572.976C358.323 572.476 357.469 572.226 356.359 572.226C355.25 572.226 354.404 572.473 353.82 572.968C353.237 573.468 352.945 574.171 352.945 575.077C352.945 575.947 353.297 576.856 354 577.804V577.866H352.5ZM351.961 580.952V579.577H364.258V580.952H351.961ZM357.289 584.382V589.562C359.044 589.52 359.922 588.715 359.922 587.148C359.922 586.356 359.688 585.715 359.219 585.226C358.75 584.736 358.107 584.455 357.289 584.382ZM351.758 587.608C351.758 586.14 352.154 584.999 352.945 584.187C353.742 583.379 354.867 582.976 356.32 582.976C357.763 582.976 358.909 583.364 359.758 584.14C360.612 584.916 361.039 585.944 361.039 587.226C361.039 588.392 360.69 589.296 359.992 589.937C359.294 590.582 358.299 590.905 357.008 590.905H356.25V584.382C355.188 584.382 354.37 584.668 353.797 585.241C353.229 585.819 352.945 586.616 352.945 587.632C352.945 588.642 353.297 589.653 354 590.663V590.726H352.508C352.008 589.47 351.758 588.431 351.758 587.608ZM356.672 602.523L352.664 593.507H353.969L357.109 600.749L360.25 593.507H361.555L357.547 602.523H356.672Z" fill="#CCCCCC"/>
<path d="M823.517 94.128L827.525 85.1124H828.4L832.408 94.128H831.103L827.963 86.8858L824.822 94.128H823.517ZM822.814 104.73V103.355H827.76C828.905 103.355 829.663 103.204 830.033 102.901C830.408 102.599 830.595 102.102 830.595 101.409C830.595 100.592 830.215 99.7243 829.455 98.8077H822.814V97.4327H831.642V98.8077H830.58C831.455 99.8441 831.892 100.868 831.892 101.878C831.892 102.789 831.606 103.493 831.033 103.987C830.465 104.482 829.642 104.73 828.564 104.73H822.814ZM824.916 112.651H827.478C827.39 110.709 827.174 109.459 826.83 108.901C826.491 108.349 826.023 108.073 825.424 108.073C824.366 108.073 823.838 108.714 823.838 109.995C823.838 110.865 824.197 111.75 824.916 112.651ZM822.814 112.651H823.799C823.267 111.917 822.931 111.313 822.791 110.839C822.645 110.365 822.572 109.883 822.572 109.394C822.572 108.607 822.832 107.954 823.353 107.433C823.874 106.912 824.536 106.651 825.338 106.651C826.364 106.651 827.135 107.037 827.65 107.808C828.171 108.584 828.481 110.198 828.58 112.651H828.845C829.46 112.651 829.913 112.469 830.205 112.105C830.502 111.74 830.65 111.099 830.65 110.183C830.65 109.375 830.442 108.477 830.025 107.487V107.425H831.455C831.72 108.399 831.853 109.336 831.853 110.237C831.853 111.545 831.608 112.5 831.119 113.105C830.635 113.714 829.879 114.019 828.853 114.019H822.814V112.651ZM831.642 123.972L822.814 120.214V119.144L831.642 115.409V116.901L824.752 119.737L831.642 122.534V123.972ZM827.525 135.222L823.517 126.206H824.822L827.963 133.448L831.103 126.206H832.408L828.4 135.222H827.525Z" fill="#CCCCCC"/>
<path d="M823.517 168.049L827.525 159.034H828.4L832.408 168.049H831.103L827.962 160.807L824.822 168.049H823.517ZM835.111 176.714L820.439 171.057V169.799L835.111 175.432V176.714ZM822.814 185.839V184.464H827.759C828.905 184.464 829.663 184.312 830.033 184.01C830.408 183.708 830.595 183.211 830.595 182.518C830.595 181.701 830.215 180.833 829.455 179.917H822.814V178.542H831.642V179.917H830.58C831.455 180.953 831.892 181.977 831.892 182.987C831.892 183.898 831.606 184.602 831.033 185.096C830.465 185.591 829.642 185.839 828.564 185.839H822.814ZM824.916 193.76H827.478C827.389 191.818 827.173 190.568 826.83 190.01C826.491 189.458 826.022 189.182 825.423 189.182C824.366 189.182 823.837 189.823 823.837 191.104C823.837 191.974 824.197 192.859 824.916 193.76ZM822.814 193.76H823.798C823.267 193.026 822.931 192.422 822.791 191.948C822.645 191.474 822.572 190.992 822.572 190.503C822.572 189.716 822.832 189.062 823.353 188.542C823.874 188.021 824.535 187.76 825.337 187.76C826.363 187.76 827.134 188.146 827.65 188.917C828.171 189.693 828.481 191.307 828.58 193.76H828.845C829.46 193.76 829.913 193.578 830.205 193.214C830.501 192.849 830.65 192.208 830.65 191.292C830.65 190.484 830.442 189.586 830.025 188.596V188.534H831.455C831.72 189.508 831.853 190.445 831.853 191.346C831.853 192.654 831.608 193.609 831.119 194.214C830.634 194.823 829.879 195.128 828.853 195.128H822.814V193.76ZM831.642 205.081L822.814 201.323V200.253L831.642 196.518V198.01L824.751 200.846L831.642 203.643V205.081ZM827.525 216.331L823.517 207.315H824.822L827.962 214.557L831.103 207.315H832.408L828.4 216.331H827.525Z" fill="#CCCCCC"/>
<path d="M150.21 892.541L154.218 883.526H155.093L159.1 892.541H157.796L154.655 885.299L151.514 892.541H150.21ZM149.507 903.143V901.768H154.444C155.595 901.768 156.356 901.617 156.725 901.315C157.1 901.013 157.288 900.515 157.288 899.822C157.288 899.01 156.91 898.143 156.155 897.221H149.507V895.846H161.803V897.221H157.28C158.15 898.252 158.585 899.276 158.585 900.291C158.585 901.203 158.298 901.906 157.725 902.401C157.158 902.895 156.335 903.143 155.257 903.143H149.507ZM149.999 905.596H151.569V905.721C150.871 906.778 150.522 907.872 150.522 909.002C150.522 909.836 150.749 910.502 151.202 911.002C151.655 911.507 152.285 911.76 153.093 911.76C153.843 911.76 154.395 911.541 154.749 911.104C155.103 910.666 155.28 909.958 155.28 908.979V908.291H156.483V908.822C156.483 909.666 156.663 910.328 157.022 910.807C157.382 911.286 157.887 911.526 158.538 911.526C159.09 911.526 159.514 911.315 159.811 910.893C160.113 910.476 160.264 909.901 160.264 909.166C160.264 908.109 159.923 907.059 159.241 906.018V905.932H160.78C161.275 906.984 161.522 908.075 161.522 909.205C161.522 910.419 161.267 911.356 160.757 912.018C160.251 912.684 159.566 913.018 158.702 913.018C158.066 913.018 157.499 912.796 156.999 912.354C156.499 911.911 156.181 911.356 156.046 910.69H155.921C155.613 912.403 154.626 913.26 152.96 913.26C151.882 913.26 150.996 912.867 150.303 912.08C149.611 911.294 149.264 910.281 149.264 909.041C149.264 907.859 149.509 906.711 149.999 905.596ZM154.218 925.338L150.21 916.322H151.514L154.655 923.565L157.796 916.322H159.1L155.093 925.338H154.218Z" fill="#CCCCCC"/>
<path d="M150.21 958.499L154.218 949.483H155.093L159.101 958.499H157.796L154.655 951.257L151.515 958.499H150.21ZM161.804 967.163L147.132 961.507V960.249L161.804 965.882V967.163ZM149.507 976.288V974.913H154.444C155.595 974.913 156.356 974.762 156.726 974.46C157.101 974.158 157.288 973.66 157.288 972.967C157.288 972.155 156.91 971.288 156.155 970.366H149.507V968.991H161.804V970.366H157.28C158.15 971.397 158.585 972.421 158.585 973.436C158.585 974.348 158.299 975.051 157.726 975.546C157.158 976.04 156.335 976.288 155.257 976.288H149.507ZM149.999 978.741H151.569V978.866C150.871 979.923 150.522 981.017 150.522 982.147C150.522 982.981 150.749 983.647 151.202 984.147C151.655 984.652 152.285 984.905 153.093 984.905C153.843 984.905 154.395 984.686 154.749 984.249C155.103 983.811 155.28 983.103 155.28 982.124V981.436H156.483V981.967C156.483 982.811 156.663 983.473 157.022 983.952C157.382 984.431 157.887 984.671 158.538 984.671C159.09 984.671 159.515 984.46 159.812 984.038C160.114 983.621 160.265 983.046 160.265 982.311C160.265 981.254 159.924 980.204 159.241 979.163V979.077H160.78C161.275 980.129 161.522 981.22 161.522 982.35C161.522 983.564 161.267 984.501 160.757 985.163C160.252 985.829 159.567 986.163 158.702 986.163C158.067 986.163 157.499 985.941 156.999 985.499C156.499 985.056 156.181 984.501 156.046 983.835H155.921C155.614 985.548 154.627 986.405 152.96 986.405C151.882 986.405 150.996 986.012 150.304 985.225C149.611 984.439 149.265 983.426 149.265 982.186C149.265 981.004 149.509 979.856 149.999 978.741ZM154.218 998.483L150.21 989.467H151.515L154.655 996.71L157.796 989.467H159.101L155.093 998.483H154.218Z" fill="#CCCCCC"/>
<path d="M1041.7 1440.45L1045.71 1431.44H1046.59L1050.59 1440.45H1049.29L1046.15 1433.21L1043.01 1440.45H1041.7ZM1051.59 1445.23V1443.68H1053.02V1445.23H1051.59ZM1041 1445.15V1443.77H1049.83V1445.15H1041ZM1041 1459.2H1045.95C1046.9 1459.2 1047.53 1459.14 1047.85 1459C1048.17 1458.87 1048.41 1458.67 1048.55 1458.39C1048.71 1458.12 1048.78 1457.78 1048.78 1457.36C1048.78 1456.65 1048.39 1455.8 1047.6 1454.84C1047.33 1454.87 1046.98 1454.88 1046.56 1454.88H1041V1453.51H1045.95C1046.92 1453.51 1047.57 1453.44 1047.88 1453.3C1048.19 1453.17 1048.42 1452.97 1048.56 1452.7C1048.71 1452.44 1048.78 1452.1 1048.78 1451.69C1048.78 1450.94 1048.4 1450.11 1047.64 1449.2H1041V1447.82H1049.83V1449.2H1048.77C1049.64 1450.24 1050.08 1451.23 1050.08 1452.16C1050.08 1453.37 1049.6 1454.18 1048.63 1454.6C1049.6 1455.74 1050.08 1456.82 1050.08 1457.84C1050.08 1459.66 1048.97 1460.58 1046.75 1460.58H1041V1459.2ZM1042 1470.23C1039.1 1470.23 1037.66 1468.86 1037.66 1466.12C1037.66 1465.22 1037.78 1464.32 1038.02 1463.43H1039.45V1463.49C1039.07 1464.4 1038.88 1465.3 1038.88 1466.2C1038.88 1467.1 1039.09 1467.77 1039.49 1468.2C1039.89 1468.64 1040.54 1468.86 1041.45 1468.86H1042.32C1041.53 1467.92 1041.13 1466.93 1041.13 1465.9C1041.13 1464.85 1041.52 1464.03 1042.29 1463.44C1043.06 1462.84 1044.13 1462.55 1045.49 1462.55C1046.86 1462.55 1047.96 1462.91 1048.8 1463.64C1049.65 1464.38 1050.08 1465.28 1050.08 1466.37C1050.08 1467.22 1049.85 1468.05 1049.38 1468.86L1049.83 1468.96V1470.23H1042ZM1043.43 1468.86H1048.31C1048.67 1468.08 1048.85 1467.36 1048.85 1466.69C1048.85 1465.83 1048.57 1465.16 1048 1464.68C1047.43 1464.21 1046.62 1463.97 1045.56 1463.97C1043.46 1463.97 1042.41 1464.75 1042.41 1466.31C1042.41 1467.14 1042.75 1467.99 1043.43 1468.86ZM1045.71 1482.56L1041.7 1473.55H1043.01L1046.15 1480.79L1049.29 1473.55H1050.59L1046.59 1482.56H1045.71Z" fill="#CCCCCC"/>
<path d="M1222.51 1204.18L1226.51 1195.17H1227.39L1231.4 1204.18H1230.09L1226.95 1196.94L1223.81 1204.18H1222.51ZM1232.76 1212.18V1212.13C1232.92 1211.66 1233 1211.23 1233 1210.86C1233 1210.16 1232.83 1209.66 1232.51 1209.36C1232.18 1209.06 1231.64 1208.92 1230.89 1208.92H1230.63V1211.62H1229.51V1208.96H1221.8V1207.59H1229.51V1206.58H1230.63V1207.59H1230.97C1232.01 1207.59 1232.8 1207.85 1233.36 1208.37C1233.91 1208.89 1234.19 1209.63 1234.19 1210.6C1234.19 1211.08 1234.13 1211.6 1234.03 1212.18H1232.76ZM1221.56 1216.28C1221.56 1215.03 1221.97 1214.04 1222.8 1213.31C1223.64 1212.58 1224.77 1212.21 1226.21 1212.21C1227.65 1212.21 1228.78 1212.58 1229.62 1213.31C1230.46 1214.05 1230.88 1215.04 1230.88 1216.28C1230.88 1217.53 1230.46 1218.52 1229.63 1219.25C1228.8 1219.99 1227.66 1220.35 1226.21 1220.35C1224.76 1220.35 1223.62 1219.99 1222.79 1219.25C1221.97 1218.52 1221.56 1217.53 1221.56 1216.28ZM1229.71 1216.28C1229.71 1215.43 1229.41 1214.78 1228.81 1214.32C1228.21 1213.86 1227.34 1213.63 1226.21 1213.63C1225.09 1213.63 1224.23 1213.86 1223.63 1214.32C1223.03 1214.78 1222.73 1215.43 1222.73 1216.28C1222.73 1217.13 1223.03 1217.79 1223.63 1218.24C1224.23 1218.7 1225.09 1218.93 1226.21 1218.93C1228.54 1218.93 1229.71 1218.05 1229.71 1216.28ZM1221.8 1222.36H1230.63V1223.74H1229.27C1230.18 1224.84 1230.63 1225.86 1230.63 1226.79C1230.63 1227.12 1230.6 1227.45 1230.55 1227.78H1229.11V1227.73C1229.22 1227.3 1229.27 1226.86 1229.27 1226.42C1229.27 1225.53 1228.9 1224.64 1228.15 1223.74H1221.8V1222.36ZM1221.8 1240.35H1226.75C1227.7 1240.35 1228.34 1240.29 1228.65 1240.15C1228.98 1240.02 1229.21 1239.82 1229.36 1239.54C1229.51 1239.27 1229.58 1238.93 1229.58 1238.51C1229.58 1237.8 1229.19 1236.96 1228.4 1235.99C1228.13 1236.02 1227.79 1236.03 1227.36 1236.03H1221.8V1234.66H1226.75C1227.73 1234.66 1228.37 1234.59 1228.68 1234.46C1228.99 1234.32 1229.22 1234.12 1229.36 1233.85C1229.51 1233.59 1229.58 1233.25 1229.58 1232.84C1229.58 1232.09 1229.2 1231.26 1228.44 1230.35H1221.8V1228.97H1230.63V1230.35H1229.57C1230.44 1231.39 1230.88 1232.38 1230.88 1233.31C1230.88 1234.52 1230.4 1235.33 1229.44 1235.75C1230.4 1236.89 1230.88 1237.97 1230.88 1238.99C1230.88 1240.81 1229.77 1241.73 1227.55 1241.73H1221.8V1240.35ZM1226.51 1253.99L1222.51 1244.98H1223.81L1226.95 1252.22L1230.09 1244.98H1231.4L1227.39 1253.99H1226.51Z" fill="#CCCCCC"/>
<path d="M1222.51 1288.19L1226.51 1279.17H1227.39L1231.4 1288.19H1230.09L1226.95 1280.95L1223.81 1288.19H1222.51ZM1234.1 1296.85L1219.43 1291.2V1289.94L1234.1 1295.57V1296.85ZM1232.76 1303.38V1303.33C1232.92 1302.85 1233 1302.43 1233 1302.06C1233 1301.35 1232.83 1300.85 1232.51 1300.56C1232.18 1300.26 1231.64 1300.11 1230.89 1300.11H1230.63V1302.82H1229.51V1300.16H1221.8V1298.78H1229.51V1297.78H1230.63V1298.78H1230.97C1232.01 1298.78 1232.8 1299.04 1233.36 1299.57C1233.91 1300.09 1234.19 1300.83 1234.19 1301.8C1234.19 1302.27 1234.13 1302.8 1234.03 1303.38H1232.76ZM1221.56 1307.48C1221.56 1306.22 1221.97 1305.23 1222.8 1304.5C1223.64 1303.77 1224.77 1303.41 1226.21 1303.41C1227.65 1303.41 1228.78 1303.78 1229.62 1304.51C1230.46 1305.25 1230.88 1306.23 1230.88 1307.48C1230.88 1308.72 1230.46 1309.71 1229.63 1310.45C1228.8 1311.18 1227.66 1311.55 1226.21 1311.55C1224.76 1311.55 1223.62 1311.18 1222.79 1310.45C1221.97 1309.72 1221.56 1308.73 1221.56 1307.48ZM1229.71 1307.48C1229.71 1306.63 1229.41 1305.98 1228.81 1305.52C1228.21 1305.06 1227.34 1304.83 1226.21 1304.83C1225.09 1304.83 1224.23 1305.06 1223.63 1305.52C1223.03 1305.98 1222.73 1306.63 1222.73 1307.48C1222.73 1308.33 1223.03 1308.98 1223.63 1309.44C1224.23 1309.9 1225.09 1310.13 1226.21 1310.13C1228.54 1310.13 1229.71 1309.25 1229.71 1307.48ZM1221.8 1313.56H1230.63V1314.93H1229.27C1230.18 1316.04 1230.63 1317.06 1230.63 1317.99C1230.63 1318.32 1230.6 1318.65 1230.55 1318.98H1229.11V1318.92C1229.22 1318.49 1229.27 1318.06 1229.27 1317.61C1229.27 1316.73 1228.9 1315.83 1228.15 1314.93H1221.8V1313.56ZM1221.8 1331.55H1226.75C1227.7 1331.55 1228.34 1331.48 1228.65 1331.35C1228.98 1331.22 1229.21 1331.01 1229.36 1330.74C1229.51 1330.47 1229.58 1330.12 1229.58 1329.71C1229.58 1328.99 1229.19 1328.15 1228.4 1327.18C1228.13 1327.21 1227.79 1327.23 1227.36 1327.23H1221.8V1325.85H1226.75C1227.73 1325.85 1228.37 1325.79 1228.68 1325.65C1228.99 1325.52 1229.22 1325.32 1229.36 1325.05C1229.51 1324.78 1229.58 1324.45 1229.58 1324.03C1229.58 1323.29 1229.2 1322.46 1228.44 1321.54H1221.8V1320.17H1230.63V1321.54H1229.57C1230.44 1322.59 1230.88 1323.58 1230.88 1324.51C1230.88 1325.71 1230.4 1326.53 1229.44 1326.95C1230.4 1328.08 1230.88 1329.16 1230.88 1330.18C1230.88 1332.01 1229.77 1332.92 1227.55 1332.92H1221.8V1331.55ZM1226.51 1345.19L1222.51 1336.17H1223.81L1226.95 1343.42L1230.09 1336.17H1231.4L1227.39 1345.19H1226.51Z" fill="#CCCCCC"/>
<path d="M1017.87 548.161L1021.88 539.145H1022.75L1026.76 548.161H1025.46L1022.32 540.919L1019.18 548.161H1017.87ZM1017.17 558.762V557.387H1022.11C1023.26 557.387 1024.02 557.236 1024.39 556.934C1024.76 556.632 1024.95 556.135 1024.95 555.442C1024.95 554.63 1024.57 553.762 1023.82 552.841H1017.17V551.466H1029.46V552.841H1024.94C1025.81 553.872 1026.25 554.895 1026.25 555.911C1026.25 556.822 1025.96 557.525 1025.39 558.02C1024.82 558.515 1024 558.762 1022.92 558.762H1017.17ZM1017 564.145C1017 562.322 1018 561.411 1020 561.411H1024.87V560.403H1026V561.419H1028.54V562.786H1026V565.88H1024.87V562.786H1020.79C1019.86 562.786 1019.26 562.848 1018.98 562.973C1018.71 563.104 1018.51 563.299 1018.38 563.559C1018.25 563.82 1018.19 564.153 1018.19 564.559C1018.19 564.945 1018.29 565.369 1018.47 565.833V565.88H1017.22C1017.07 565.26 1017 564.682 1017 564.145ZM1017.17 578.801H1022.11C1023.07 578.801 1023.7 578.734 1024.02 578.598C1024.34 578.468 1024.58 578.265 1024.72 577.989C1024.87 577.718 1024.95 577.374 1024.95 576.958C1024.95 576.244 1024.56 575.403 1023.77 574.434C1023.5 574.466 1023.15 574.481 1022.73 574.481H1017.17V573.106H1022.11C1023.09 573.106 1023.74 573.038 1024.04 572.903C1024.36 572.773 1024.58 572.572 1024.73 572.301C1024.88 572.036 1024.95 571.697 1024.95 571.286C1024.95 570.541 1024.57 569.71 1023.81 568.794H1017.17V567.419H1026V568.794H1024.93C1025.81 569.841 1026.25 570.83 1026.25 571.762C1026.25 572.966 1025.76 573.778 1024.8 574.2C1025.76 575.335 1026.25 576.413 1026.25 577.434C1026.25 579.262 1025.14 580.176 1022.92 580.176H1017.17V578.801ZM1017.17 584.169V582.794H1029.46V584.169H1017.17ZM1021.88 596.505L1017.87 587.489H1019.18L1022.32 594.731L1025.46 587.489H1026.76L1022.75 596.505H1021.88Z" fill="#CCCCCC"/>
<path d="M1017.87 630.046L1021.88 621.031H1022.75L1026.76 630.046H1025.46L1022.32 622.804L1019.18 630.046H1017.87ZM1029.46 638.71L1014.79 633.054V631.796L1029.46 637.429V638.71ZM1017.17 647.835V646.46H1022.11C1023.26 646.46 1024.02 646.309 1024.39 646.007C1024.76 645.705 1024.95 645.208 1024.95 644.515C1024.95 643.702 1024.57 642.835 1023.82 641.913H1017.17V640.538H1029.46V641.913H1024.94C1025.81 642.945 1026.25 643.968 1026.25 644.984C1026.25 645.895 1025.96 646.598 1025.39 647.093C1024.82 647.588 1024 647.835 1022.92 647.835H1017.17ZM1017 653.218C1017 651.395 1018 650.484 1020 650.484H1024.87V649.476H1026V650.492H1028.54V651.859H1026V654.952H1024.87V651.859H1020.79C1019.86 651.859 1019.26 651.921 1018.98 652.046C1018.71 652.176 1018.51 652.372 1018.38 652.632C1018.25 652.893 1018.19 653.226 1018.19 653.632C1018.19 654.018 1018.29 654.442 1018.47 654.906V654.952H1017.22C1017.07 654.333 1017 653.755 1017 653.218ZM1017.17 667.874H1022.11C1023.07 667.874 1023.7 667.807 1024.02 667.671C1024.34 667.541 1024.58 667.338 1024.72 667.062C1024.87 666.791 1024.95 666.447 1024.95 666.031C1024.95 665.317 1024.56 664.476 1023.77 663.507C1023.5 663.538 1023.15 663.554 1022.73 663.554H1017.17V662.179H1022.11C1023.09 662.179 1023.74 662.111 1024.04 661.976C1024.36 661.846 1024.58 661.645 1024.73 661.374C1024.88 661.109 1024.95 660.77 1024.95 660.359C1024.95 659.614 1024.57 658.783 1023.81 657.867H1017.17V656.492H1026V657.867H1024.93C1025.81 658.913 1026.25 659.903 1026.25 660.835C1026.25 662.038 1025.76 662.851 1024.8 663.273C1025.76 664.408 1026.25 665.486 1026.25 666.507C1026.25 668.335 1025.14 669.249 1022.92 669.249H1017.17V667.874ZM1017.17 673.242V671.867H1029.46V673.242H1017.17ZM1021.88 685.577L1017.87 676.562H1019.18L1022.32 683.804L1025.46 676.562H1026.76L1022.75 685.577H1021.88Z" fill="#CCCCCC"/>
<path d="M1131.7 223.652L1135.71 214.636H1136.58L1140.59 223.652H1139.28L1136.14 216.41L1133 223.652H1131.7ZM1133.09 232.66H1138.31C1138.67 231.889 1138.85 231.168 1138.85 230.496C1138.85 229.631 1138.54 228.957 1137.93 228.472C1137.33 227.988 1136.48 227.746 1135.38 227.746C1133.16 227.746 1132.05 228.54 1132.05 230.129C1132.05 231.019 1132.4 231.863 1133.09 232.66ZM1130.99 232.66H1131.97C1131.16 231.655 1130.75 230.681 1130.75 229.738C1130.75 228.696 1131.16 227.866 1131.98 227.246C1132.8 226.631 1133.91 226.324 1135.33 226.324C1136.73 226.324 1137.87 226.696 1138.75 227.441C1139.63 228.186 1140.07 229.105 1140.07 230.199C1140.07 230.965 1139.84 231.785 1139.38 232.66H1143.29V234.035H1130.99V232.66ZM1141.59 238.168V236.613H1143.02V238.168H1141.59ZM1130.99 238.082V236.707H1139.82V238.082H1130.99ZM1139.82 248.23L1130.99 244.472V243.402L1139.82 239.668V241.16L1132.93 243.996L1139.82 246.793V248.23ZM1135.71 259.48L1131.7 250.465H1133L1136.14 257.707L1139.28 250.465H1140.59L1136.58 259.48H1135.71Z" fill="#CCCCCC"/>
<path d="M1131.7 318.28L1135.71 309.264H1136.58L1140.59 318.28H1139.28L1136.14 311.037L1133 318.28H1131.7ZM1143.29 326.944L1128.62 321.287V320.03L1143.29 325.662V326.944ZM1133.09 334.475H1138.31C1138.67 333.704 1138.85 332.983 1138.85 332.311C1138.85 331.446 1138.54 330.772 1137.93 330.287C1137.33 329.803 1136.48 329.561 1135.38 329.561C1133.16 329.561 1132.05 330.355 1132.05 331.944C1132.05 332.834 1132.4 333.678 1133.09 334.475ZM1130.99 334.475H1131.97C1131.16 333.47 1130.75 332.496 1130.75 331.553C1130.75 330.511 1131.16 329.681 1131.98 329.061C1132.8 328.446 1133.91 328.139 1135.33 328.139C1136.73 328.139 1137.87 328.511 1138.75 329.256C1139.63 330.001 1140.07 330.92 1140.07 332.014C1140.07 332.78 1139.84 333.6 1139.38 334.475H1143.29V335.85H1130.99V334.475ZM1141.59 339.983V338.428H1143.02V339.983H1141.59ZM1130.99 339.897V338.522H1139.82V339.897H1130.99ZM1139.82 350.045L1130.99 346.287V345.217L1139.82 341.483V342.975L1132.93 345.811L1139.82 348.608V350.045ZM1135.71 361.295L1131.7 352.28H1133L1136.14 359.522L1139.28 352.28H1140.59L1136.58 361.295H1135.71Z" fill="#CCCCCC"/>
<path d="M65.7512 587.431L70.761 576.161H71.8547L76.8645 587.431H75.2336L71.3079 578.378L67.3821 587.431H65.7512ZM67.4993 598.222H70.7024C70.5917 595.794 70.3215 594.231 69.8918 593.534C69.4687 592.844 68.8827 592.499 68.134 592.499C66.8124 592.499 66.1516 593.3 66.1516 594.902C66.1516 595.989 66.6008 597.096 67.4993 598.222ZM64.8723 598.222H66.1028C65.4387 597.304 65.0188 596.549 64.843 595.956C64.6607 595.364 64.5696 594.762 64.5696 594.15C64.5696 593.167 64.8951 592.35 65.5461 591.698C66.1972 591.047 67.024 590.722 68.0266 590.722C69.3092 590.722 70.2727 591.204 70.9172 592.167C71.5683 593.137 71.9556 595.156 72.0793 598.222H72.4114C73.1796 598.222 73.746 597.994 74.1106 597.538C74.4817 597.083 74.6672 596.282 74.6672 595.136C74.6672 594.127 74.4068 593.004 73.886 591.767V591.689H75.6731C76.0051 592.906 76.1711 594.078 76.1711 595.204C76.1711 596.838 75.8652 598.033 75.2532 598.788C74.6477 599.55 73.7037 599.931 72.4211 599.931H64.8723V598.222ZM64.6086 606.279C64.6086 604.898 64.9114 603.603 65.5168 602.392H67.509V602.46C66.5325 603.775 66.0442 605.081 66.0442 606.376C66.0442 608.193 66.6171 609.101 67.7629 609.101C68.2122 609.101 68.5605 608.98 68.8079 608.74C69.0553 608.499 69.2668 607.997 69.4426 607.236C69.5663 606.598 69.7258 605.865 69.9211 605.038C70.1165 604.212 70.4583 603.57 70.9465 603.115C71.4413 602.665 72.0728 602.441 72.8411 602.441C73.8176 602.441 74.6152 602.838 75.2336 603.632C75.8586 604.426 76.1711 605.488 76.1711 606.816C76.1711 608.183 75.9042 609.384 75.3704 610.419H73.4758V610.351C74.3157 609.212 74.7356 608.004 74.7356 606.728C74.7356 605.94 74.5891 605.318 74.2961 604.863C74.0097 604.407 73.6093 604.179 73.095 604.179C72.6392 604.179 72.2909 604.299 72.05 604.54C71.8092 604.788 71.5976 605.276 71.4153 606.005L70.9465 608.163C70.7512 609.055 70.4062 609.726 69.9114 610.175C69.4231 610.624 68.7883 610.849 68.0071 610.849C66.998 610.849 66.1777 610.435 65.5461 609.609C64.9211 608.782 64.6086 607.672 64.6086 606.279ZM78.1145 614.97V613.027H79.9016V614.97H78.1145ZM64.8723 614.863V613.144H75.9075L75.9075 614.863H64.8723ZM67.4895 625.331H74.0227C74.4654 624.368 74.6868 623.466 74.6868 622.626C74.6868 621.545 74.3059 620.702 73.5442 620.097C72.789 619.491 71.7245 619.189 70.3508 619.189C67.5774 619.189 66.1907 620.182 66.1907 622.167C66.1907 623.281 66.6236 624.335 67.4895 625.331ZM64.8723 625.331H66.093C65.0774 624.075 64.5696 622.857 64.5696 621.679C64.5696 620.377 65.0806 619.338 66.1028 618.564C67.1249 617.795 68.5214 617.411 70.2922 617.411C72.0435 617.411 73.4693 617.877 74.5696 618.808C75.6698 619.739 76.22 620.888 76.22 622.255C76.22 623.212 75.9303 624.238 75.3508 625.331H80.2434V627.05H64.8723V625.331ZM71.5325 631.318V637.792C73.7265 637.74 74.8235 636.734 74.8235 634.775C74.8235 633.785 74.5305 632.984 73.9446 632.372C73.3586 631.76 72.5546 631.409 71.5325 631.318ZM64.6184 635.351C64.6184 633.515 65.1132 632.089 66.1028 631.073C67.0989 630.064 68.5051 629.56 70.3215 629.56C72.1249 629.56 73.5572 630.045 74.6184 631.015C75.6861 631.985 76.22 633.271 76.22 634.872C76.22 636.331 75.7838 637.46 74.9114 638.261C74.039 639.068 72.7955 639.472 71.1809 639.472H70.2336V631.318C68.9055 631.318 67.8834 631.676 67.1672 632.392C66.4576 633.115 66.1028 634.111 66.1028 635.38C66.1028 636.643 66.5422 637.906 67.4211 639.169V639.247H65.5559C64.9309 637.678 64.6184 636.379 64.6184 635.351ZM70.761 653.993L65.7512 642.724H67.3821L71.3079 651.777L75.2336 642.724H76.8645L71.8547 653.993H70.761Z" fill="#CCCCCC"/>
<path d="M65.7512 691.778L70.761 680.509H71.8547L76.8645 691.778H75.2336L71.3079 682.726L67.3821 691.778H65.7512ZM80.2434 702.608L61.9036 695.538V693.966L80.2434 701.007V702.608ZM67.4993 711.554H70.7024C70.5917 709.125 70.3215 707.563 69.8918 706.866C69.4687 706.176 68.8827 705.831 68.134 705.831C66.8124 705.831 66.1516 706.632 66.1516 708.233C66.1516 709.321 66.6008 710.428 67.4993 711.554ZM64.8723 711.554H66.1028C65.4387 710.636 65.0188 709.881 64.843 709.288C64.6607 708.696 64.5696 708.094 64.5696 707.482C64.5696 706.498 64.8951 705.681 65.5461 705.03C66.1972 704.379 67.024 704.054 68.0266 704.054C69.3092 704.054 70.2727 704.536 70.9172 705.499C71.5683 706.469 71.9556 708.487 72.0793 711.554H72.4114C73.1796 711.554 73.746 711.326 74.1106 710.87C74.4817 710.414 74.6672 709.614 74.6672 708.468C74.6672 707.459 74.4068 706.336 73.886 705.099V705.021H75.6731C76.0051 706.238 76.1711 707.41 76.1711 708.536C76.1711 710.17 75.8652 711.365 75.2532 712.12C74.6477 712.882 73.7037 713.263 72.4211 713.263H64.8723V711.554ZM64.6086 719.61C64.6086 718.23 64.9114 716.935 65.5168 715.724H67.509V715.792C66.5325 717.107 66.0442 718.413 66.0442 719.708C66.0442 721.525 66.6171 722.433 67.7629 722.433C68.2122 722.433 68.5605 722.312 68.8079 722.071C69.0553 721.831 69.2668 721.329 69.4426 720.567C69.5663 719.929 69.7258 719.197 69.9211 718.37C70.1165 717.543 70.4583 716.902 70.9465 716.446C71.4413 715.997 72.0728 715.773 72.8411 715.773C73.8176 715.773 74.6152 716.17 75.2336 716.964C75.8586 717.758 76.1711 718.819 76.1711 720.148C76.1711 721.515 75.9042 722.716 75.3704 723.751H73.4758V723.683C74.3157 722.543 74.7356 721.336 74.7356 720.06C74.7356 719.272 74.5891 718.65 74.2961 718.194C74.0097 717.739 73.6093 717.511 73.095 717.511C72.6392 717.511 72.2909 717.631 72.05 717.872C71.8092 718.12 71.5976 718.608 71.4153 719.337L70.9465 721.495C70.7512 722.387 70.4062 723.058 69.9114 723.507C69.4231 723.956 68.7883 724.181 68.0071 724.181C66.998 724.181 66.1777 723.767 65.5461 722.941C64.9211 722.114 64.6086 721.004 64.6086 719.61ZM78.1145 728.302V726.358H79.9016V728.302H78.1145ZM64.8723 728.194V726.476H75.9075V728.194H64.8723ZM67.4895 738.663H74.0227C74.4654 737.7 74.6868 736.798 74.6868 735.958C74.6868 734.877 74.3059 734.034 73.5442 733.429C72.789 732.823 71.7245 732.521 70.3508 732.521C67.5774 732.521 66.1907 733.513 66.1907 735.499C66.1907 736.612 66.6236 737.667 67.4895 738.663ZM64.8723 738.663H66.093C65.0774 737.407 64.5696 736.189 64.5696 735.011C64.5696 733.709 65.0806 732.67 66.1028 731.896C67.1249 731.127 68.5214 730.743 70.2922 730.743C72.0435 730.743 73.4693 731.209 74.5696 732.14C75.6698 733.071 76.22 734.22 76.22 735.587C76.22 736.544 75.9303 737.569 75.3508 738.663H80.2434V740.382H64.8723V738.663ZM71.5325 744.65V751.124C73.7265 751.072 74.8235 750.066 74.8235 748.107C74.8235 747.117 74.5305 746.316 73.9446 745.704C73.3586 745.092 72.5546 744.741 71.5325 744.65ZM64.6184 748.683C64.6184 746.847 65.1132 745.421 66.1028 744.405C67.0989 743.396 68.5051 742.892 70.3215 742.892C72.1249 742.892 73.5572 743.377 74.6184 744.347C75.6861 745.317 76.22 746.603 76.22 748.204C76.22 749.663 75.7838 750.792 74.9114 751.593C74.039 752.4 72.7955 752.804 71.1809 752.804H70.2336V744.65C68.9055 744.65 67.8834 745.008 67.1672 745.724C66.4576 746.446 66.1028 747.442 66.1028 748.712C66.1028 749.975 66.5422 751.238 67.4211 752.501V752.579H65.5559C64.9309 751.01 64.6184 749.711 64.6184 748.683ZM70.761 767.325L65.7512 756.056H67.3821L71.3079 765.108L75.2336 756.056H76.8645L71.8547 767.325H70.761Z" fill="#CCCCCC"/>
<path d="M1372.04 991.727L1377.05 980.457H1378.14L1383.15 991.727H1381.52L1377.6 982.674L1373.67 991.727H1372.04ZM1373.79 1002.52H1376.99C1376.88 1000.09 1376.61 998.527 1376.18 997.831C1375.76 997.14 1375.17 996.795 1374.42 996.795C1373.1 996.795 1372.44 997.596 1372.44 999.198C1372.44 1000.28 1372.89 1001.39 1373.79 1002.52ZM1371.16 1002.52H1372.39C1371.73 1001.6 1371.31 1000.84 1371.13 1000.25C1370.95 999.66 1370.86 999.058 1370.86 998.446C1370.86 997.463 1371.18 996.646 1371.83 995.995C1372.48 995.344 1373.31 995.018 1374.31 995.018C1375.6 995.018 1376.56 995.5 1377.2 996.463C1377.86 997.433 1378.24 999.452 1378.37 1002.52H1378.7C1379.47 1002.52 1380.03 1002.29 1380.4 1001.83C1380.77 1001.38 1380.95 1000.58 1380.95 999.432C1380.95 998.423 1380.69 997.3 1380.17 996.063V995.985H1381.96C1382.29 997.202 1382.46 998.374 1382.46 999.5C1382.46 1001.13 1382.15 1002.33 1381.54 1003.08C1380.94 1003.85 1379.99 1004.23 1378.71 1004.23H1371.16V1002.52ZM1377.05 1019.54L1372.04 1008.27H1373.67L1377.6 1017.32L1381.52 1008.27H1383.15L1378.14 1019.54H1377.05Z" fill="#CCCCCC"/>
<path d="M1372.04 1053.6L1377.05 1042.33H1378.14L1383.15 1053.6H1381.52L1377.6 1044.55L1373.67 1053.6H1372.04ZM1386.53 1064.43L1368.19 1057.36V1055.79L1386.53 1062.83V1064.43ZM1373.79 1073.38H1376.99C1376.88 1070.95 1376.61 1069.39 1376.18 1068.69C1375.76 1068 1375.17 1067.65 1374.42 1067.65C1373.1 1067.65 1372.44 1068.45 1372.44 1070.06C1372.44 1071.14 1372.89 1072.25 1373.79 1073.38ZM1371.16 1073.38H1372.39C1371.73 1072.46 1371.31 1071.7 1371.13 1071.11C1370.95 1070.52 1370.86 1069.92 1370.86 1069.3C1370.86 1068.32 1371.18 1067.5 1371.83 1066.85C1372.48 1066.2 1373.31 1065.88 1374.31 1065.88C1375.6 1065.88 1376.56 1066.36 1377.2 1067.32C1377.86 1068.29 1378.24 1070.31 1378.37 1073.38H1378.7C1379.47 1073.38 1380.03 1073.15 1380.4 1072.69C1380.77 1072.24 1380.95 1071.44 1380.95 1070.29C1380.95 1069.28 1380.69 1068.16 1380.17 1066.92V1066.84H1381.96C1382.29 1068.06 1382.46 1069.23 1382.46 1070.36C1382.46 1071.99 1382.15 1073.19 1381.54 1073.94C1380.94 1074.7 1379.99 1075.08 1378.71 1075.08H1371.16V1073.38ZM1377.05 1090.4L1372.04 1079.13H1373.67L1377.6 1088.18L1381.52 1079.13H1383.15L1378.14 1090.4H1377.05Z" fill="#CCCCCC"/>
<path d="M369.941 1363.62L374.951 1352.35H376.045L381.054 1363.62H379.424L375.498 1354.57L371.572 1363.62H369.941ZM369.697 1369.47H364.99V1367.75H380.097V1369.47H378.877C379.899 1370.73 380.41 1371.95 380.41 1373.13C380.41 1374.44 379.902 1375.47 378.886 1376.24C377.877 1377.01 376.487 1377.39 374.717 1377.39C372.978 1377.39 371.566 1376.93 370.478 1376C369.391 1375.06 368.847 1373.91 368.847 1372.54C368.847 1371.49 369.131 1370.47 369.697 1369.47ZM377.48 1369.47H371.035C370.599 1370.45 370.381 1371.35 370.381 1372.19C370.381 1373.26 370.752 1374.1 371.494 1374.71C372.243 1375.31 373.297 1375.61 374.658 1375.61C377.412 1375.61 378.789 1374.62 378.789 1372.64C378.789 1371.58 378.353 1370.53 377.48 1369.47ZM374.951 1392L369.941 1380.73H371.572L375.498 1389.78L379.424 1380.73H381.054L376.045 1392H374.951Z" fill="#CCCCCC"/>
<path d="M369.941 1427.62L374.951 1416.35H376.045L381.054 1427.62H379.424L375.498 1418.57L371.572 1427.62H369.941ZM384.433 1438.45L366.094 1431.38V1429.81L384.433 1436.85V1438.45ZM369.697 1442.45H364.99V1440.74H380.097V1442.45H378.877C379.899 1443.71 380.41 1444.93 380.41 1446.12C380.41 1447.42 379.902 1448.45 378.886 1449.22C377.877 1449.99 376.487 1450.37 374.717 1450.37C372.978 1450.37 371.566 1449.91 370.478 1448.98C369.391 1448.05 368.847 1446.89 368.847 1445.52C368.847 1444.47 369.131 1443.45 369.697 1442.45ZM377.48 1442.45H371.035C370.599 1443.43 370.381 1444.34 370.381 1445.17C370.381 1446.24 370.752 1447.08 371.494 1447.69C372.243 1448.29 373.297 1448.6 374.658 1448.6C377.412 1448.6 378.789 1447.6 378.789 1445.62C378.789 1444.56 378.353 1443.51 377.48 1442.45ZM374.951 1464.98L369.941 1453.71H371.572L375.498 1462.77L379.424 1453.71H381.054L376.045 1464.98H374.951Z" fill="#CCCCCC"/>
<path d="M10.3997 140.358L15.4094 129.088H16.5032L21.5129 140.358H19.8821L15.9563 131.305L12.0305 140.358H10.3997ZM23.2219 150.358L23.2219 150.299C23.4172 149.7 23.5149 149.17 23.5149 148.708C23.5149 147.829 23.3098 147.204 22.8997 146.833C22.4895 146.462 21.8157 146.276 20.8782 146.276H20.5559L20.5559 149.655H19.1497L19.1497 146.335H9.52075V144.616H19.1497V143.356H20.5559V144.616H20.9856C22.2812 144.616 23.274 144.941 23.9641 145.592C24.6542 146.243 24.9993 147.174 24.9993 148.385C24.9993 148.978 24.9342 149.635 24.804 150.358H23.2219ZM9.21802 155.485C9.21802 153.916 9.7356 152.676 10.7708 151.764C11.8124 150.853 13.2317 150.397 15.0286 150.397C16.8254 150.397 18.248 150.856 19.2961 151.774C20.3443 152.692 20.8684 153.929 20.8684 155.485C20.8684 157.041 20.3476 158.278 19.3059 159.196C18.2642 160.114 16.8385 160.573 15.0286 160.573C13.2187 160.573 11.7961 160.114 10.761 159.196C9.73234 158.284 9.21802 157.047 9.21802 155.485ZM19.4036 155.485C19.4036 154.424 19.0292 153.607 18.2805 153.034C17.5318 152.461 16.4478 152.174 15.0286 152.174C13.6288 152.174 12.5546 152.461 11.8059 153.034C11.0572 153.607 10.6829 154.424 10.6829 155.485C10.6829 156.546 11.0572 157.363 11.8059 157.936C12.5546 158.509 13.6288 158.796 15.0286 158.796C17.9452 158.796 19.4036 157.692 19.4036 155.485ZM9.21802 167.36C9.21802 165.791 9.7356 164.551 10.7708 163.639C11.8124 162.728 13.2317 162.272 15.0286 162.272C16.8254 162.272 18.248 162.731 19.2961 163.649C20.3443 164.567 20.8684 165.804 20.8684 167.36C20.8684 168.916 20.3476 170.153 19.3059 171.071C18.2642 171.989 16.8385 172.448 15.0286 172.448C13.2187 172.448 11.7961 171.989 10.761 171.071C9.73234 170.159 9.21802 168.922 9.21802 167.36ZM19.4036 167.36C19.4036 166.299 19.0292 165.482 18.2805 164.909C17.5318 164.336 16.4478 164.049 15.0286 164.049C13.6288 164.049 12.5546 164.336 11.8059 164.909C11.0572 165.482 10.6829 166.299 10.6829 167.36C10.6829 168.421 11.0572 169.238 11.8059 169.811C12.5546 170.384 13.6288 170.671 15.0286 170.671C17.9452 170.671 19.4036 169.567 19.4036 167.36ZM9.30591 178.444C9.30591 176.165 10.5592 175.026 13.0657 175.026H19.1497V173.766H20.5559V175.036H23.7297V176.745H20.5559V180.612H19.1497V176.745H14.0422C12.8834 176.745 12.1314 176.823 11.7864 176.979C11.4478 177.142 11.1972 177.386 11.0344 177.712C10.8782 178.037 10.8 178.454 10.8 178.962C10.8 179.443 10.9172 179.974 11.1516 180.553V180.612H9.58911C9.40031 179.837 9.30591 179.115 9.30591 178.444ZM16.1809 183.483L16.1809 189.958C18.3749 189.906 19.4719 188.9 19.4719 186.94C19.4719 185.95 19.179 185.15 18.593 184.538C18.0071 183.926 17.203 183.574 16.1809 183.483ZM9.26685 187.516C9.26685 185.68 9.76164 184.254 10.7512 183.239C11.7473 182.23 13.1536 181.725 14.97 181.725C16.7734 181.725 18.2056 182.21 19.2668 183.18C20.3346 184.15 20.8684 185.436 20.8684 187.038C20.8684 188.496 20.4322 189.626 19.5598 190.426C18.6874 191.234 17.4439 191.637 15.8293 191.637H14.8821L14.8821 183.483C13.554 183.483 12.5318 183.841 11.8157 184.557C11.106 185.28 10.7512 186.276 10.7512 187.546C10.7512 188.809 11.1907 190.072 12.0696 191.335V191.413H10.2043C9.57935 189.844 9.26685 188.545 9.26685 187.516ZM9.52075 194.079H20.5559V195.797H18.8567C19.9895 197.178 20.5559 198.45 20.5559 199.616C20.5559 200.026 20.5234 200.439 20.4583 200.856H18.6614V200.788C18.7916 200.247 18.8567 199.7 18.8567 199.147C18.8567 198.04 18.3879 196.924 17.4504 195.797H9.52075V194.079ZM15.4094 214.421L10.3997 203.151H12.0305L15.9563 212.204L19.8821 203.151H21.5129L16.5032 214.421H15.4094Z" fill="#CCCCCC"/>
<path d="M10.3997 252.138L15.4094 240.869H16.5032L21.5129 252.138H19.8821L15.9563 243.086L12.0305 252.138H10.3997ZM24.8918 262.969L6.552 255.898V254.326L24.8918 261.367V262.969ZM23.2219 271.123V271.064C23.4172 270.465 23.5149 269.935 23.5149 269.472C23.5149 268.594 23.3098 267.969 22.8997 267.597C22.4895 267.226 21.8157 267.041 20.8782 267.041H20.5559V270.42H19.1497V267.099H9.52075L9.52075 265.381H19.1497V264.121H20.5559V265.381H20.9856C22.2812 265.381 23.274 265.706 23.9641 266.357C24.6542 267.008 24.9993 267.939 24.9993 269.15C24.9993 269.743 24.9342 270.4 24.804 271.123H23.2219ZM9.21802 276.25C9.21802 274.681 9.7356 273.441 10.7708 272.529C11.8124 271.618 13.2317 271.162 15.0286 271.162C16.8254 271.162 18.248 271.621 19.2961 272.539C20.3443 273.457 20.8684 274.694 20.8684 276.25C20.8684 277.806 20.3476 279.043 19.3059 279.961C18.2642 280.879 16.8385 281.338 15.0286 281.338C13.2187 281.338 11.7961 280.879 10.761 279.961C9.73234 279.049 9.21802 277.812 9.21802 276.25ZM19.4036 276.25C19.4036 275.189 19.0292 274.372 18.2805 273.799C17.5318 273.226 16.4478 272.939 15.0286 272.939C13.6288 272.939 12.5546 273.226 11.8059 273.799C11.0572 274.372 10.6829 275.189 10.6829 276.25C10.6829 277.311 11.0572 278.128 11.8059 278.701C12.5546 279.274 13.6288 279.56 15.0286 279.56C17.9452 279.56 19.4036 278.457 19.4036 276.25ZM9.21802 288.125C9.21802 286.556 9.7356 285.316 10.7708 284.404C11.8124 283.493 13.2317 283.037 15.0286 283.037C16.8254 283.037 18.248 283.496 19.2961 284.414C20.3443 285.332 20.8684 286.569 20.8684 288.125C20.8684 289.681 20.3476 290.918 19.3059 291.836C18.2642 292.754 16.8385 293.213 15.0286 293.213C13.2187 293.213 11.7961 292.754 10.761 291.836C9.73234 290.924 9.21802 289.687 9.21802 288.125ZM19.4036 288.125C19.4036 287.064 19.0292 286.247 18.2805 285.674C17.5318 285.101 16.4478 284.814 15.0286 284.814C13.6288 284.814 12.5546 285.101 11.8059 285.674C11.0572 286.247 10.6829 287.064 10.6829 288.125C10.6829 289.186 11.0572 290.003 11.8059 290.576C12.5546 291.149 13.6288 291.435 15.0286 291.435C17.9452 291.435 19.4036 290.332 19.4036 288.125ZM9.30591 299.209C9.30591 296.93 10.5592 295.791 13.0657 295.791H19.1497V294.531H20.5559V295.801H23.7297V297.51H20.5559V301.377H19.1497V297.51H14.0422C12.8834 297.51 12.1314 297.588 11.7864 297.744C11.4478 297.907 11.1972 298.151 11.0344 298.476C10.8782 298.802 10.8 299.219 10.8 299.726C10.8 300.208 10.9172 300.739 11.1516 301.318V301.377H9.58911C9.40031 300.602 9.30591 299.879 9.30591 299.209ZM16.1809 304.248V310.722C18.3749 310.67 19.4719 309.665 19.4719 307.705C19.4719 306.715 19.179 305.915 18.593 305.303C18.0071 304.691 17.203 304.339 16.1809 304.248ZM9.26685 308.281C9.26685 306.445 9.76164 305.019 10.7512 304.004C11.7473 302.995 13.1536 302.49 14.97 302.49C16.7734 302.49 18.2056 302.975 19.2668 303.945C20.3346 304.915 20.8684 306.201 20.8684 307.803C20.8684 309.261 20.4322 310.39 19.5598 311.191C18.6874 311.999 17.4439 312.402 15.8293 312.402H14.8821L14.8821 304.248C13.554 304.248 12.5318 304.606 11.8157 305.322C11.106 306.045 10.7512 307.041 10.7512 308.31C10.7512 309.573 11.1907 310.836 12.0696 312.099V312.178H10.2043C9.57935 310.609 9.26685 309.31 9.26685 308.281ZM9.52075 314.844H20.5559V316.562H18.8567C19.9895 317.943 20.5559 319.215 20.5559 320.381C20.5559 320.791 20.5234 321.204 20.4583 321.621H18.6614V321.553C18.7916 321.012 18.8567 320.465 18.8567 319.912C18.8567 318.805 18.3879 317.689 17.4504 316.562H9.52075V314.844ZM15.4094 335.185L10.3997 323.916H12.0305L15.9563 332.969L19.8821 323.916H21.5129L16.5032 335.185H15.4094Z" fill="#CCCCCC"/>
</svg>
