<svg width="744" height="1489" viewBox="0 0 744 1489" fill="none" xmlns="http://www.w3.org/2000/svg">
<path d="M677.5 621.336L681.508 612.32H682.383L686.391 621.336H685.086L681.946 614.094L678.805 621.336H677.5ZM676.797 631.938V630.562H681.735C682.886 630.562 683.646 630.411 684.016 630.109C684.391 629.807 684.579 629.31 684.579 628.617C684.579 627.805 684.201 626.938 683.446 626.016H676.797V624.641H689.094V626.016H684.571C685.441 627.047 685.875 628.07 685.875 629.086C685.875 629.997 685.589 630.701 685.016 631.195C684.448 631.69 683.625 631.938 682.547 631.938H676.797ZM676.625 637.32C676.625 635.497 677.628 634.586 679.633 634.586H684.5V633.578H685.625V634.594H688.165V635.961H685.625V639.055H684.5V635.961H680.415C679.487 635.961 678.886 636.023 678.61 636.148C678.339 636.279 678.139 636.474 678.008 636.734C677.883 636.995 677.821 637.328 677.821 637.734C677.821 638.12 677.915 638.544 678.102 639.008V639.055H676.852C676.701 638.435 676.625 637.857 676.625 637.32ZM676.797 651.977H681.743C682.696 651.977 683.331 651.909 683.649 651.773C683.972 651.643 684.206 651.44 684.352 651.164C684.503 650.893 684.579 650.549 684.579 650.133C684.579 649.419 684.185 648.578 683.399 647.609C683.128 647.641 682.782 647.656 682.36 647.656H676.797V646.281H681.743C682.722 646.281 683.365 646.214 683.672 646.078C683.985 645.948 684.214 645.747 684.36 645.477C684.506 645.211 684.579 644.872 684.579 644.461C684.579 643.716 684.198 642.885 683.438 641.969H676.797V640.594H685.625V641.969H684.563C685.438 643.016 685.875 644.005 685.875 644.938C685.875 646.141 685.394 646.953 684.43 647.375C685.394 648.51 685.875 649.589 685.875 650.609C685.875 652.438 684.766 653.352 682.547 653.352H676.797V651.977ZM676.797 657.344V655.969H689.094V657.344H676.797ZM681.508 669.68L677.5 660.664H678.805L681.946 667.906L685.086 660.664H686.391L682.383 669.68H681.508Z" fill="#CCCCCC"/>
<path d="M677.5 697.242L681.508 688.227H682.383L686.391 697.242H685.086L681.946 690L678.805 697.242H677.5ZM689.094 705.906L674.422 700.25V698.992L689.094 704.625V705.906ZM676.797 715.031V713.656H681.735C682.886 713.656 683.646 713.505 684.016 713.203C684.391 712.901 684.579 712.404 684.579 711.711C684.579 710.898 684.201 710.031 683.446 709.109H676.797V707.734H689.094V709.109H684.571C685.441 710.141 685.875 711.164 685.875 712.18C685.875 713.091 685.589 713.794 685.016 714.289C684.448 714.784 683.625 715.031 682.547 715.031H676.797ZM676.625 720.414C676.625 718.591 677.628 717.68 679.633 717.68H684.5V716.672H685.625V717.688H688.165V719.055H685.625V722.148H684.5V719.055H680.415C679.487 719.055 678.886 719.117 678.61 719.242C678.339 719.372 678.139 719.568 678.008 719.828C677.883 720.089 677.821 720.422 677.821 720.828C677.821 721.214 677.915 721.638 678.102 722.102V722.148H676.852C676.701 721.529 676.625 720.951 676.625 720.414ZM676.797 735.07H681.743C682.696 735.07 683.331 735.003 683.649 734.867C683.972 734.737 684.206 734.534 684.352 734.258C684.503 733.987 684.579 733.643 684.579 733.227C684.579 732.513 684.185 731.672 683.399 730.703C683.128 730.734 682.782 730.75 682.36 730.75H676.797V729.375H681.743C682.722 729.375 683.365 729.307 683.672 729.172C683.985 729.042 684.214 728.841 684.36 728.57C684.506 728.305 684.579 727.966 684.579 727.555C684.579 726.81 684.198 725.979 683.438 725.062H676.797V723.688H685.625V725.062H684.563C685.438 726.109 685.875 727.099 685.875 728.031C685.875 729.234 685.394 730.047 684.43 730.469C685.394 731.604 685.875 732.682 685.875 733.703C685.875 735.531 684.766 736.445 682.547 736.445H676.797V735.07ZM676.797 740.438V739.062H689.094V740.438H676.797ZM681.508 752.773L677.5 743.758H678.805L681.946 751L685.086 743.758H686.391L682.383 752.773H681.508Z" fill="#CCCCCC"/>
<path d="M615.637 777.109L619.645 768.094H620.52L624.528 777.109H623.223L620.083 769.867L616.942 777.109H615.637ZM614.934 787.711V786.336H619.872C621.023 786.336 621.783 786.185 622.153 785.883C622.528 785.581 622.715 785.083 622.715 784.391C622.715 783.578 622.338 782.711 621.583 781.789H614.934V780.414H627.231V781.789H622.708C623.577 782.82 624.012 783.844 624.012 784.859C624.012 785.771 623.726 786.474 623.153 786.969C622.585 787.464 621.762 787.711 620.684 787.711H614.934ZM614.934 797.992V790.117H616.458C617.176 790.951 618.012 791.885 618.965 792.922C619.918 793.964 620.757 794.737 621.481 795.242C622.205 795.747 622.929 796 623.653 796C624.293 796 624.793 795.786 625.153 795.359C625.512 794.938 625.692 794.362 625.692 793.633C625.692 792.565 625.353 791.516 624.676 790.484V790.406H626.2C626.7 791.458 626.95 792.547 626.95 793.672C626.95 794.859 626.661 795.794 626.083 796.477C625.51 797.159 624.726 797.5 623.731 797.5C623.2 797.5 622.692 797.411 622.208 797.234C621.723 797.062 621.252 796.792 620.793 796.422C620.335 796.052 619.848 795.609 619.333 795.094C618.817 794.578 617.77 793.393 616.192 791.539V797.992H614.934ZM619.645 809.906L615.637 800.891H616.942L620.083 808.133L623.223 800.891H624.528L620.52 809.906H619.645Z" fill="#CCCCCC"/>
<path d="M615.637 838.016L619.645 829H620.52L624.528 838.016H623.223L620.083 830.773L616.942 838.016H615.637ZM627.231 846.68L612.559 841.023V839.766L627.231 845.398V846.68ZM614.934 855.805V854.43H619.872C621.023 854.43 621.783 854.279 622.153 853.977C622.528 853.674 622.715 853.177 622.715 852.484C622.715 851.672 622.338 850.805 621.583 849.883H614.934V848.508H627.231V849.883H622.708C623.577 850.914 624.012 851.938 624.012 852.953C624.012 853.865 623.726 854.568 623.153 855.062C622.585 855.557 621.762 855.805 620.684 855.805H614.934ZM614.934 866.086V858.211H616.458C617.176 859.044 618.012 859.979 618.965 861.016C619.918 862.057 620.757 862.831 621.481 863.336C622.205 863.841 622.929 864.094 623.653 864.094C624.293 864.094 624.793 863.88 625.153 863.453C625.512 863.031 625.692 862.456 625.692 861.727C625.692 860.659 625.353 859.609 624.676 858.578V858.5H626.2C626.7 859.552 626.95 860.641 626.95 861.766C626.95 862.953 626.661 863.888 626.083 864.57C625.51 865.253 624.726 865.594 623.731 865.594C623.2 865.594 622.692 865.505 622.208 865.328C621.723 865.156 621.252 864.885 620.793 864.516C620.335 864.146 619.848 863.703 619.333 863.188C618.817 862.672 617.77 861.487 616.192 859.633V866.086H614.934ZM619.645 878L615.637 868.984H616.942L620.083 876.227L623.223 868.984H624.528L620.52 878H619.645Z" fill="#CCCCCC"/>
<path d="M405.697 715.883L409.705 706.867H410.58L414.587 715.883H413.283L410.142 708.641L407.001 715.883H405.697ZM415.955 723.883V723.836C416.111 723.357 416.189 722.932 416.189 722.562C416.189 721.859 416.025 721.359 415.697 721.062C415.369 720.766 414.83 720.617 414.08 720.617H413.822V723.32H412.697V720.664H404.994V719.289H412.697V718.281H413.822V719.289H414.166C415.202 719.289 415.996 719.549 416.548 720.07C417.1 720.591 417.376 721.336 417.376 722.305C417.376 722.779 417.324 723.305 417.22 723.883H415.955ZM404.751 727.984C404.751 726.729 405.166 725.737 405.994 725.008C406.827 724.279 407.962 723.914 409.4 723.914C410.837 723.914 411.975 724.281 412.814 725.016C413.653 725.75 414.072 726.74 414.072 727.984C414.072 729.229 413.655 730.219 412.822 730.953C411.988 731.688 410.848 732.055 409.4 732.055C407.952 732.055 406.814 731.688 405.986 730.953C405.163 730.224 404.751 729.234 404.751 727.984ZM412.9 727.984C412.9 727.135 412.6 726.482 412.001 726.023C411.403 725.565 410.535 725.336 409.4 725.336C408.28 725.336 407.421 725.565 406.822 726.023C406.223 726.482 405.923 727.135 405.923 727.984C405.923 728.833 406.223 729.487 406.822 729.945C407.421 730.404 408.28 730.633 409.4 730.633C411.733 730.633 412.9 729.75 412.9 727.984ZM404.751 737.484C404.751 736.229 405.166 735.237 405.994 734.508C406.827 733.779 407.962 733.414 409.4 733.414C410.837 733.414 411.975 733.781 412.814 734.516C413.653 735.25 414.072 736.24 414.072 737.484C414.072 738.729 413.655 739.719 412.822 740.453C411.988 741.188 410.848 741.555 409.4 741.555C407.952 741.555 406.814 741.188 405.986 740.453C405.163 739.724 404.751 738.734 404.751 737.484ZM412.9 737.484C412.9 736.635 412.6 735.982 412.001 735.523C411.403 735.065 410.535 734.836 409.4 734.836C408.28 734.836 407.421 735.065 406.822 735.523C406.223 735.982 405.923 736.635 405.923 737.484C405.923 738.333 406.223 738.987 406.822 739.445C407.421 739.904 408.28 740.133 409.4 740.133C411.733 740.133 412.9 739.25 412.9 737.484ZM404.822 746.352C404.822 744.529 405.824 743.617 407.83 743.617H412.697V742.609H413.822V743.625H416.361V744.992H413.822V748.086H412.697V744.992H408.611C407.684 744.992 407.082 745.055 406.806 745.18C406.535 745.31 406.335 745.505 406.205 745.766C406.08 746.026 406.017 746.359 406.017 746.766C406.017 747.151 406.111 747.576 406.298 748.039V748.086H405.048C404.897 747.466 404.822 746.888 404.822 746.352ZM410.322 750.383V755.562C412.077 755.521 412.955 754.716 412.955 753.148C412.955 752.357 412.72 751.716 412.251 751.227C411.783 750.737 411.139 750.456 410.322 750.383ZM404.791 753.609C404.791 752.141 405.186 751 405.978 750.188C406.775 749.38 407.9 748.977 409.353 748.977C410.796 748.977 411.942 749.365 412.791 750.141C413.645 750.917 414.072 751.945 414.072 753.227C414.072 754.393 413.723 755.297 413.025 755.938C412.327 756.583 411.332 756.906 410.041 756.906H409.283V750.383C408.22 750.383 407.403 750.669 406.83 751.242C406.262 751.82 405.978 752.617 405.978 753.633C405.978 754.643 406.33 755.654 407.033 756.664V756.727H405.541C405.041 755.471 404.791 754.432 404.791 753.609ZM404.994 758.859H413.822V760.234H412.462C413.369 761.339 413.822 762.357 413.822 763.289C413.822 763.617 413.796 763.948 413.744 764.281H412.306V764.227C412.41 763.794 412.462 763.357 412.462 762.914C412.462 762.029 412.087 761.135 411.337 760.234H404.994V758.859ZM409.705 775.133L405.697 766.117H407.001L410.142 773.359L413.283 766.117H414.587L410.58 775.133H409.705Z" fill="#CCCCCC"/>
<path d="M405.703 803.789L409.711 794.773H410.586L414.594 803.789H413.289L410.148 796.547L407.008 803.789H405.703ZM417.297 812.453L402.625 806.797V805.539L417.297 811.172V812.453ZM415.961 818.977V818.93C416.117 818.451 416.195 818.026 416.195 817.656C416.195 816.953 416.031 816.453 415.703 816.156C415.375 815.859 414.836 815.711 414.086 815.711H413.828V818.414H412.703V815.758H405V814.383H412.703V813.375H413.828V814.383H414.172C415.208 814.383 416.003 814.643 416.555 815.164C417.107 815.685 417.383 816.43 417.383 817.398C417.383 817.872 417.331 818.398 417.227 818.977H415.961ZM404.758 823.078C404.758 821.823 405.172 820.831 406 820.102C406.833 819.372 407.969 819.008 409.406 819.008C410.844 819.008 411.982 819.375 412.82 820.109C413.659 820.844 414.078 821.833 414.078 823.078C414.078 824.323 413.661 825.312 412.828 826.047C411.995 826.781 410.854 827.148 409.406 827.148C407.958 827.148 406.82 826.781 405.992 826.047C405.169 825.318 404.758 824.328 404.758 823.078ZM412.906 823.078C412.906 822.229 412.607 821.576 412.008 821.117C411.409 820.659 410.542 820.43 409.406 820.43C408.286 820.43 407.427 820.659 406.828 821.117C406.229 821.576 405.93 822.229 405.93 823.078C405.93 823.927 406.229 824.581 406.828 825.039C407.427 825.497 408.286 825.727 409.406 825.727C411.74 825.727 412.906 824.844 412.906 823.078ZM404.758 832.578C404.758 831.323 405.172 830.331 406 829.602C406.833 828.872 407.969 828.508 409.406 828.508C410.844 828.508 411.982 828.875 412.82 829.609C413.659 830.344 414.078 831.333 414.078 832.578C414.078 833.823 413.661 834.812 412.828 835.547C411.995 836.281 410.854 836.648 409.406 836.648C407.958 836.648 406.82 836.281 405.992 835.547C405.169 834.818 404.758 833.828 404.758 832.578ZM412.906 832.578C412.906 831.729 412.607 831.076 412.008 830.617C411.409 830.159 410.542 829.93 409.406 829.93C408.286 829.93 407.427 830.159 406.828 830.617C406.229 831.076 405.93 831.729 405.93 832.578C405.93 833.427 406.229 834.081 406.828 834.539C407.427 834.997 408.286 835.227 409.406 835.227C411.74 835.227 412.906 834.344 412.906 832.578ZM404.828 841.445C404.828 839.622 405.831 838.711 407.836 838.711H412.703V837.703H413.828V838.719H416.367V840.086H413.828V843.18H412.703V840.086H408.617C407.69 840.086 407.089 840.148 406.812 840.273C406.542 840.404 406.341 840.599 406.211 840.859C406.086 841.12 406.023 841.453 406.023 841.859C406.023 842.245 406.117 842.669 406.305 843.133V843.18H405.055C404.904 842.56 404.828 841.982 404.828 841.445ZM410.328 845.477V850.656C412.083 850.615 412.961 849.81 412.961 848.242C412.961 847.451 412.727 846.81 412.258 846.32C411.789 845.831 411.146 845.549 410.328 845.477ZM404.797 848.703C404.797 847.234 405.193 846.094 405.984 845.281C406.781 844.474 407.906 844.07 409.359 844.07C410.802 844.07 411.948 844.458 412.797 845.234C413.651 846.01 414.078 847.039 414.078 848.32C414.078 849.487 413.729 850.391 413.031 851.031C412.333 851.677 411.339 852 410.047 852H409.289V845.477C408.227 845.477 407.409 845.763 406.836 846.336C406.268 846.914 405.984 847.711 405.984 848.727C405.984 849.737 406.336 850.747 407.039 851.758V851.82H405.547C405.047 850.565 404.797 849.526 404.797 848.703ZM405 853.953H413.828V855.328H412.469C413.375 856.432 413.828 857.451 413.828 858.383C413.828 858.711 413.802 859.042 413.75 859.375H412.312V859.32C412.417 858.888 412.469 858.451 412.469 858.008C412.469 857.122 412.094 856.229 411.344 855.328H405V853.953ZM409.711 870.227L405.703 861.211H407.008L410.148 868.453L413.289 861.211H414.594L410.586 870.227H409.711Z" fill="#CCCCCC"/>
<path d="M480.585 1392.05L484.593 1383.03H485.468L489.476 1392.05H488.171L485.03 1384.8L481.89 1392.05H480.585ZM479.882 1402.59V1401.21H480.944C480.075 1400.14 479.64 1399.12 479.64 1398.14C479.64 1397.22 479.924 1396.51 480.491 1396.02C481.064 1395.53 481.882 1395.29 482.944 1395.29H488.71V1396.66H483.749C482.614 1396.66 481.861 1396.82 481.491 1397.12C481.121 1397.42 480.937 1397.92 480.937 1398.61C480.937 1399.42 481.314 1400.29 482.069 1401.21H488.71V1402.59H479.882ZM479.882 1406.63V1405.26H492.179V1406.63H479.882ZM484.593 1418.97L480.585 1409.95H481.89L485.03 1417.2L488.171 1409.95H489.476L485.468 1418.97H484.593Z" fill="#CCCCCC"/>
<path d="M480.585 1447.95L484.593 1438.94H485.468L489.476 1447.95H488.171L485.03 1440.71L481.89 1447.95H480.585ZM492.179 1456.62L477.507 1450.96V1449.7L492.179 1455.34V1456.62ZM479.882 1465.68V1464.3H480.944C480.075 1463.24 479.64 1462.21 479.64 1461.23C479.64 1460.31 479.924 1459.61 480.491 1459.12C481.064 1458.63 481.882 1458.38 482.944 1458.38H488.71V1459.76H483.749C482.614 1459.76 481.861 1459.91 481.491 1460.21C481.121 1460.52 480.937 1461.02 480.937 1461.7C480.937 1462.52 481.314 1463.38 482.069 1464.3H488.71V1465.68H479.882ZM479.882 1469.73V1468.35H492.179V1469.73H479.882ZM484.593 1482.06L480.585 1473.05H481.89L485.03 1480.29L488.171 1473.05H489.476L485.468 1482.06H484.593Z" fill="#CCCCCC"/>
<path d="M642.367 217.008L646.375 207.992H647.25L651.258 217.008H649.953L646.812 209.766L643.672 217.008L642.367 217.008ZM642.133 221.695L641.664 221.578V220.313L653.961 220.312V221.688H649.523C650.336 222.693 650.742 223.669 650.742 224.617C650.742 225.654 650.333 226.479 649.516 227.094C648.698 227.714 647.578 228.023 646.156 228.023C644.75 228.023 643.609 227.651 642.734 226.906C641.859 226.161 641.422 225.24 641.422 224.141C641.422 223.281 641.659 222.466 642.133 221.695ZM648.406 221.688H643.172C642.823 222.469 642.648 223.193 642.648 223.859C642.648 224.724 642.951 225.396 643.555 225.875C644.159 226.359 645.013 226.602 646.117 226.602C648.336 226.602 649.445 225.807 649.445 224.219C649.445 223.375 649.099 222.531 648.406 221.688ZM641.422 233.469C641.422 232.214 641.836 231.221 642.664 230.492C643.497 229.763 644.633 229.398 646.07 229.398C647.508 229.398 648.646 229.766 649.484 230.5C650.323 231.234 650.742 232.224 650.742 233.469C650.742 234.714 650.326 235.703 649.492 236.438C648.659 237.172 647.518 237.539 646.07 237.539C644.622 237.539 643.484 237.172 642.656 236.438C641.833 235.708 641.422 234.719 641.422 233.469ZM649.57 233.469C649.57 232.62 649.271 231.966 648.672 231.508C648.073 231.049 647.206 230.82 646.07 230.82C644.951 230.82 644.091 231.049 643.492 231.508C642.893 231.966 642.594 232.62 642.594 233.469C642.594 234.318 642.893 234.971 643.492 235.43C644.091 235.888 644.951 236.117 646.07 236.117C648.404 236.117 649.57 235.234 649.57 233.469ZM643.758 245.25H648.984C649.339 244.479 649.516 243.758 649.516 243.086C649.516 242.221 649.211 241.547 648.602 241.062C647.997 240.578 647.146 240.336 646.047 240.336C643.828 240.336 642.719 241.13 642.719 242.719C642.719 243.609 643.065 244.453 643.758 245.25ZM641.664 245.25H642.641C641.828 244.245 641.422 243.271 641.422 242.328C641.422 241.286 641.831 240.456 642.648 239.836C643.466 239.221 644.583 238.914 646 238.914C647.401 238.914 648.542 239.286 649.422 240.031C650.302 240.776 650.742 241.695 650.742 242.789C650.742 243.555 650.51 244.375 650.047 245.25H653.961V246.625H641.664V245.25ZM650.492 256.758L638.406 251.578V250.109L642.047 251.75L650.492 248.195V249.688L643.773 252.5L650.492 255.32V256.758ZM646.375 268.008L642.367 258.992H643.672L646.812 266.234L649.953 258.992H651.258L647.25 268.008H646.375Z" fill="#CCCCCC"/>
<path d="M642.367 296.914L646.375 287.898H647.25L651.258 296.914H649.953L646.812 289.672L643.672 296.914H642.367ZM653.961 305.578L639.289 299.922V298.664L653.961 304.297V305.578ZM642.133 308.789L641.664 308.672V307.406H653.961V308.781H649.523C650.336 309.786 650.742 310.763 650.742 311.711C650.742 312.747 650.333 313.573 649.516 314.188C648.698 314.807 647.578 315.117 646.156 315.117C644.75 315.117 643.609 314.745 642.734 314C641.859 313.255 641.422 312.333 641.422 311.234C641.422 310.375 641.659 309.56 642.133 308.789ZM648.406 308.781H643.172C642.823 309.562 642.648 310.286 642.648 310.953C642.648 311.818 642.951 312.49 643.555 312.969C644.159 313.453 645.013 313.695 646.117 313.695C648.336 313.695 649.445 312.901 649.445 311.312C649.445 310.469 649.099 309.625 648.406 308.781ZM641.422 320.562C641.422 319.307 641.836 318.315 642.664 317.586C643.497 316.857 644.633 316.492 646.07 316.492C647.508 316.492 648.646 316.859 649.484 317.594C650.323 318.328 650.742 319.318 650.742 320.562C650.742 321.807 650.326 322.797 649.492 323.531C648.659 324.266 647.518 324.633 646.07 324.633C644.622 324.633 643.484 324.266 642.656 323.531C641.833 322.802 641.422 321.812 641.422 320.562ZM649.57 320.562C649.57 319.714 649.271 319.06 648.672 318.602C648.073 318.143 647.206 317.914 646.07 317.914C644.951 317.914 644.091 318.143 643.492 318.602C642.893 319.06 642.594 319.714 642.594 320.562C642.594 321.411 642.893 322.065 643.492 322.523C644.091 322.982 644.951 323.211 646.07 323.211C648.404 323.211 649.57 322.328 649.57 320.562ZM643.758 332.344H648.984C649.339 331.573 649.516 330.852 649.516 330.18C649.516 329.315 649.211 328.641 648.602 328.156C647.997 327.672 647.146 327.43 646.047 327.43C643.828 327.43 642.719 328.224 642.719 329.812C642.719 330.703 643.065 331.547 643.758 332.344ZM641.664 332.344H642.641C641.828 331.339 641.422 330.365 641.422 329.422C641.422 328.38 641.831 327.549 642.648 326.93C643.466 326.315 644.583 326.008 646 326.008C647.401 326.008 648.542 326.38 649.422 327.125C650.302 327.87 650.742 328.789 650.742 329.883C650.742 330.648 650.51 331.469 650.047 332.344H653.961V333.719H641.664V332.344ZM650.492 343.852L638.406 338.672V337.203L642.047 338.844L650.492 335.289V336.781L643.773 339.594L650.492 342.414V343.852ZM646.375 355.102L642.367 346.086H643.672L646.812 353.328L649.953 346.086H651.258L647.25 355.102H646.375Z" fill="#CCCCCC"/>
<path d="M685.501 1180.09L689.509 1171.07H690.384L694.392 1180.09H693.087L689.946 1172.84L686.806 1180.09H685.501ZM684.587 1185.88C684.587 1184.78 684.829 1183.74 685.313 1182.77H686.907V1182.83C686.126 1183.88 685.735 1184.92 685.735 1185.96C685.735 1187.41 686.194 1188.14 687.11 1188.14C687.47 1188.14 687.748 1188.04 687.946 1187.85C688.144 1187.66 688.313 1187.26 688.454 1186.65C688.553 1186.14 688.681 1185.55 688.837 1184.89C688.993 1184.23 689.267 1183.72 689.657 1183.35C690.053 1182.99 690.558 1182.81 691.173 1182.81C691.954 1182.81 692.592 1183.13 693.087 1183.77C693.587 1184.4 693.837 1185.25 693.837 1186.31C693.837 1187.41 693.623 1188.37 693.196 1189.2H691.681V1189.14C692.353 1188.23 692.688 1187.26 692.688 1186.24C692.688 1185.61 692.571 1185.11 692.337 1184.75C692.108 1184.39 691.787 1184.2 691.376 1184.2C691.011 1184.2 690.733 1184.3 690.54 1184.49C690.347 1184.69 690.178 1185.08 690.032 1185.66L689.657 1187.39C689.501 1188.1 689.225 1188.64 688.829 1189C688.438 1189.36 687.931 1189.54 687.306 1189.54C686.498 1189.54 685.842 1189.21 685.337 1188.55C684.837 1187.89 684.587 1187 684.587 1185.88ZM685.306 1192.73H681.54V1191.36H693.626V1192.73H692.649C693.467 1193.74 693.876 1194.72 693.876 1195.66C693.876 1196.71 693.47 1197.53 692.657 1198.15C691.85 1198.76 690.738 1199.07 689.321 1199.07C687.931 1199.07 686.8 1198.7 685.931 1197.95C685.061 1197.21 684.626 1196.29 684.626 1195.19C684.626 1194.35 684.853 1193.53 685.306 1192.73ZM691.532 1192.73H686.376C686.027 1193.52 685.853 1194.24 685.853 1194.91C685.853 1195.77 686.149 1196.44 686.743 1196.92C687.342 1197.41 688.186 1197.65 689.274 1197.65C691.478 1197.65 692.579 1196.85 692.579 1195.27C692.579 1194.42 692.23 1193.58 691.532 1192.73ZM686.899 1206.42H689.462C689.373 1204.48 689.157 1203.23 688.813 1202.67C688.475 1202.12 688.006 1201.84 687.407 1201.84C686.35 1201.84 685.821 1202.48 685.821 1203.77C685.821 1204.64 686.181 1205.52 686.899 1206.42ZM684.798 1206.42H685.782C685.251 1205.69 684.915 1205.08 684.774 1204.61C684.629 1204.14 684.556 1203.65 684.556 1203.16C684.556 1202.38 684.816 1201.72 685.337 1201.2C685.858 1200.68 686.519 1200.42 687.321 1200.42C688.347 1200.42 689.118 1200.81 689.634 1201.58C690.155 1202.35 690.465 1203.97 690.563 1206.42H690.829C691.444 1206.42 691.897 1206.24 692.188 1205.88C692.485 1205.51 692.634 1204.87 692.634 1203.95C692.634 1203.15 692.425 1202.25 692.009 1201.26V1201.2H693.438C693.704 1202.17 693.837 1203.11 693.837 1204.01C693.837 1205.32 693.592 1206.27 693.103 1206.88C692.618 1207.48 691.863 1207.79 690.837 1207.79H684.798V1206.42ZM684.798 1217.67V1216.3H689.743C690.889 1216.3 691.647 1216.15 692.017 1215.84C692.392 1215.54 692.579 1215.04 692.579 1214.35C692.579 1213.53 692.199 1212.67 691.438 1211.75H684.798V1210.38H693.626V1211.75H692.563C693.438 1212.79 693.876 1213.81 693.876 1214.82C693.876 1215.73 693.59 1216.43 693.017 1216.93C692.449 1217.42 691.626 1217.67 690.548 1217.67H684.798ZM689.509 1229.93L685.501 1220.91H686.806L689.946 1228.16L693.087 1220.91H694.392L690.384 1229.93H689.509Z" fill="#CCCCCC"/>
<path d="M685.501 1257.99L689.509 1248.98H690.384L694.392 1257.99H693.087L689.946 1250.75L686.806 1257.99H685.501ZM697.095 1266.66L682.423 1261V1259.74L697.095 1265.38V1266.66ZM684.587 1270.98C684.587 1269.87 684.829 1268.84 685.313 1267.87H686.907V1267.92C686.126 1268.97 685.735 1270.02 685.735 1271.05C685.735 1272.51 686.194 1273.23 687.11 1273.23C687.47 1273.23 687.748 1273.14 687.946 1272.95C688.144 1272.75 688.313 1272.35 688.454 1271.74C688.553 1271.23 688.681 1270.65 688.837 1269.98C688.993 1269.32 689.267 1268.81 689.657 1268.45C690.053 1268.09 690.558 1267.91 691.173 1267.91C691.954 1267.91 692.592 1268.22 693.087 1268.86C693.587 1269.49 693.837 1270.34 693.837 1271.41C693.837 1272.5 693.623 1273.46 693.196 1274.29H691.681V1274.23C692.353 1273.32 692.688 1272.36 692.688 1271.34C692.688 1270.71 692.571 1270.21 692.337 1269.84C692.108 1269.48 691.787 1269.3 691.376 1269.3C691.011 1269.3 690.733 1269.39 690.54 1269.59C690.347 1269.78 690.178 1270.17 690.032 1270.76L689.657 1272.48C689.501 1273.2 689.225 1273.73 688.829 1274.09C688.438 1274.45 687.931 1274.63 687.306 1274.63C686.498 1274.63 685.842 1274.3 685.337 1273.64C684.837 1272.98 684.587 1272.09 684.587 1270.98ZM685.306 1277.83H681.54V1276.45H693.626V1277.83H692.649C693.467 1278.83 693.876 1279.81 693.876 1280.76C693.876 1281.8 693.47 1282.63 692.657 1283.24C691.85 1283.86 690.738 1284.16 689.321 1284.16C687.931 1284.16 686.8 1283.79 685.931 1283.05C685.061 1282.3 684.626 1281.38 684.626 1280.28C684.626 1279.44 684.853 1278.62 685.306 1277.83ZM691.532 1277.83H686.376C686.027 1278.61 685.853 1279.33 685.853 1280C685.853 1280.86 686.149 1281.53 686.743 1282.02C687.342 1282.5 688.186 1282.74 689.274 1282.74C691.478 1282.74 692.579 1281.95 692.579 1280.36C692.579 1279.52 692.23 1278.67 691.532 1277.83ZM686.899 1291.52H689.462C689.373 1289.57 689.157 1288.32 688.813 1287.77C688.475 1287.21 688.006 1286.94 687.407 1286.94C686.35 1286.94 685.821 1287.58 685.821 1288.86C685.821 1289.73 686.181 1290.61 686.899 1291.52ZM684.798 1291.52H685.782C685.251 1290.78 684.915 1290.18 684.774 1289.7C684.629 1289.23 684.556 1288.75 684.556 1288.26C684.556 1287.47 684.816 1286.82 685.337 1286.3C685.858 1285.78 686.519 1285.52 687.321 1285.52C688.347 1285.52 689.118 1285.9 689.634 1286.67C690.155 1287.45 690.465 1289.06 690.563 1291.52H690.829C691.444 1291.52 691.897 1291.33 692.188 1290.97C692.485 1290.6 692.634 1289.96 692.634 1289.05C692.634 1288.24 692.425 1287.34 692.009 1286.35V1286.29H693.438C693.704 1287.26 693.837 1288.2 693.837 1289.1C693.837 1290.41 693.592 1291.36 693.103 1291.97C692.618 1292.58 691.863 1292.88 690.837 1292.88H684.798V1291.52ZM684.798 1302.77V1301.39H689.743C690.889 1301.39 691.647 1301.24 692.017 1300.94C692.392 1300.64 692.579 1300.14 692.579 1299.45C692.579 1298.63 692.199 1297.76 691.438 1296.84H684.798V1295.47H693.626V1296.84H692.563C693.438 1297.88 693.876 1298.9 693.876 1299.91C693.876 1300.83 693.59 1301.53 693.017 1302.02C692.449 1302.52 691.626 1302.77 690.548 1302.77H684.798ZM689.509 1315.02L685.501 1306.01H686.806L689.946 1313.25L693.087 1306.01H694.392L690.384 1315.02H689.509Z" fill="#CCCCCC"/>
<path d="M526.761 1032.95L531.771 1021.68H532.864L537.874 1032.95H536.243L532.317 1023.89L528.392 1032.95H526.761ZM526.517 1038.79H521.81V1037.08H536.917V1038.79H535.696C536.718 1040.05 537.229 1041.27 537.229 1042.46C537.229 1043.76 536.722 1044.79 535.706 1045.56C534.697 1046.33 533.307 1046.71 531.536 1046.71C529.798 1046.71 528.385 1046.25 527.298 1045.32C526.211 1044.39 525.667 1043.24 525.667 1041.86C525.667 1040.81 525.95 1039.79 526.517 1038.79ZM534.3 1038.79H527.854C527.418 1039.77 527.2 1040.68 527.2 1041.51C527.2 1042.58 527.571 1043.42 528.313 1044.03C529.062 1044.63 530.117 1044.94 531.478 1044.94C534.231 1044.94 535.608 1043.94 535.608 1041.96C535.608 1040.9 535.172 1039.85 534.3 1038.79ZM531.771 1061.32L526.761 1050.05H528.392L532.317 1059.11L536.243 1050.05H537.874L532.864 1061.32H531.771Z" fill="#CCCCCC"/>
<path d="M526.761 1091.95L531.771 1080.68H532.864L537.874 1091.95H536.243L532.317 1082.9L528.392 1091.95H526.761ZM541.253 1102.78L522.913 1095.71V1094.14L541.253 1101.18V1102.78ZM526.517 1106.79H521.81V1105.07H536.917V1106.79H535.696C536.718 1108.04 537.229 1109.26 537.229 1110.45C537.229 1111.75 536.722 1112.79 535.706 1113.55C534.697 1114.32 533.307 1114.71 531.536 1114.71C529.798 1114.71 528.385 1114.24 527.298 1113.31C526.211 1112.38 525.667 1111.23 525.667 1109.85C525.667 1108.81 525.95 1107.78 526.517 1106.79ZM534.3 1106.79H527.854C527.418 1107.76 527.2 1108.67 527.2 1109.5C527.2 1110.58 527.571 1111.42 528.313 1112.02C529.062 1112.63 530.117 1112.93 531.478 1112.93C534.231 1112.93 535.608 1111.94 535.608 1109.95C535.608 1108.9 535.172 1107.84 534.3 1106.79ZM531.771 1129.32L526.761 1118.05H528.392L532.317 1127.1L536.243 1118.05H537.874L532.864 1129.32H531.771Z" fill="#CCCCCC"/>
<path d="M526.813 211.816L531.823 200.547H532.917L537.926 211.816H536.295L532.37 202.764L528.444 211.816H526.813ZM539.176 217.793V215.85H540.963V217.793H539.176ZM525.934 217.686V215.967H536.969V217.686H525.934ZM525.934 235.254H532.116C533.307 235.254 534.101 235.169 534.499 235C534.902 234.837 535.195 234.583 535.377 234.238C535.566 233.9 535.661 233.47 535.661 232.949C535.661 232.057 535.169 231.006 534.186 229.795C533.847 229.834 533.415 229.854 532.887 229.854H525.934V228.135H532.116C533.34 228.135 534.144 228.05 534.528 227.881C534.918 227.718 535.205 227.467 535.387 227.129C535.569 226.797 535.661 226.374 535.661 225.859C535.661 224.928 535.185 223.89 534.235 222.744H525.934V221.025H536.969V222.744H535.641C536.735 224.053 537.282 225.29 537.282 226.455C537.282 227.959 536.68 228.975 535.475 229.502C536.68 230.921 537.282 232.269 537.282 233.545C537.282 235.83 535.895 236.973 533.122 236.973H525.934V235.254ZM527.184 249.043C523.564 249.043 521.754 247.327 521.754 243.896C521.754 242.77 521.907 241.65 522.213 240.537H523.991V240.615C523.522 241.755 523.288 242.881 523.288 243.994C523.288 245.12 523.542 245.957 524.049 246.504C524.551 247.051 525.364 247.324 526.491 247.324H527.584C526.595 246.146 526.1 244.912 526.1 243.623C526.1 242.314 526.582 241.289 527.545 240.547C528.509 239.805 529.844 239.434 531.549 239.434C533.255 239.434 534.635 239.889 535.69 240.801C536.751 241.719 537.282 242.855 537.282 244.209C537.282 245.277 536.992 246.315 536.413 247.324L536.969 247.451V249.043H527.184ZM528.971 247.324H535.075C535.524 246.354 535.749 245.449 535.749 244.609C535.749 243.535 535.394 242.699 534.684 242.1C533.974 241.507 532.959 241.211 531.637 241.211C529.007 241.211 527.692 242.188 527.692 244.141C527.692 245.176 528.118 246.237 528.971 247.324ZM531.823 264.453L526.813 253.184H528.444L532.37 262.236L536.295 253.184H537.926L532.917 264.453H531.823Z" fill="#CCCCCC"/>
<path d="M457.813 487.314L462.823 476.045H463.917L468.926 487.314H467.295L463.37 478.262L459.444 487.314H457.813ZM457.52 493.174L456.934 493.027V491.445H472.305V493.164H466.758C467.774 494.421 468.282 495.641 468.282 496.826C468.282 498.122 467.771 499.154 466.749 499.922C465.726 500.697 464.327 501.084 462.549 501.084C460.792 501.084 459.366 500.618 458.272 499.688C457.178 498.757 456.631 497.604 456.631 496.23C456.631 495.156 456.928 494.137 457.52 493.174ZM465.362 493.164H458.819C458.383 494.141 458.165 495.046 458.165 495.879C458.165 496.96 458.542 497.799 459.297 498.398C460.053 499.004 461.12 499.307 462.5 499.307C465.274 499.307 466.661 498.314 466.661 496.328C466.661 495.273 466.228 494.219 465.362 493.164ZM456.934 503.613H467.969V505.332H466.27C467.403 506.712 467.969 507.985 467.969 509.15C467.969 509.561 467.937 509.974 467.872 510.391H466.075V510.322C466.205 509.782 466.27 509.235 466.27 508.682C466.27 507.575 465.801 506.458 464.864 505.332H456.934V503.613ZM462.823 523.955L457.813 512.686H459.444L463.37 521.738L467.295 512.686H468.926L463.917 523.955H462.823Z" fill="#CCCCCC"/>
<path d="M728.894 51.7422L733.903 40.4727H734.997L740.007 51.7422H738.376L734.45 42.6895L730.524 51.7422H728.894ZM730.632 63.002H737.165C737.608 62.0384 737.829 61.1367 737.829 60.2969C737.829 59.2161 737.448 58.373 736.687 57.7676C735.931 57.1621 734.867 56.8594 733.493 56.8594C730.72 56.8594 729.333 57.8522 729.333 59.8379C729.333 60.9512 729.766 62.0059 730.632 63.002ZM728.015 63.002L729.235 63.002C728.22 61.7454 727.712 60.528 727.712 59.3496C727.712 58.0475 728.223 57.0091 729.245 56.2344C730.267 55.4661 731.664 55.082 733.435 55.082C735.186 55.082 736.612 55.5475 737.712 56.4785C738.812 57.4095 739.362 58.5586 739.362 59.9258C739.362 60.8828 739.073 61.9082 738.493 63.002H743.386V64.7207H728.015V63.002ZM741.257 69.8867V67.9434H743.044V69.8867H741.257ZM728.015 69.7793V68.0605H739.05V69.7793H728.015ZM739.05 82.4648L728.015 77.7676V76.4297L739.05 71.7617V73.627L730.437 77.1719L739.05 80.668V82.4648ZM733.903 96.5273L728.894 85.2578H730.524L734.45 94.3105L738.376 85.2578H740.007L734.997 96.5273H733.903Z" fill="#CCCCCC"/>
<path d="M728.894 127.75L733.903 116.48H734.997L740.007 127.75H738.376L734.45 118.697L730.524 127.75H728.894ZM743.386 138.58L725.046 131.51V129.938L743.386 136.979V138.58ZM730.632 147.994H737.165C737.608 147.031 737.829 146.129 737.829 145.289C737.829 144.208 737.448 143.365 736.687 142.76C735.931 142.154 734.867 141.852 733.493 141.852C730.72 141.852 729.333 142.844 729.333 144.83C729.333 145.943 729.766 146.998 730.632 147.994ZM728.015 147.994H729.235C728.22 146.738 727.712 145.52 727.712 144.342C727.712 143.04 728.223 142.001 729.245 141.227C730.267 140.458 731.664 140.074 733.435 140.074C735.186 140.074 736.612 140.54 737.712 141.471C738.812 142.402 739.362 143.551 739.362 144.918C739.362 145.875 739.073 146.9 738.493 147.994H743.386V149.713H728.015V147.994ZM741.257 154.879V152.936H743.044V154.879H741.257ZM728.015 154.771V153.053H739.05V154.771H728.015ZM739.05 167.457L728.015 162.76V161.422L739.05 156.754V158.619L730.437 162.164L739.05 165.66V167.457ZM733.903 181.52L728.894 170.25H730.524L734.45 179.303L738.376 170.25H740.007L734.997 181.52H733.903Z" fill="#CCCCCC"/>
<path d="M238.703 774.109L242.711 765.094H243.586L247.594 774.109H246.289L243.148 766.867L240.008 774.109H238.703ZM238 784.711V783.336H242.938C244.089 783.336 244.849 783.185 245.219 782.883C245.594 782.581 245.781 782.083 245.781 781.391C245.781 780.578 245.404 779.711 244.648 778.789H238V777.414H250.297V778.789H245.773C246.643 779.82 247.078 780.844 247.078 781.859C247.078 782.771 246.792 783.474 246.219 783.969C245.651 784.464 244.828 784.711 243.75 784.711H238ZM238 794.992V787.117H239.523C240.242 787.951 241.078 788.885 242.031 789.922C242.984 790.964 243.823 791.737 244.547 792.242C245.271 792.747 245.995 793 246.719 793C247.359 793 247.859 792.786 248.219 792.359C248.578 791.938 248.758 791.362 248.758 790.633C248.758 789.565 248.419 788.516 247.742 787.484V787.406H249.266C249.766 788.458 250.016 789.547 250.016 790.672C250.016 791.859 249.727 792.794 249.148 793.477C248.576 794.159 247.792 794.5 246.797 794.5C246.266 794.5 245.758 794.411 245.273 794.234C244.789 794.062 244.318 793.792 243.859 793.422C243.401 793.052 242.914 792.609 242.398 792.094C241.883 791.578 240.836 790.393 239.258 788.539V794.992H238ZM242.711 806.906L238.703 797.891H240.008L243.148 805.133L246.289 797.891H247.594L243.586 806.906H242.711Z" fill="#CCCCCC"/>
<path d="M238.703 835.016L242.711 826H243.586L247.594 835.016H246.289L243.148 827.773L240.008 835.016H238.703ZM250.297 843.68L235.625 838.023V836.766L250.297 842.398V843.68ZM238 852.805V851.43H242.938C244.089 851.43 244.849 851.279 245.219 850.977C245.594 850.674 245.781 850.177 245.781 849.484C245.781 848.672 245.404 847.805 244.648 846.883H238V845.508H250.297V846.883H245.773C246.643 847.914 247.078 848.938 247.078 849.953C247.078 850.865 246.792 851.568 246.219 852.062C245.651 852.557 244.828 852.805 243.75 852.805H238ZM238 863.086V855.211H239.523C240.242 856.044 241.078 856.979 242.031 858.016C242.984 859.057 243.823 859.831 244.547 860.336C245.271 860.841 245.995 861.094 246.719 861.094C247.359 861.094 247.859 860.88 248.219 860.453C248.578 860.031 248.758 859.456 248.758 858.727C248.758 857.659 248.419 856.609 247.742 855.578V855.5H249.266C249.766 856.552 250.016 857.641 250.016 858.766C250.016 859.953 249.727 860.888 249.148 861.57C248.576 862.253 247.792 862.594 246.797 862.594C246.266 862.594 245.758 862.505 245.273 862.328C244.789 862.156 244.318 861.885 243.859 861.516C243.401 861.146 242.914 860.703 242.398 860.188C241.883 859.672 240.836 858.487 239.258 856.633V863.086H238ZM242.711 875L238.703 865.984H240.008L243.148 873.227L246.289 865.984H247.594L243.586 875H242.711Z" fill="#CCCCCC"/>
<path d="M3.38428 230.883L7.39209 221.867H8.26709L12.2749 230.883H10.9702L7.82959 223.641L4.68896 230.883H3.38428ZM13.6421 238.883V238.836C13.7983 238.357 13.8765 237.932 13.8765 237.562C13.8765 236.859 13.7124 236.359 13.3843 236.062C13.0562 235.766 12.5171 235.617 11.7671 235.617H11.5093L11.5093 238.32H10.3843L10.3843 235.664H2.68115V234.289H10.3843V233.281H11.5093V234.289H11.853C12.8895 234.289 13.6838 234.549 14.2358 235.07C14.7879 235.591 15.064 236.336 15.064 237.305C15.064 237.779 15.0119 238.305 14.9077 238.883H13.6421ZM2.43896 242.984C2.43896 241.729 2.85303 240.737 3.68115 240.008C4.51449 239.279 5.6499 238.914 7.0874 238.914C8.5249 238.914 9.66292 239.281 10.5015 240.016C11.34 240.75 11.7593 241.74 11.7593 242.984C11.7593 244.229 11.3426 245.219 10.5093 245.953C9.67594 246.688 8.53532 247.055 7.0874 247.055C5.63949 247.055 4.50146 246.688 3.67334 245.953C2.85042 245.224 2.43896 244.234 2.43896 242.984ZM10.5874 242.984C10.5874 242.135 10.2879 241.482 9.68896 241.023C9.09001 240.565 8.22282 240.336 7.0874 240.336C5.96761 240.336 5.10824 240.565 4.50928 241.023C3.91032 241.482 3.61084 242.135 3.61084 242.984C3.61084 243.833 3.91032 244.487 4.50928 244.945C5.10824 245.404 5.96761 245.633 7.0874 245.633C9.42074 245.633 10.5874 244.75 10.5874 242.984ZM2.43896 252.484C2.43896 251.229 2.85303 250.237 3.68115 249.508C4.51449 248.779 5.6499 248.414 7.0874 248.414C8.5249 248.414 9.66292 248.781 10.5015 249.516C11.34 250.25 11.7593 251.24 11.7593 252.484C11.7593 253.729 11.3426 254.719 10.5093 255.453C9.67594 256.188 8.53532 256.555 7.0874 256.555C5.63949 256.555 4.50146 256.188 3.67334 255.453C2.85042 254.724 2.43896 253.734 2.43896 252.484ZM10.5874 252.484C10.5874 251.635 10.2879 250.982 9.68896 250.523C9.09001 250.065 8.22282 249.836 7.0874 249.836C5.96761 249.836 5.10824 250.065 4.50928 250.523C3.91032 250.982 3.61084 251.635 3.61084 252.484C3.61084 253.333 3.91032 253.987 4.50928 254.445C5.10824 254.904 5.96761 255.133 7.0874 255.133C9.42074 255.133 10.5874 254.25 10.5874 252.484ZM2.50928 261.352C2.50928 259.529 3.51188 258.617 5.51709 258.617H10.3843V257.609H11.5093V258.625H14.0483V259.992H11.5093V263.086H10.3843V259.992H6.29834C5.37126 259.992 4.76969 260.055 4.49365 260.18C4.22282 260.31 4.0223 260.505 3.89209 260.766C3.76709 261.026 3.70459 261.359 3.70459 261.766C3.70459 262.151 3.79834 262.576 3.98584 263.039V263.086H2.73584C2.5848 262.466 2.50928 261.888 2.50928 261.352ZM8.00928 265.383V270.562C9.76449 270.521 10.6421 269.716 10.6421 268.148C10.6421 267.357 10.4077 266.716 9.93896 266.227C9.47021 265.737 8.82699 265.456 8.00928 265.383ZM2.47803 268.609C2.47803 267.141 2.87386 266 3.66553 265.188C4.4624 264.38 5.5874 263.977 7.04053 263.977C8.48324 263.977 9.62907 264.365 10.478 265.141C11.3322 265.917 11.7593 266.945 11.7593 268.227C11.7593 269.393 11.4103 270.297 10.7124 270.938C10.0145 271.583 9.01969 271.906 7.72803 271.906H6.97021V265.383C5.90771 265.383 5.09001 265.669 4.51709 266.242C3.94938 266.82 3.66553 267.617 3.66553 268.633C3.66553 269.643 4.01709 270.654 4.72021 271.664V271.727H3.22803C2.72803 270.471 2.47803 269.432 2.47803 268.609ZM2.68115 273.859H11.5093V275.234H10.1499C11.0562 276.339 11.5093 277.357 11.5093 278.289C11.5093 278.617 11.4832 278.948 11.4312 279.281H9.99365V279.227C10.0978 278.794 10.1499 278.357 10.1499 277.914C10.1499 277.029 9.7749 276.135 9.0249 275.234H2.68115L2.68115 273.859ZM7.39209 290.133L3.38428 281.117H4.68896L7.82959 288.359L10.9702 281.117H12.2749L8.26709 290.133H7.39209Z" fill="#CCCCCC"/>
<path d="M3.38696 318.789L7.39478 309.773H8.26978L12.2776 318.789H10.9729L7.83228 311.547L4.69165 318.789H3.38696ZM14.9807 327.453L0.308838 321.797V320.539L14.9807 326.172V327.453ZM13.6448 333.977V333.93C13.801 333.451 13.8792 333.026 13.8792 332.656C13.8792 331.953 13.7151 331.453 13.387 331.156C13.0588 330.859 12.5198 330.711 11.7698 330.711H11.512V333.414H10.387V330.758H2.68384V329.383H10.387V328.375H11.512V329.383H11.8557C12.8922 329.383 13.6864 329.643 14.2385 330.164C14.7906 330.685 15.0667 331.43 15.0667 332.398C15.0667 332.872 15.0146 333.398 14.9104 333.977H13.6448ZM2.44165 338.078C2.44165 336.823 2.85571 335.831 3.68384 335.102C4.51717 334.372 5.65259 334.008 7.09009 334.008C8.52759 334.008 9.66561 334.375 10.5042 335.109C11.3427 335.844 11.762 336.833 11.762 338.078C11.762 339.323 11.3453 340.312 10.512 341.047C9.67863 341.781 8.538 342.148 7.09009 342.148C5.64217 342.148 4.50415 341.781 3.67603 341.047C2.85311 340.318 2.44165 339.328 2.44165 338.078ZM10.5901 338.078C10.5901 337.229 10.2906 336.576 9.69165 336.117C9.09269 335.659 8.2255 335.43 7.09009 335.43C5.9703 335.43 5.11092 335.659 4.51196 336.117C3.913 336.576 3.61353 337.229 3.61353 338.078C3.61353 338.927 3.913 339.581 4.51196 340.039C5.11092 340.497 5.9703 340.727 7.09009 340.727C9.42342 340.727 10.5901 339.844 10.5901 338.078ZM2.44165 347.578C2.44165 346.323 2.85571 345.331 3.68384 344.602C4.51717 343.872 5.65259 343.508 7.09009 343.508C8.52759 343.508 9.66561 343.875 10.5042 344.609C11.3427 345.344 11.762 346.333 11.762 347.578C11.762 348.823 11.3453 349.812 10.512 350.547C9.67863 351.281 8.538 351.648 7.09009 351.648C5.64217 351.648 4.50415 351.281 3.67603 350.547C2.85311 349.818 2.44165 348.828 2.44165 347.578ZM10.5901 347.578C10.5901 346.729 10.2906 346.076 9.69165 345.617C9.09269 345.159 8.2255 344.93 7.09009 344.93C5.9703 344.93 5.11092 345.159 4.51196 345.617C3.913 346.076 3.61353 346.729 3.61353 347.578C3.61353 348.427 3.913 349.081 4.51196 349.539C5.11092 349.997 5.9703 350.227 7.09009 350.227C9.42342 350.227 10.5901 349.344 10.5901 347.578ZM2.51196 356.445C2.51196 354.622 3.51457 353.711 5.51978 353.711H10.387V352.703H11.512V353.719H14.051V355.086H11.512V358.18H10.387V355.086H6.30103C5.37394 355.086 4.77238 355.148 4.49634 355.273C4.2255 355.404 4.02498 355.599 3.89478 355.859C3.76978 356.12 3.70728 356.453 3.70728 356.859C3.70728 357.245 3.80103 357.669 3.98853 358.133V358.18H2.73853C2.58748 357.56 2.51196 356.982 2.51196 356.445ZM8.01196 360.477V365.656C9.76717 365.615 10.6448 364.81 10.6448 363.242C10.6448 362.451 10.4104 361.81 9.94165 361.32C9.4729 360.831 8.82967 360.549 8.01196 360.477ZM2.48071 363.703C2.48071 362.234 2.87655 361.094 3.66821 360.281C4.46509 359.474 5.59009 359.07 7.04321 359.07C8.48592 359.07 9.63175 359.458 10.4807 360.234C11.3349 361.01 11.762 362.039 11.762 363.32C11.762 364.487 11.413 365.391 10.7151 366.031C10.0172 366.677 9.02238 367 7.73071 367H6.9729V360.477C5.9104 360.477 5.09269 360.763 4.51978 361.336C3.95207 361.914 3.66821 362.711 3.66821 363.727C3.66821 364.737 4.01978 365.747 4.7229 366.758V366.82H3.23071C2.73071 365.565 2.48071 364.526 2.48071 363.703ZM2.68384 368.953H11.512V370.328H10.1526C11.0588 371.432 11.512 372.451 11.512 373.383C11.512 373.711 11.4859 374.042 11.4338 374.375H9.99634V374.32C10.1005 373.888 10.1526 373.451 10.1526 373.008C10.1526 372.122 9.77759 371.229 9.02759 370.328H2.68384V368.953ZM7.39478 385.227L3.38696 376.211H4.69165L7.83228 383.453L10.9729 376.211H12.2776L8.26978 385.227H7.39478Z" fill="#CCCCCC"/>
<path d="M118.703 401.047L122.711 392.031H123.586L127.594 401.047H126.289L123.148 393.805L120.008 401.047H118.703ZM118 411.586V410.211H119.062C118.193 409.143 117.758 408.12 117.758 407.141C117.758 406.219 118.042 405.513 118.609 405.023C119.182 404.534 120 404.289 121.062 404.289H126.828V405.664H121.867C120.732 405.664 119.979 405.815 119.609 406.117C119.24 406.424 119.055 406.922 119.055 407.609C119.055 408.422 119.432 409.289 120.188 410.211H126.828V411.586H118ZM118 415.633V414.258H130.297V415.633H118ZM122.711 427.969L118.703 418.953H120.008L123.148 426.195L126.289 418.953H127.594L123.586 427.969H122.711Z" fill="#CCCCCC"/>
<path d="M118.703 456.953L122.711 447.938H123.586L127.594 456.953H126.289L123.148 449.711L120.008 456.953H118.703ZM130.297 465.617L115.625 459.961V458.703L130.297 464.336V465.617ZM118 474.68V473.305H119.062C118.193 472.237 117.758 471.214 117.758 470.234C117.758 469.312 118.042 468.607 118.609 468.117C119.182 467.628 120 467.383 121.062 467.383H126.828V468.758H121.867C120.732 468.758 119.979 468.909 119.609 469.211C119.24 469.518 119.055 470.016 119.055 470.703C119.055 471.516 119.432 472.383 120.188 473.305H126.828V474.68H118ZM118 478.727V477.352H130.297V478.727H118ZM122.711 491.062L118.703 482.047H120.008L123.148 489.289L126.289 482.047H127.594L123.586 491.062H122.711Z" fill="#CCCCCC"/>
<path d="M317.696 401.086L321.704 392.07H322.579L326.587 401.086H325.282L322.142 393.844L319.001 401.086H317.696ZM316.782 406.883C316.782 405.779 317.024 404.742 317.509 403.773H319.103V403.828C318.321 404.88 317.931 405.924 317.931 406.961C317.931 408.414 318.389 409.141 319.306 409.141C319.665 409.141 319.944 409.044 320.142 408.852C320.34 408.659 320.509 408.258 320.649 407.648C320.748 407.138 320.876 406.552 321.032 405.891C321.188 405.229 321.462 404.716 321.853 404.352C322.248 403.992 322.754 403.812 323.368 403.812C324.149 403.812 324.787 404.13 325.282 404.766C325.782 405.401 326.032 406.25 326.032 407.312C326.032 408.406 325.819 409.367 325.392 410.195H323.876V410.141C324.548 409.229 324.884 408.263 324.884 407.242C324.884 406.612 324.767 406.115 324.532 405.75C324.303 405.385 323.983 405.203 323.571 405.203C323.207 405.203 322.928 405.299 322.735 405.492C322.543 405.69 322.373 406.081 322.228 406.664L321.853 408.391C321.696 409.104 321.42 409.641 321.024 410C320.634 410.359 320.126 410.539 319.501 410.539C318.694 410.539 318.037 410.208 317.532 409.547C317.032 408.885 316.782 407.997 316.782 406.883ZM317.501 413.734H313.735V412.359H325.821V413.734H324.845C325.662 414.74 326.071 415.716 326.071 416.664C326.071 417.706 325.665 418.534 324.853 419.148C324.045 419.763 322.933 420.07 321.517 420.07C320.126 420.07 318.996 419.698 318.126 418.953C317.256 418.208 316.821 417.286 316.821 416.188C316.821 415.349 317.048 414.531 317.501 413.734ZM323.728 413.734H318.571C318.222 414.516 318.048 415.24 318.048 415.906C318.048 416.766 318.345 417.438 318.938 417.922C319.537 418.406 320.381 418.648 321.47 418.648C323.673 418.648 324.774 417.854 324.774 416.266C324.774 415.422 324.425 414.578 323.728 413.734ZM319.095 427.422H321.657C321.569 425.479 321.353 424.229 321.009 423.672C320.67 423.12 320.201 422.844 319.603 422.844C318.545 422.844 318.017 423.484 318.017 424.766C318.017 425.635 318.376 426.521 319.095 427.422ZM316.993 427.422H317.978C317.446 426.688 317.11 426.083 316.97 425.609C316.824 425.135 316.751 424.654 316.751 424.164C316.751 423.378 317.011 422.724 317.532 422.203C318.053 421.682 318.715 421.422 319.517 421.422C320.543 421.422 321.313 421.807 321.829 422.578C322.35 423.354 322.66 424.969 322.759 427.422H323.024C323.639 427.422 324.092 427.24 324.384 426.875C324.681 426.51 324.829 425.87 324.829 424.953C324.829 424.146 324.621 423.247 324.204 422.258V422.195H325.634C325.899 423.169 326.032 424.107 326.032 425.008C326.032 426.315 325.787 427.271 325.298 427.875C324.813 428.484 324.058 428.789 323.032 428.789H316.993V427.422ZM316.993 438.672V437.297H321.938C323.084 437.297 323.842 437.146 324.212 436.844C324.587 436.542 324.774 436.044 324.774 435.352C324.774 434.534 324.394 433.667 323.634 432.75H316.993V431.375H325.821V432.75H324.759C325.634 433.786 326.071 434.81 326.071 435.82C326.071 436.732 325.785 437.435 325.212 437.93C324.644 438.424 323.821 438.672 322.743 438.672H316.993ZM321.704 450.93L317.696 441.914H319.001L322.142 449.156L325.282 441.914H326.587L322.579 450.93H321.704Z" fill="#CCCCCC"/>
<path d="M317.696 478.992L321.704 469.977H322.579L326.587 478.992H325.282L322.142 471.75L319.001 478.992H317.696ZM329.29 487.656L314.618 482V480.742L329.29 486.375V487.656ZM316.782 491.977C316.782 490.872 317.024 489.836 317.509 488.867H319.103V488.922C318.321 489.974 317.931 491.018 317.931 492.055C317.931 493.508 318.389 494.234 319.306 494.234C319.665 494.234 319.944 494.138 320.142 493.945C320.34 493.753 320.509 493.352 320.649 492.742C320.748 492.232 320.876 491.646 321.032 490.984C321.188 490.323 321.462 489.81 321.853 489.445C322.248 489.086 322.754 488.906 323.368 488.906C324.149 488.906 324.787 489.224 325.282 489.859C325.782 490.495 326.032 491.344 326.032 492.406C326.032 493.5 325.819 494.461 325.392 495.289H323.876V495.234C324.548 494.323 324.884 493.357 324.884 492.336C324.884 491.706 324.767 491.208 324.532 490.844C324.303 490.479 323.983 490.297 323.571 490.297C323.207 490.297 322.928 490.393 322.735 490.586C322.543 490.784 322.373 491.174 322.228 491.758L321.853 493.484C321.696 494.198 321.42 494.734 321.024 495.094C320.634 495.453 320.126 495.633 319.501 495.633C318.694 495.633 318.037 495.302 317.532 494.641C317.032 493.979 316.782 493.091 316.782 491.977ZM317.501 498.828H313.735V497.453H325.821V498.828H324.845C325.662 499.833 326.071 500.81 326.071 501.758C326.071 502.799 325.665 503.628 324.853 504.242C324.045 504.857 322.933 505.164 321.517 505.164C320.126 505.164 318.996 504.792 318.126 504.047C317.256 503.302 316.821 502.38 316.821 501.281C316.821 500.443 317.048 499.625 317.501 498.828ZM323.728 498.828H318.571C318.222 499.609 318.048 500.333 318.048 501C318.048 501.859 318.345 502.531 318.938 503.016C319.537 503.5 320.381 503.742 321.47 503.742C323.673 503.742 324.774 502.948 324.774 501.359C324.774 500.516 324.425 499.672 323.728 498.828ZM319.095 512.516H321.657C321.569 510.573 321.353 509.323 321.009 508.766C320.67 508.214 320.201 507.938 319.603 507.938C318.545 507.938 318.017 508.578 318.017 509.859C318.017 510.729 318.376 511.615 319.095 512.516ZM316.993 512.516H317.978C317.446 511.781 317.11 511.177 316.97 510.703C316.824 510.229 316.751 509.747 316.751 509.258C316.751 508.471 317.011 507.818 317.532 507.297C318.053 506.776 318.715 506.516 319.517 506.516C320.543 506.516 321.313 506.901 321.829 507.672C322.35 508.448 322.66 510.062 322.759 512.516H323.024C323.639 512.516 324.092 512.333 324.384 511.969C324.681 511.604 324.829 510.964 324.829 510.047C324.829 509.24 324.621 508.341 324.204 507.352V507.289H325.634C325.899 508.263 326.032 509.201 326.032 510.102C326.032 511.409 325.787 512.365 325.298 512.969C324.813 513.578 324.058 513.883 323.032 513.883H316.993V512.516ZM316.993 523.766V522.391H321.938C323.084 522.391 323.842 522.24 324.212 521.938C324.587 521.635 324.774 521.138 324.774 520.445C324.774 519.628 324.394 518.76 323.634 517.844H316.993V516.469H325.821V517.844H324.759C325.634 518.88 326.071 519.904 326.071 520.914C326.071 521.826 325.785 522.529 325.212 523.023C324.644 523.518 323.821 523.766 322.743 523.766H316.993ZM321.704 536.023L317.696 527.008H319.001L322.142 534.25L325.282 527.008H326.587L322.579 536.023H321.704Z" fill="#CCCCCC"/>
<path d="M41.8789 1389.95L46.8887 1378.68H47.9824L52.9922 1389.95H51.3613L47.4355 1380.89L43.5098 1389.95H41.8789ZM41.6348 1395.79H36.9277V1394.08H52.0352V1395.79H50.8145C51.8366 1397.05 52.3477 1398.27 52.3477 1399.46C52.3477 1400.76 51.8398 1401.79 50.8242 1402.56C49.8151 1403.33 48.4251 1403.71 46.6543 1403.71C44.916 1403.71 43.5033 1403.25 42.416 1402.32C41.3288 1401.39 40.7852 1400.24 40.7852 1398.86C40.7852 1397.81 41.0684 1396.79 41.6348 1395.79ZM49.418 1395.79H42.9727C42.5365 1396.77 42.3184 1397.68 42.3184 1398.51C42.3184 1399.58 42.6895 1400.42 43.4316 1401.03C44.1803 1401.63 45.235 1401.94 46.5957 1401.94C49.3496 1401.94 50.7266 1400.94 50.7266 1398.96C50.7266 1397.9 50.2904 1396.85 49.418 1395.79ZM46.8887 1418.32L41.8789 1407.05H43.5098L47.4355 1416.11L51.3613 1407.05H52.9922L47.9824 1418.32H46.8887Z" fill="#CCCCCC"/>
<path d="M41.8789 1448.95L46.8887 1437.68H47.9824L52.9922 1448.95H51.3613L47.4355 1439.9L43.5098 1448.95H41.8789ZM56.3711 1459.78L38.0312 1452.71V1451.14L56.3711 1458.18V1459.78ZM41.6348 1463.79H36.9277V1462.07H52.0352V1463.79H50.8145C51.8366 1465.04 52.3477 1466.26 52.3477 1467.45C52.3477 1468.75 51.8398 1469.79 50.8242 1470.55C49.8151 1471.32 48.4251 1471.71 46.6543 1471.71C44.916 1471.71 43.5033 1471.24 42.416 1470.31C41.3288 1469.38 40.7852 1468.23 40.7852 1466.85C40.7852 1465.81 41.0684 1464.78 41.6348 1463.79ZM49.418 1463.79H42.9727C42.5365 1464.76 42.3184 1465.67 42.3184 1466.5C42.3184 1467.58 42.6895 1468.42 43.4316 1469.02C44.1803 1469.63 45.235 1469.93 46.5957 1469.93C49.3496 1469.93 50.7266 1468.94 50.7266 1466.95C50.7266 1465.9 50.2904 1464.84 49.418 1463.79ZM46.8887 1486.32L41.8789 1475.05H43.5098L47.4355 1484.1L51.3613 1475.05H52.9922L47.9824 1486.32H46.8887Z" fill="#CCCCCC"/>
<path d="M161.879 1172.73L166.889 1161.46H167.982L172.992 1172.73H171.361L167.436 1163.68L163.51 1172.73H161.879ZM163.627 1183.52H166.83C166.719 1181.09 166.449 1179.53 166.02 1178.83C165.596 1178.14 165.01 1177.8 164.262 1177.8C162.94 1177.8 162.279 1178.6 162.279 1180.2C162.279 1181.29 162.729 1182.39 163.627 1183.52ZM161 1183.52H162.23C161.566 1182.6 161.146 1181.85 160.971 1181.25C160.788 1180.66 160.697 1180.06 160.697 1179.45C160.697 1178.46 161.023 1177.65 161.674 1177C162.325 1176.35 163.152 1176.02 164.154 1176.02C165.437 1176.02 166.4 1176.5 167.045 1177.46C167.696 1178.43 168.083 1180.45 168.207 1183.52H168.539C169.307 1183.52 169.874 1183.29 170.238 1182.84C170.609 1182.38 170.795 1181.58 170.795 1180.43C170.795 1179.42 170.535 1178.3 170.014 1177.06V1176.99H171.801C172.133 1178.2 172.299 1179.38 172.299 1180.5C172.299 1182.14 171.993 1183.33 171.381 1184.09C170.775 1184.85 169.831 1185.23 168.549 1185.23H161V1183.52ZM166.889 1200.54L161.879 1189.27H163.51L167.436 1198.32L171.361 1189.27H172.992L167.982 1200.54H166.889Z" fill="#CCCCCC"/>
<path d="M161.879 1230.74L166.889 1219.47H167.982L172.992 1230.74H171.361L167.436 1221.68L163.51 1230.74H161.879ZM176.371 1241.57L158.031 1234.5V1232.92L176.371 1239.96V1241.57ZM163.627 1250.51H166.83C166.719 1248.08 166.449 1246.52 166.02 1245.82C165.596 1245.13 165.01 1244.79 164.262 1244.79C162.94 1244.79 162.279 1245.59 162.279 1247.19C162.279 1248.28 162.729 1249.39 163.627 1250.51ZM161 1250.51H162.23C161.566 1249.59 161.146 1248.84 160.971 1248.25C160.788 1247.65 160.697 1247.05 160.697 1246.44C160.697 1245.46 161.023 1244.64 161.674 1243.99C162.325 1243.34 163.152 1243.01 164.154 1243.01C165.437 1243.01 166.4 1243.49 167.045 1244.46C167.696 1245.43 168.083 1247.45 168.207 1250.51H168.539C169.307 1250.51 169.874 1250.28 170.238 1249.83C170.609 1249.37 170.795 1248.57 170.795 1247.43C170.795 1246.42 170.535 1245.29 170.014 1244.06V1243.98H171.801C172.133 1245.2 172.299 1246.37 172.299 1247.49C172.299 1249.13 171.993 1250.32 171.381 1251.08C170.775 1251.84 169.831 1252.22 168.549 1252.22H161V1250.51ZM166.889 1267.53L161.879 1256.26H163.51L167.436 1265.32L171.361 1256.26H172.992L167.982 1267.53H166.889Z" fill="#CCCCCC"/>
<path d="M88.8721 744.816L93.8818 733.547H94.9756L99.9854 744.816H98.3545L94.4287 735.764L90.5029 744.816H88.8721ZM101.235 750.793V748.85H103.022V750.793H101.235ZM87.9932 750.686V748.967H99.0283V750.686H87.9932ZM87.9932 768.254H94.1748C95.3662 768.254 96.1605 768.169 96.5576 768C96.9613 767.837 97.2542 767.583 97.4365 767.238C97.6253 766.9 97.7197 766.47 97.7197 765.949C97.7197 765.057 97.2282 764.006 96.2451 762.795C95.9066 762.834 95.4736 762.854 94.9463 762.854H87.9932V761.135H94.1748C95.3988 761.135 96.2028 761.05 96.5869 760.881C96.9775 760.718 97.264 760.467 97.4463 760.129C97.6286 759.797 97.7197 759.374 97.7197 758.859C97.7197 757.928 97.2445 756.89 96.2939 755.744H87.9932V754.025H99.0283V755.744H97.7002C98.7939 757.053 99.3408 758.29 99.3408 759.455C99.3408 760.959 98.7386 761.975 97.5342 762.502C98.7386 763.921 99.3408 765.269 99.3408 766.545C99.3408 768.83 97.9541 769.973 95.1807 769.973H87.9932V768.254ZM89.2432 782.043C85.6234 782.043 83.8135 780.327 83.8135 776.896C83.8135 775.77 83.9665 774.65 84.2725 773.537H86.0498V773.615C85.5811 774.755 85.3467 775.881 85.3467 776.994C85.3467 778.12 85.6006 778.957 86.1084 779.504C86.6097 780.051 87.4235 780.324 88.5498 780.324H89.6436C88.654 779.146 88.1592 777.912 88.1592 776.623C88.1592 775.314 88.641 774.289 89.6045 773.547C90.568 772.805 91.9027 772.434 93.6084 772.434C95.3141 772.434 96.6943 772.889 97.749 773.801C98.8102 774.719 99.3408 775.855 99.3408 777.209C99.3408 778.277 99.0511 779.315 98.4717 780.324L99.0283 780.451V782.043H89.2432ZM91.0303 780.324H97.1338C97.583 779.354 97.8076 778.449 97.8076 777.609C97.8076 776.535 97.4528 775.699 96.7432 775.1C96.0335 774.507 95.0179 774.211 93.6963 774.211C91.0661 774.211 89.751 775.188 89.751 777.141C89.751 778.176 90.1774 779.237 91.0303 780.324ZM93.8818 797.453L88.8721 786.184H90.5029L94.4287 795.236L98.3545 786.184H99.9854L94.9756 797.453H93.8818Z" fill="#CCCCCC"/>
<path d="M350.872 18.9082L355.882 7.63867H356.976L361.985 18.9082L360.354 18.9082L356.429 9.85547L352.503 18.9082H350.872ZM349.993 37.2676L356.175 37.2676C357.366 37.2676 358.16 37.1829 358.558 37.0137C358.961 36.8509 359.254 36.597 359.437 36.252C359.625 35.9134 359.72 35.4837 359.72 34.9629C359.72 34.071 359.228 33.0195 358.245 31.8086C357.907 31.8477 357.474 31.8672 356.946 31.8672L349.993 31.8672V30.1484L356.175 30.1484C357.399 30.1484 358.203 30.0638 358.587 29.8945C358.978 29.7318 359.264 29.4811 359.446 29.1426C359.629 28.8105 359.72 28.3874 359.72 27.873C359.72 26.9421 359.244 25.9036 358.294 24.7578L349.993 24.7578V23.0391L361.028 23.0391V24.7578H359.7C360.794 26.0664 361.341 27.3034 361.341 28.4688C361.341 29.9727 360.739 30.9883 359.534 31.5156C360.739 32.9349 361.341 34.2826 361.341 35.5586C361.341 37.8438 359.954 38.9863 357.181 38.9863L349.993 38.9863V37.2676ZM352.62 48.8984H355.823C355.713 46.4701 355.442 44.9076 355.013 44.2109C354.59 43.5208 354.004 43.1758 353.255 43.1758C351.933 43.1758 351.272 43.9766 351.272 45.5781C351.272 46.6654 351.722 47.7721 352.62 48.8984ZM349.993 48.8984H351.224C350.56 47.9805 350.14 47.2253 349.964 46.6328C349.782 46.0404 349.69 45.4382 349.69 44.8262C349.69 43.8431 350.016 43.026 350.667 42.375C351.318 41.724 352.145 41.3984 353.147 41.3984C354.43 41.3984 355.394 41.8802 356.038 42.8438C356.689 43.8138 357.076 45.832 357.2 48.8984H357.532C358.3 48.8984 358.867 48.6706 359.231 48.2148C359.603 47.7591 359.788 46.9583 359.788 45.8125C359.788 44.8034 359.528 43.6803 359.007 42.4434V42.3652H360.794C361.126 43.5827 361.292 44.7546 361.292 45.8809C361.292 47.515 360.986 48.7096 360.374 49.4648C359.769 50.2266 358.825 50.6074 357.542 50.6074L349.993 50.6074V48.8984ZM363.235 55.6855V53.7422L365.022 53.7422V55.6855L363.235 55.6855ZM349.993 55.5781V53.8594L361.028 53.8594V55.5781L349.993 55.5781ZM349.993 68.0391V66.3203L356.175 66.3203C357.607 66.3203 358.554 66.1315 359.017 65.7539C359.485 65.3763 359.72 64.7546 359.72 63.8887C359.72 62.8665 359.244 61.7826 358.294 60.6367L349.993 60.6367V58.918L361.028 58.918V60.6367H359.7C360.794 61.9323 361.341 63.2116 361.341 64.4746C361.341 65.6139 360.983 66.4928 360.267 67.1113C359.557 67.7298 358.528 68.0391 357.181 68.0391L349.993 68.0391ZM355.882 83.3613L350.872 72.0918L352.503 72.0918L356.429 81.1445L360.354 72.0918H361.985L356.976 83.3613H355.882Z" fill="#CCCCCC"/>
<path d="M350.872 113.916L355.882 102.646H356.976L361.985 113.916H360.354L356.429 104.863L352.503 113.916H350.872ZM365.364 124.746L347.024 117.676V116.104L365.364 123.145V124.746ZM349.993 141.26H356.175C357.366 141.26 358.16 141.175 358.558 141.006C358.961 140.843 359.254 140.589 359.437 140.244C359.625 139.906 359.72 139.476 359.72 138.955C359.72 138.063 359.228 137.012 358.245 135.801C357.907 135.84 357.474 135.859 356.946 135.859H349.993V134.141H356.175C357.399 134.141 358.203 134.056 358.587 133.887C358.978 133.724 359.264 133.473 359.446 133.135C359.629 132.803 359.72 132.38 359.72 131.865C359.72 130.934 359.244 129.896 358.294 128.75H349.993V127.031H361.028V128.75H359.7C360.794 130.059 361.341 131.296 361.341 132.461C361.341 133.965 360.739 134.98 359.534 135.508C360.739 136.927 361.341 138.275 361.341 139.551C361.341 141.836 359.954 142.979 357.181 142.979H349.993V141.26ZM352.62 152.891H355.823C355.713 150.462 355.442 148.9 355.013 148.203C354.59 147.513 354.004 147.168 353.255 147.168C351.933 147.168 351.272 147.969 351.272 149.57C351.272 150.658 351.722 151.764 352.62 152.891ZM349.993 152.891H351.224C350.56 151.973 350.14 151.217 349.964 150.625C349.782 150.033 349.69 149.43 349.69 148.818C349.69 147.835 350.016 147.018 350.667 146.367C351.318 145.716 352.145 145.391 353.147 145.391C354.43 145.391 355.394 145.872 356.038 146.836C356.689 147.806 357.076 149.824 357.2 152.891H357.532C358.3 152.891 358.867 152.663 359.231 152.207C359.603 151.751 359.788 150.951 359.788 149.805C359.788 148.796 359.528 147.673 359.007 146.436V146.357H360.794C361.126 147.575 361.292 148.747 361.292 149.873C361.292 151.507 360.986 152.702 360.374 153.457C359.769 154.219 358.825 154.6 357.542 154.6H349.993V152.891ZM363.235 159.678V157.734H365.022V159.678H363.235ZM349.993 159.57V157.852H361.028V159.57H349.993ZM349.993 172.031V170.312H356.175C357.607 170.312 358.554 170.124 359.017 169.746C359.485 169.368 359.72 168.747 359.72 167.881C359.72 166.859 359.244 165.775 358.294 164.629H349.993V162.91H361.028V164.629H359.7C360.794 165.924 361.341 167.204 361.341 168.467C361.341 169.606 360.983 170.485 360.267 171.104C359.557 171.722 358.528 172.031 357.181 172.031H349.993ZM355.882 187.354L350.872 176.084H352.503L356.429 185.137L360.354 176.084H361.985L356.976 187.354H355.882Z" fill="#CCCCCC"/>
<path d="M151.872 179.314L156.882 168.045H157.976L162.985 179.314H161.354L157.429 170.262L153.503 179.314H151.872ZM151.579 185.174L150.993 185.027V183.445H166.364V185.164H160.817C161.833 186.421 162.341 187.641 162.341 188.826C162.341 190.122 161.83 191.154 160.808 191.922C159.785 192.697 158.386 193.084 156.608 193.084C154.851 193.084 153.425 192.618 152.331 191.688C151.237 190.757 150.69 189.604 150.69 188.23C150.69 187.156 150.987 186.137 151.579 185.174ZM159.421 185.164H152.878C152.442 186.141 152.224 187.046 152.224 187.879C152.224 188.96 152.601 189.799 153.356 190.398C154.112 191.004 155.179 191.307 156.56 191.307C159.333 191.307 160.72 190.314 160.72 188.328C160.72 187.273 160.287 186.219 159.421 185.164ZM150.993 195.613H162.028V197.332H160.329C161.462 198.712 162.028 199.985 162.028 201.15C162.028 201.561 161.996 201.974 161.931 202.391H160.134V202.322C160.264 201.782 160.329 201.235 160.329 200.682C160.329 199.575 159.86 198.458 158.923 197.332H150.993V195.613ZM156.882 215.955L151.872 204.686H153.503L157.429 213.738L161.354 204.686H162.985L157.976 215.955H156.882Z" fill="#CCCCCC"/>
<path d="M191.047 929.742L196.057 918.473H197.15L202.16 929.742H200.529L196.604 920.689L192.678 929.742H191.047ZM192.785 941.002H199.318C199.761 940.038 199.982 939.137 199.982 938.297C199.982 937.216 199.602 936.373 198.84 935.768C198.085 935.162 197.02 934.859 195.646 934.859C192.873 934.859 191.486 935.852 191.486 937.838C191.486 938.951 191.919 940.006 192.785 941.002ZM190.168 941.002H191.389C190.373 939.745 189.865 938.528 189.865 937.35C189.865 936.048 190.376 935.009 191.398 934.234C192.421 933.466 193.817 933.082 195.588 933.082C197.339 933.082 198.765 933.548 199.865 934.479C200.965 935.41 201.516 936.559 201.516 937.926C201.516 938.883 201.226 939.908 200.646 941.002H205.539V942.721H190.168V941.002ZM203.41 947.887V945.943H205.197V947.887H203.41ZM190.168 947.779V946.061H201.203V947.779H190.168ZM201.203 960.465L190.168 955.768V954.43L201.203 949.762V951.627L192.59 955.172L201.203 958.668V960.465ZM196.057 974.527L191.047 963.258H192.678L196.604 972.311L200.529 963.258H202.16L197.15 974.527H196.057Z" fill="#CCCCCC"/>
<path d="M191.047 1005.75L196.057 994.48H197.15L202.16 1005.75H200.529L196.604 996.697L192.678 1005.75H191.047ZM205.539 1016.58L187.199 1009.51V1007.94L205.539 1014.98V1016.58ZM192.785 1025.99H199.318C199.761 1025.03 199.982 1024.13 199.982 1023.29C199.982 1022.21 199.602 1021.37 198.84 1020.76C198.085 1020.15 197.02 1019.85 195.646 1019.85C192.873 1019.85 191.486 1020.84 191.486 1022.83C191.486 1023.94 191.919 1025 192.785 1025.99ZM190.168 1025.99H191.389C190.373 1024.74 189.865 1023.52 189.865 1022.34C189.865 1021.04 190.376 1020 191.398 1019.23C192.421 1018.46 193.817 1018.07 195.588 1018.07C197.339 1018.07 198.765 1018.54 199.865 1019.47C200.965 1020.4 201.516 1021.55 201.516 1022.92C201.516 1023.88 201.226 1024.9 200.646 1025.99H205.539V1027.71H190.168V1025.99ZM203.41 1032.88V1030.94H205.197V1032.88H203.41ZM190.168 1032.77V1031.05H201.203V1032.77H190.168ZM201.203 1045.46L190.168 1040.76V1039.42L201.203 1034.75V1036.62L192.59 1040.16L201.203 1043.66V1045.46ZM196.057 1059.52L191.047 1048.25H192.678L196.604 1057.3L200.529 1048.25H202.16L197.15 1059.52H196.057Z" fill="#CCCCCC"/>
</svg>
