<svg width="1499" height="1490" viewBox="0 0 1499 1490" fill="none" xmlns="http://www.w3.org/2000/svg">
<path d="M516.421 559.557L521.431 548.288H522.525L527.535 559.557H525.904L521.978 550.505L518.052 559.557H516.421ZM515.542 572.731V571.012H516.87C515.783 569.678 515.24 568.399 515.24 567.175C515.24 566.022 515.594 565.14 516.304 564.528C517.02 563.916 518.042 563.61 519.37 563.61H526.578V565.329H520.376C518.957 565.329 518.016 565.518 517.554 565.895C517.092 566.279 516.861 566.901 516.861 567.761C516.861 568.776 517.333 569.86 518.277 571.012H526.578V572.731H515.542ZM515.542 577.79V576.071H530.913V577.79H515.542ZM521.431 593.21L516.421 581.94H518.052L521.978 590.993L525.904 581.94H527.535L522.525 593.21H521.431Z" fill="white"/>
<path d="M516.421 625.515L521.431 614.246H522.525L527.535 625.515H525.904L521.978 616.463L518.052 625.515H516.421ZM530.913 636.345L512.574 629.275V627.703L530.913 634.744V636.345ZM515.542 647.674V645.955H516.87C515.783 644.62 515.24 643.341 515.24 642.117C515.24 640.965 515.594 640.082 516.304 639.47C517.02 638.859 518.042 638.553 519.37 638.553H526.578V640.271H520.376C518.957 640.271 518.016 640.46 517.554 640.838C517.092 641.222 516.861 641.844 516.861 642.703C516.861 643.719 517.333 644.803 518.277 645.955H526.578V647.674H515.542ZM515.542 652.732V651.013H530.913V652.732H515.542ZM521.431 668.152L516.421 656.883H518.052L521.978 665.935L525.904 656.883H527.535L522.525 668.152H521.431Z" fill="white"/>
<path d="M306.336 1123.06L311.345 1111.79H312.439L317.449 1123.06H315.818L311.892 1114.01L307.966 1123.06H306.336ZM305.457 1136.31V1134.59H311.629C313.067 1134.59 314.018 1134.41 314.48 1134.03C314.949 1133.65 315.183 1133.03 315.183 1132.16C315.183 1131.15 314.711 1130.06 313.767 1128.91H305.457V1127.19H320.828V1128.91H315.173C316.261 1130.2 316.804 1131.48 316.804 1132.75C316.804 1133.89 316.446 1134.77 315.73 1135.38C315.02 1136 313.992 1136.31 312.644 1136.31H305.457ZM305.457 1149.16V1139.32H307.361C308.259 1140.36 309.304 1141.53 310.496 1142.83C311.687 1144.13 312.735 1145.1 313.64 1145.73C314.545 1146.36 315.45 1146.67 316.355 1146.67C317.156 1146.67 317.781 1146.41 318.23 1145.87C318.679 1145.35 318.904 1144.63 318.904 1143.71C318.904 1142.38 318.481 1141.07 317.634 1139.78V1139.68H319.539C320.164 1141 320.476 1142.36 320.476 1143.76C320.476 1145.25 320.115 1146.42 319.392 1147.27C318.676 1148.12 317.696 1148.55 316.453 1148.55C315.789 1148.55 315.154 1148.44 314.548 1148.22C313.943 1148 313.354 1147.66 312.781 1147.2C312.208 1146.74 311.599 1146.19 310.955 1145.54C310.31 1144.9 309.002 1143.42 307.029 1141.1V1149.16H305.457ZM311.345 1164.06L306.336 1152.79H307.966L311.892 1161.84L315.818 1152.79H317.449L312.439 1164.06H311.345Z" fill="white"/>
<path d="M306.336 1196.68L311.345 1185.41H312.439L317.449 1196.68H315.818L311.892 1187.62L307.966 1196.68H306.336ZM320.828 1207.51L302.488 1200.44V1198.86L320.828 1205.9V1207.51ZM305.457 1218.91V1217.19H311.629C313.067 1217.19 314.018 1217.01 314.48 1216.63C314.949 1216.25 315.183 1215.63 315.183 1214.76C315.183 1213.75 314.711 1212.66 313.767 1211.51H305.457V1209.79H320.828V1211.51H315.173C316.261 1212.8 316.804 1214.08 316.804 1215.35C316.804 1216.49 316.446 1217.37 315.73 1217.99C315.02 1218.6 313.992 1218.91 312.644 1218.91H305.457ZM305.457 1231.76V1221.92H307.361C308.259 1222.96 309.304 1224.13 310.496 1225.43C311.687 1226.73 312.735 1227.7 313.64 1228.33C314.545 1228.96 315.45 1229.27 316.355 1229.27C317.156 1229.27 317.781 1229.01 318.23 1228.47C318.679 1227.95 318.904 1227.23 318.904 1226.32C318.904 1224.98 318.481 1223.67 317.634 1222.38V1222.28H319.539C320.164 1223.6 320.476 1224.96 320.476 1226.36C320.476 1227.85 320.115 1229.02 319.392 1229.87C318.676 1230.72 317.696 1231.15 316.453 1231.15C315.789 1231.15 315.154 1231.04 314.548 1230.82C313.943 1230.6 313.354 1230.26 312.781 1229.8C312.208 1229.34 311.599 1228.79 310.955 1228.14C310.31 1227.5 309.002 1226.02 307.029 1223.7V1231.76H305.457ZM311.345 1246.66L306.336 1235.39H307.966L311.892 1244.44L315.818 1235.39H317.449L312.439 1246.66H311.345Z" fill="white"/>
<path d="M248.889 14.8126L253.899 3.54308H254.992L260.002 14.8126H258.371L254.446 5.75988L250.52 14.8126H248.889ZM247.746 22.0587C247.746 20.6785 248.049 19.3829 248.655 18.172H250.647V18.2403C249.67 19.5555 249.182 20.8608 249.182 22.1564C249.182 23.9728 249.755 24.881 250.901 24.881C251.35 24.881 251.698 24.7605 251.946 24.5196C252.193 24.2788 252.405 23.7775 252.58 23.0157C252.704 22.3777 252.864 21.6453 253.059 20.8185C253.254 19.9917 253.596 19.3504 254.084 18.8946C254.579 18.4454 255.211 18.2208 255.979 18.2208C256.955 18.2208 257.753 18.618 258.371 19.4122C258.996 20.2065 259.309 21.2677 259.309 22.5958C259.309 23.963 259.042 25.1642 258.508 26.1993H256.614V26.131C257.453 24.9917 257.873 23.784 257.873 22.5079C257.873 21.7202 257.727 21.0984 257.434 20.6427C257.147 20.187 256.747 19.9591 256.233 19.9591C255.777 19.9591 255.429 20.0795 255.188 20.3204C254.947 20.5678 254.735 21.0561 254.553 21.7853L254.084 23.9435C253.889 24.8354 253.544 25.506 253.049 25.9552C252.561 26.4044 251.926 26.629 251.145 26.629C250.136 26.629 249.315 26.2156 248.684 25.3888C248.059 24.562 247.746 23.4519 247.746 22.0587ZM248.645 30.6232H243.938V28.9044H259.045V30.6232H257.824C258.847 31.8797 259.358 33.1004 259.358 34.2853C259.358 35.5874 258.85 36.6225 257.834 37.3907C256.825 38.159 255.435 38.5431 253.664 38.5431C251.926 38.5431 250.513 38.0776 249.426 37.1466C248.339 36.2156 247.795 35.0633 247.795 33.6896C247.795 32.6414 248.078 31.6193 248.645 30.6232ZM256.428 30.6232H249.983C249.546 31.5997 249.328 32.5047 249.328 33.338C249.328 34.4122 249.699 35.2521 250.442 35.8575C251.19 36.463 252.245 36.7657 253.606 36.7657C256.36 36.7657 257.737 35.7729 257.737 33.7872C257.737 32.7325 257.3 31.6778 256.428 30.6232ZM250.637 47.7325H253.84C253.729 45.3042 253.459 43.7417 253.03 43.045C252.606 42.3549 252.02 42.0099 251.272 42.0099C249.95 42.0099 249.289 42.8107 249.289 44.4122C249.289 45.4995 249.739 46.6062 250.637 47.7325ZM248.01 47.7325L249.24 47.7325C248.576 46.8146 248.156 46.0594 247.981 45.4669C247.798 44.8745 247.707 44.2722 247.707 43.6603C247.707 42.6772 248.033 41.8601 248.684 41.2091C249.335 40.5581 250.162 40.2325 251.164 40.2325C252.447 40.2325 253.41 40.7143 254.055 41.6778C254.706 42.6479 255.093 44.6661 255.217 47.7325H255.549C256.317 47.7325 256.884 47.5047 257.248 47.0489C257.619 46.5932 257.805 45.7924 257.805 44.6466C257.805 43.6375 257.545 42.5144 257.024 41.2775V41.1993H258.811C259.143 42.4168 259.309 43.5887 259.309 44.715C259.309 46.3491 259.003 47.5437 258.391 48.2989C257.785 49.0607 256.841 49.4415 255.559 49.4415L248.01 49.4415V47.7325ZM248.01 61.795V60.0763L254.192 60.0763C255.624 60.0763 256.571 59.8875 257.033 59.5099C257.502 59.1323 257.737 58.5105 257.737 57.6446C257.737 56.6225 257.261 55.5385 256.311 54.3927L248.01 54.3927V52.6739L259.045 52.6739V54.3927H257.717C258.811 55.6883 259.358 56.9676 259.358 58.2306C259.358 59.3699 259 60.2488 258.283 60.8673C257.574 61.4858 256.545 61.795 255.198 61.795L248.01 61.795ZM253.899 77.1173L248.889 65.8478H250.52L254.446 74.9005L258.371 65.8478H260.002L254.992 77.1173H253.899Z" fill="white"/>
<path d="M248.889 125.185L253.899 113.915H254.992L260.002 125.185H258.371L254.446 116.132L250.52 125.185H248.889ZM263.381 136.015L245.041 128.945V127.372L263.381 134.413V136.015ZM247.746 141.415C247.746 140.035 248.049 138.74 248.655 137.529H250.647V137.597C249.67 138.912 249.182 140.217 249.182 141.513C249.182 143.329 249.755 144.238 250.901 144.238C251.35 144.238 251.698 144.117 251.946 143.876C252.193 143.635 252.405 143.134 252.58 142.372C252.704 141.734 252.864 141.002 253.059 140.175C253.254 139.348 253.596 138.707 254.084 138.251C254.579 137.802 255.211 137.577 255.979 137.577C256.955 137.577 257.753 137.975 258.371 138.769C258.996 139.563 259.309 140.624 259.309 141.952C259.309 143.32 259.042 144.521 258.508 145.556H256.614V145.488C257.453 144.348 257.873 143.141 257.873 141.865C257.873 141.077 257.727 140.455 257.434 139.999C257.147 139.544 256.747 139.316 256.233 139.316C255.777 139.316 255.429 139.436 255.188 139.677C254.947 139.924 254.735 140.413 254.553 141.142L254.084 143.3C253.889 144.192 253.544 144.863 253.049 145.312C252.561 145.761 251.926 145.986 251.145 145.986C250.136 145.986 249.315 145.572 248.684 144.745C248.059 143.919 247.746 142.809 247.746 141.415ZM248.645 149.98H243.938V148.261H259.045V149.98H257.824C258.847 151.236 259.358 152.457 259.358 153.642C259.358 154.944 258.85 155.979 257.834 156.747C256.825 157.516 255.435 157.9 253.664 157.9C251.926 157.9 250.513 157.434 249.426 156.503C248.339 155.572 247.795 154.42 247.795 153.046C247.795 151.998 248.078 150.976 248.645 149.98ZM256.428 149.98H249.983C249.546 150.956 249.328 151.861 249.328 152.695C249.328 153.769 249.699 154.609 250.442 155.214C251.19 155.82 252.245 156.122 253.606 156.122C256.36 156.122 257.737 155.13 257.737 153.144C257.737 152.089 257.3 151.035 256.428 149.98ZM250.637 167.089H253.84C253.729 164.661 253.459 163.098 253.03 162.402C252.606 161.712 252.02 161.367 251.272 161.367C249.95 161.367 249.289 162.167 249.289 163.769C249.289 164.856 249.739 165.963 250.637 167.089ZM248.01 167.089H249.24C248.576 166.171 248.156 165.416 247.981 164.824C247.798 164.231 247.707 163.629 247.707 163.017C247.707 162.034 248.033 161.217 248.684 160.566C249.335 159.915 250.162 159.589 251.164 159.589C252.447 159.589 253.41 160.071 254.055 161.035C254.706 162.005 255.093 164.023 255.217 167.089H255.549C256.317 167.089 256.884 166.861 257.248 166.406C257.619 165.95 257.805 165.149 257.805 164.003C257.805 162.994 257.545 161.871 257.024 160.634V160.556H258.811C259.143 161.773 259.309 162.945 259.309 164.072C259.309 165.706 259.003 166.9 258.391 167.656C257.785 168.417 256.841 168.798 255.559 168.798H248.01V167.089ZM248.01 181.152V179.433H254.192C255.624 179.433 256.571 179.244 257.033 178.867C257.502 178.489 257.737 177.867 257.737 177.001C257.737 175.979 257.261 174.895 256.311 173.749H248.01V172.031H259.045V173.749H257.717C258.811 175.045 259.358 176.324 259.358 177.587C259.358 178.727 259 179.605 258.283 180.224C257.574 180.842 256.545 181.152 255.198 181.152H248.01ZM253.899 196.474L248.889 185.204H250.52L254.446 194.257L258.371 185.204H260.002L254.992 196.474H253.899Z" fill="white"/>
<path d="M975.851 885.863L981.863 872.34H983.175L989.187 885.863H987.23L982.519 875L977.808 885.863H975.851ZM974.796 892.906V890.844H993.242V892.906H974.796ZM990.687 899.129V896.797H992.832V899.129H990.687ZM974.796 899V896.937H988.039V899H974.796ZM981.863 917.504L975.851 903.98H977.808L982.519 914.844L987.23 903.98H989.187L983.175 917.504H981.863Z" fill="white"/>
<path d="M975.851 951.433L981.863 937.91H983.175L989.187 951.433H987.23L982.519 940.57L977.808 951.433H975.851ZM993.242 964.429L971.234 955.945V954.058L993.242 962.508V964.429ZM974.796 969.258V967.195H993.242V969.258H974.796ZM990.687 975.48V973.148H992.832V975.48H990.687ZM974.796 975.351V973.289H988.039V975.351H974.796ZM981.863 993.855L975.851 980.332H977.808L982.519 991.195L987.23 980.332H989.187L983.175 993.855H981.863Z" fill="white"/>
<path d="M1343 717.72L1349.01 704.196H1350.32L1356.34 717.72H1354.38L1349.67 706.857L1344.96 717.72H1343ZM1342.71 724.739H1337.06V722.677H1355.19V724.739H1353.72C1354.95 726.247 1355.56 727.712 1355.56 729.134C1355.56 730.696 1354.95 731.939 1353.74 732.86C1352.52 733.782 1350.86 734.243 1348.73 734.243C1346.65 734.243 1344.95 733.685 1343.65 732.567C1342.34 731.45 1341.69 730.067 1341.69 728.419C1341.69 727.161 1342.03 725.935 1342.71 724.739ZM1352.05 724.739H1344.31C1343.79 725.911 1343.53 726.997 1343.53 727.997C1343.53 729.286 1343.97 730.294 1344.86 731.021C1345.76 731.747 1347.03 732.11 1348.66 732.11C1351.97 732.11 1353.62 730.919 1353.62 728.536C1353.62 727.271 1353.09 726.005 1352.05 724.739ZM1349.01 751.775L1343 738.251H1344.96L1349.67 749.114L1354.38 738.251H1356.34L1350.32 751.775H1349.01Z" fill="white"/>
<path d="M1343 785.843L1349.01 772.319H1350.32L1356.34 785.843H1354.38L1349.67 774.979L1344.96 785.843H1343ZM1360.39 798.839L1338.38 790.354V788.468L1360.39 796.917V798.839ZM1342.71 803.643H1337.06V801.581H1355.19V803.643H1353.72C1354.95 805.151 1355.56 806.616 1355.56 808.038C1355.56 809.6 1354.95 810.843 1353.74 811.764C1352.52 812.686 1350.86 813.147 1348.73 813.147C1346.65 813.147 1344.95 812.589 1343.65 811.471C1342.34 810.354 1341.69 808.971 1341.69 807.323C1341.69 806.065 1342.03 804.839 1342.71 803.643ZM1352.05 803.643H1344.31C1343.79 804.815 1343.53 805.901 1343.53 806.901C1343.53 808.19 1343.97 809.198 1344.86 809.925C1345.76 810.651 1347.03 811.014 1348.66 811.014C1351.97 811.014 1353.62 809.823 1353.62 807.44C1353.62 806.175 1353.09 804.909 1352.05 803.643ZM1349.01 830.678L1343 817.155H1344.96L1349.67 828.018L1354.38 817.155H1356.34L1350.32 830.678H1349.01Z" fill="white"/>
<path d="M624.708 69.7136L630.719 56.1902H632.032L638.044 69.7136H636.087L631.376 58.8503L626.665 69.7136H624.708ZM626.805 82.6628H630.649C630.516 79.7487 630.192 77.8737 629.677 77.0378C629.169 76.2097 628.466 75.7956 627.567 75.7956C625.981 75.7956 625.188 76.7566 625.188 78.6784C625.188 79.9831 625.727 81.3112 626.805 82.6628ZM623.653 82.6628H625.13C624.333 81.5612 623.829 80.655 623.618 79.9441C623.399 79.2331 623.29 78.5105 623.29 77.7761C623.29 76.5964 623.68 75.6159 624.462 74.8347C625.243 74.0534 626.235 73.6628 627.438 73.6628C628.977 73.6628 630.134 74.2409 630.907 75.3972C631.688 76.5612 632.153 78.9831 632.302 82.6628H632.7C633.622 82.6628 634.302 82.3894 634.739 81.8425C635.184 81.2956 635.407 80.3347 635.407 78.9597C635.407 77.7487 635.094 76.4011 634.469 74.9167V74.823H636.614C637.012 76.2839 637.212 77.6902 637.212 79.0417C637.212 81.0027 636.844 82.4362 636.11 83.3425C635.384 84.2566 634.251 84.7136 632.712 84.7136H623.653V82.6628ZM630.719 103.089L624.708 89.5652H626.665L631.376 100.428L636.087 89.5652H638.044L632.032 103.089H630.719Z" fill="white"/>
<path d="M624.708 137.836L630.72 124.313H632.032L638.044 137.836H636.087L631.376 126.973L626.665 137.836H624.708ZM642.099 150.832L620.091 142.348V140.461L642.099 148.91V150.832ZM626.806 161.567H630.649C630.516 158.653 630.192 156.778 629.677 155.942C629.169 155.114 628.466 154.7 627.567 154.7C625.981 154.7 625.188 155.66 625.188 157.582C625.188 158.887 625.727 160.215 626.806 161.567ZM623.653 161.567H625.13C624.333 160.465 623.829 159.559 623.618 158.848C623.399 158.137 623.29 157.414 623.29 156.68C623.29 155.5 623.681 154.52 624.462 153.739C625.243 152.957 626.235 152.567 627.438 152.567C628.977 152.567 630.134 153.145 630.907 154.301C631.688 155.465 632.153 157.887 632.302 161.567H632.7C633.622 161.567 634.302 161.293 634.739 160.746C635.184 160.2 635.407 159.239 635.407 157.864C635.407 156.653 635.095 155.305 634.47 153.821V153.727H636.614C637.013 155.188 637.212 156.594 637.212 157.946C637.212 159.907 636.845 161.34 636.11 162.246C635.384 163.16 634.251 163.618 632.712 163.618H623.653V161.567ZM630.72 181.993L624.708 168.469H626.665L631.376 179.332L636.087 168.469H638.044L632.032 181.993H630.72Z" fill="white"/>
<path d="M686.733 1286.28L692.745 1272.76H694.057L700.069 1286.28H698.112L693.401 1275.42L688.69 1286.28H686.733ZM688.819 1299.79H696.659C697.19 1298.64 697.456 1297.56 697.456 1296.55C697.456 1295.25 696.999 1294.24 696.085 1293.51C695.178 1292.79 693.901 1292.42 692.253 1292.42C688.925 1292.42 687.26 1293.61 687.26 1296C687.26 1297.33 687.78 1298.6 688.819 1299.79ZM685.678 1299.79H687.143C685.925 1298.29 685.315 1296.83 685.315 1295.41C685.315 1293.85 685.928 1292.6 687.155 1291.67C688.382 1290.75 690.057 1290.29 692.182 1290.29C694.284 1290.29 695.995 1290.85 697.315 1291.97C698.635 1293.08 699.296 1294.46 699.296 1296.1C699.296 1297.25 698.948 1298.48 698.253 1299.79H704.124V1301.86H685.678V1299.79ZM701.569 1308.06V1305.72H703.714V1308.06H701.569ZM685.678 1307.93V1305.86H698.921V1307.93H685.678ZM698.921 1323.15L685.678 1317.51V1315.91L698.921 1310.31V1312.54L688.585 1316.8L698.921 1320.99V1323.15ZM692.745 1340.02L686.733 1326.5H688.69L693.401 1337.36L698.112 1326.5H700.069L694.057 1340.02H692.745Z" fill="white"/>
<path d="M686.733 1375.34L692.745 1361.81H694.057L700.069 1375.34H698.112L693.401 1364.47L688.69 1375.34H686.733ZM704.124 1388.33L682.116 1379.85V1377.96L704.124 1386.41V1388.33ZM688.819 1399.63H696.659C697.19 1398.47 697.456 1397.39 697.456 1396.38C697.456 1395.09 696.999 1394.07 696.085 1393.35C695.178 1392.62 693.901 1392.26 692.253 1392.26C688.925 1392.26 687.26 1393.45 687.26 1395.83C687.26 1397.17 687.78 1398.43 688.819 1399.63ZM685.678 1399.63H687.143C685.925 1398.12 685.315 1396.66 685.315 1395.25C685.315 1393.68 685.928 1392.44 687.155 1391.51C688.382 1390.59 690.057 1390.13 692.182 1390.13C694.284 1390.13 695.995 1390.68 697.315 1391.8C698.635 1392.92 699.296 1394.3 699.296 1395.94C699.296 1397.09 698.948 1398.32 698.253 1399.63H704.124V1401.69H685.678V1399.63ZM701.569 1407.89V1405.56H703.714V1407.89H701.569ZM685.678 1407.76V1405.7H698.921V1407.76H685.678ZM698.921 1422.98L685.678 1417.35V1415.74L698.921 1410.14V1412.38L688.585 1416.63L698.921 1420.83V1422.98ZM692.745 1439.86L686.733 1426.34H688.69L693.401 1437.2L698.112 1426.34H700.069L694.057 1439.86H692.745Z" fill="white"/>
<path d="M11.4578 694.486L17.4695 680.963H18.782L24.7937 694.486H22.8367L18.1257 683.623L13.4148 694.486H11.4578ZM26.2937 701.658V699.326H28.4382V701.658H26.2937ZM10.4031 701.529V699.467H23.6453V701.529H10.4031ZM10.4031 722.611H17.821C19.2507 722.611 20.2039 722.51 20.6804 722.307C21.1648 722.111 21.5164 721.807 21.7351 721.393C21.9617 720.986 22.075 720.471 22.075 719.846C22.075 718.776 21.4851 717.514 20.3054 716.061C19.8992 716.108 19.3796 716.131 18.7468 716.131H10.4031V714.069H17.821C19.2898 714.069 20.2546 713.967 20.7156 713.764C21.1843 713.569 21.5281 713.268 21.7468 712.861C21.9656 712.463 22.075 711.955 22.075 711.338C22.075 710.221 21.5046 708.975 20.364 707.6H10.4031L10.4031 705.537H23.6453V707.6H22.0515C23.364 709.17 24.0203 710.654 24.0203 712.053C24.0203 713.858 23.2976 715.076 21.8523 715.709C23.2976 717.412 24.0203 719.029 24.0203 720.561C24.0203 723.303 22.3562 724.674 19.0281 724.674H10.4031V722.611ZM11.9031 739.158C7.55933 739.158 5.38745 737.1 5.38745 732.983C5.38745 731.631 5.57104 730.287 5.93823 728.951H8.07104V729.045C7.50854 730.412 7.22729 731.764 7.22729 733.1C7.22729 734.451 7.53198 735.455 8.14136 736.111C8.74292 736.768 9.71948 737.096 11.071 737.096H12.3835C11.196 735.682 10.6023 734.201 10.6023 732.654C10.6023 731.084 11.1804 729.854 12.3367 728.963C13.4929 728.072 15.0945 727.627 17.1414 727.627C19.1882 727.627 20.8445 728.174 22.1101 729.268C23.3835 730.369 24.0203 731.733 24.0203 733.358C24.0203 734.639 23.6726 735.885 22.9773 737.096L23.6453 737.248V739.158H11.9031ZM14.0476 737.096H21.3718C21.9109 735.932 22.1804 734.846 22.1804 733.838C22.1804 732.549 21.7546 731.545 20.9031 730.826C20.0515 730.115 18.8328 729.76 17.2468 729.76C14.0906 729.76 12.5125 730.932 12.5125 733.276C12.5125 734.518 13.0242 735.791 14.0476 737.096ZM17.4695 757.651L11.4578 744.127H13.4148L18.1257 754.99L22.8367 744.127H24.7937L18.782 757.651H17.4695Z" fill="white"/>
<path d="M742.756 377.007L748.768 363.484H750.08L756.092 377.007H754.135L749.424 366.144L744.713 377.007H742.756ZM741.701 399.039H749.119C750.549 399.039 751.502 398.937 751.979 398.734C752.463 398.539 752.815 398.234 753.033 397.82C753.26 397.414 753.373 396.898 753.373 396.273C753.373 395.203 752.783 393.941 751.604 392.488C751.197 392.535 750.678 392.558 750.045 392.558H741.701V390.496H749.119C750.588 390.496 751.553 390.394 752.014 390.191C752.483 389.996 752.826 389.695 753.045 389.289C753.264 388.89 753.373 388.382 753.373 387.765C753.373 386.648 752.803 385.402 751.662 384.027H741.701V381.964H754.943V384.027H753.35C754.662 385.597 755.318 387.082 755.318 388.48C755.318 390.285 754.596 391.503 753.151 392.136C754.596 393.839 755.318 395.457 755.318 396.988C755.318 399.73 753.654 401.101 750.326 401.101H741.701V399.039ZM744.854 412.996H748.697C748.565 410.082 748.24 408.207 747.725 407.371C747.217 406.543 746.514 406.128 745.615 406.128C744.029 406.128 743.236 407.089 743.236 409.011C743.236 410.316 743.776 411.644 744.854 412.996ZM741.701 412.996H743.178C742.381 411.894 741.877 410.988 741.666 410.277C741.447 409.566 741.338 408.843 741.338 408.109C741.338 406.929 741.729 405.949 742.51 405.168C743.291 404.386 744.283 403.996 745.486 403.996C747.026 403.996 748.182 404.574 748.955 405.73C749.736 406.894 750.201 409.316 750.35 412.996H750.748C751.67 412.996 752.35 412.722 752.787 412.175C753.233 411.628 753.455 410.668 753.455 409.293C753.455 408.082 753.143 406.734 752.518 405.25V405.156H754.662C755.061 406.617 755.26 408.023 755.26 409.375C755.26 411.336 754.893 412.769 754.158 413.675C753.432 414.589 752.299 415.046 750.76 415.046H741.701V412.996ZM757.592 421.14V418.808H759.736V421.14H757.592ZM741.701 421.011V418.949H754.943V421.011H741.701ZM741.701 435.964V433.902H749.119C750.838 433.902 751.975 433.675 752.529 433.222C753.092 432.769 753.373 432.023 753.373 430.984C753.373 429.757 752.803 428.457 751.662 427.082H741.701V425.019H754.943V427.082H753.35C754.662 428.636 755.318 430.171 755.318 431.687C755.318 433.054 754.889 434.109 754.029 434.851C753.178 435.593 751.943 435.964 750.326 435.964H741.701ZM748.768 454.351L742.756 440.828H744.713L749.424 451.691L754.135 440.828H756.092L750.08 454.351H748.768Z" fill="white"/>
<path d="M742.756 489.544L748.768 476.021H750.08L756.092 489.544H754.135L749.424 478.681L744.713 489.544H742.756ZM760.147 502.54L738.139 494.056V492.169L760.147 500.619V502.54ZM741.701 522.357H749.119C750.549 522.357 751.502 522.255 751.979 522.052C752.463 521.857 752.815 521.552 753.033 521.138C753.26 520.732 753.373 520.216 753.373 519.591C753.373 518.521 752.783 517.259 751.604 515.806C751.197 515.853 750.678 515.876 750.045 515.876H741.701V513.814H749.119C750.588 513.814 751.553 513.712 752.014 513.509C752.483 513.314 752.826 513.013 753.045 512.607C753.264 512.208 753.373 511.701 753.373 511.083C753.373 509.966 752.803 508.72 751.662 507.345H741.701V505.283H754.943V507.345H753.35C754.662 508.915 755.318 510.4 755.318 511.798C755.318 513.603 754.596 514.822 753.151 515.454C754.596 517.158 755.318 518.775 755.318 520.306C755.318 523.048 753.654 524.419 750.326 524.419H741.701V522.357ZM744.854 536.314H748.697C748.565 533.4 748.24 531.525 747.725 530.689C747.217 529.861 746.514 529.447 745.615 529.447C744.029 529.447 743.236 530.408 743.236 532.329C743.236 533.634 743.776 534.962 744.854 536.314ZM741.701 536.314H743.178C742.381 535.212 741.877 534.306 741.666 533.595C741.447 532.884 741.338 532.161 741.338 531.427C741.338 530.247 741.729 529.267 742.51 528.486C743.291 527.704 744.283 527.314 745.486 527.314C747.026 527.314 748.182 527.892 748.955 529.048C749.736 530.212 750.201 532.634 750.35 536.314H750.748C751.67 536.314 752.35 536.04 752.787 535.494C753.233 534.947 753.455 533.986 753.455 532.611C753.455 531.4 753.143 530.052 752.518 528.568V528.474H754.662C755.061 529.935 755.26 531.341 755.26 532.693C755.26 534.654 754.893 536.087 754.158 536.994C753.432 537.908 752.299 538.365 750.76 538.365H741.701V536.314ZM757.592 544.458V542.126H759.736V544.458H757.592ZM741.701 544.329V542.267H754.943V544.329H741.701ZM741.701 559.283V557.22H749.119C750.838 557.22 751.975 556.994 752.529 556.54C753.092 556.087 753.373 555.341 753.373 554.302C753.373 553.076 752.803 551.775 751.662 550.4H741.701V548.337H754.943V550.4H753.35C754.662 551.954 755.318 553.49 755.318 555.005C755.318 556.372 754.889 557.427 754.029 558.169C753.178 558.911 751.943 559.283 750.326 559.283H741.701ZM748.768 577.669L742.756 564.146H744.713L749.424 575.009L754.135 564.146H756.092L750.08 577.669H748.768Z" fill="white"/>
<path d="M133.507 1224.73L139.519 1211.21H140.832L146.843 1224.73H144.886L140.175 1213.87L135.464 1224.73H133.507ZM132.453 1240.63V1238.57H139.859C141.586 1238.57 142.726 1238.34 143.281 1237.89C143.843 1237.44 144.125 1236.69 144.125 1235.65C144.125 1234.43 143.558 1233.13 142.425 1231.75H132.453V1229.69H150.898V1231.75H144.113C145.418 1233.3 146.07 1234.83 146.07 1236.35C146.07 1237.72 145.64 1238.78 144.781 1239.52C143.929 1240.26 142.695 1240.63 141.078 1240.63H132.453ZM140.445 1245.66V1253.43C143.078 1253.37 144.394 1252.16 144.394 1249.81C144.394 1248.62 144.043 1247.66 143.339 1246.92C142.636 1246.19 141.672 1245.77 140.445 1245.66ZM132.148 1250.5C132.148 1248.3 132.742 1246.58 133.929 1245.37C135.125 1244.15 136.812 1243.55 138.992 1243.55C141.156 1243.55 142.875 1244.13 144.148 1245.3C145.429 1246.46 146.07 1248 146.07 1249.92C146.07 1251.67 145.547 1253.03 144.5 1253.99C143.453 1254.96 141.961 1255.44 140.023 1255.44H138.886V1245.66C137.293 1245.66 136.066 1246.09 135.207 1246.95C134.355 1247.81 133.929 1249.01 133.929 1250.53C133.929 1252.05 134.457 1253.56 135.511 1255.08V1255.17H133.273C132.523 1253.29 132.148 1251.73 132.148 1250.5ZM135.605 1266.37H139.449C139.316 1263.45 138.992 1261.58 138.476 1260.74C137.968 1259.91 137.265 1259.5 136.367 1259.5C134.781 1259.5 133.988 1260.46 133.988 1262.38C133.988 1263.69 134.527 1265.01 135.605 1266.37ZM132.453 1266.37H133.929C133.132 1265.26 132.629 1264.36 132.418 1263.65C132.199 1262.94 132.089 1262.21 132.089 1261.48C132.089 1260.3 132.48 1259.32 133.261 1258.54C134.043 1257.76 135.035 1257.37 136.238 1257.37C137.777 1257.37 138.933 1257.94 139.707 1259.1C140.488 1260.26 140.953 1262.69 141.101 1266.37H141.5C142.422 1266.37 143.101 1266.09 143.539 1265.55C143.984 1265 144.207 1264.04 144.207 1262.66C144.207 1261.45 143.894 1260.1 143.269 1258.62V1258.53H145.414C145.812 1259.99 146.011 1261.39 146.011 1262.74C146.011 1264.71 145.644 1266.14 144.91 1267.05C144.183 1267.96 143.05 1268.42 141.511 1268.42H132.453V1266.37ZM135.593 1280.85H143.433C143.964 1279.69 144.23 1278.61 144.23 1277.6C144.23 1276.31 143.773 1275.3 142.859 1274.57C141.953 1273.84 140.675 1273.48 139.027 1273.48C135.699 1273.48 134.035 1274.67 134.035 1277.05C134.035 1278.39 134.554 1279.65 135.593 1280.85ZM132.453 1280.85H133.918C132.699 1279.34 132.089 1277.88 132.089 1276.47C132.089 1274.9 132.703 1273.66 133.929 1272.73C135.156 1271.81 136.832 1271.35 138.957 1271.35C141.058 1271.35 142.769 1271.9 144.089 1273.02C145.41 1274.14 146.07 1275.52 146.07 1277.16C146.07 1278.31 145.722 1279.54 145.027 1280.85H150.898V1282.91H132.453V1280.85ZM140.445 1288.03V1295.8C143.078 1295.74 144.394 1294.53 144.394 1292.18C144.394 1290.99 144.043 1290.03 143.339 1289.3C142.636 1288.56 141.672 1288.14 140.445 1288.03ZM132.148 1292.87C132.148 1290.67 132.742 1288.96 133.929 1287.74C135.125 1286.53 136.812 1285.92 138.992 1285.92C141.156 1285.92 142.875 1286.51 144.148 1287.67C145.429 1288.83 146.07 1290.38 146.07 1292.3C146.07 1294.05 145.547 1295.4 144.5 1296.37C143.453 1297.33 141.961 1297.82 140.023 1297.82H138.886L138.886 1288.03C137.293 1288.03 136.066 1288.46 135.207 1289.32C134.355 1290.19 133.929 1291.38 133.929 1292.91C133.929 1294.42 134.457 1295.94 135.511 1297.46L135.511 1297.55H133.273C132.523 1295.67 132.148 1294.11 132.148 1292.87ZM132.453 1300.75H145.695V1302.81H143.656C145.015 1304.47 145.695 1305.99 145.695 1307.39C145.695 1307.88 145.656 1308.38 145.578 1308.88H143.422V1308.8C143.578 1308.15 143.656 1307.49 143.656 1306.83C143.656 1305.5 143.093 1304.16 141.968 1302.81H132.453V1300.75ZM139.519 1325.16L133.507 1311.63H135.464L140.175 1322.5L144.886 1311.63H146.843L140.832 1325.16H139.519Z" fill="white"/>
<path d="M133.507 1376.72L139.519 1363.2H140.832L146.843 1376.72H144.886L140.175 1365.86L135.464 1376.72H133.507ZM150.898 1389.72L128.89 1381.24V1379.35L150.898 1387.8V1389.72ZM132.453 1403.41V1401.35H139.859C141.586 1401.35 142.726 1401.12 143.281 1400.67C143.843 1400.21 144.125 1399.47 144.125 1398.43C144.125 1397.21 143.558 1395.91 142.425 1394.53H132.453V1392.46H150.898V1394.53H144.113C145.418 1396.07 146.07 1397.61 146.07 1399.13C146.07 1400.5 145.64 1401.55 144.781 1402.29C143.929 1403.04 142.695 1403.41 141.078 1403.41H132.453ZM140.445 1408.44V1416.2C143.078 1416.14 144.394 1414.94 144.394 1412.58C144.394 1411.4 144.043 1410.44 143.339 1409.7C142.636 1408.97 141.672 1408.54 140.445 1408.44ZM132.148 1413.28C132.148 1411.07 132.742 1409.36 133.929 1408.14C135.125 1406.93 136.812 1406.33 138.992 1406.33C141.156 1406.33 142.875 1406.91 144.148 1408.07C145.429 1409.24 146.07 1410.78 146.07 1412.7C146.07 1414.45 145.547 1415.81 144.5 1416.77C143.453 1417.74 141.961 1418.22 140.023 1418.22H138.886V1408.44C137.293 1408.44 136.066 1408.87 135.207 1409.72C134.355 1410.59 133.929 1411.79 133.929 1413.31C133.929 1414.83 134.457 1416.34 135.511 1417.86V1417.95H133.273C132.523 1416.07 132.148 1414.51 132.148 1413.28ZM135.605 1429.14H139.449C139.316 1426.23 138.992 1424.35 138.476 1423.52C137.968 1422.69 137.265 1422.28 136.367 1422.28C134.781 1422.28 133.988 1423.24 133.988 1425.16C133.988 1426.46 134.527 1427.79 135.605 1429.14ZM132.453 1429.14H133.929C133.132 1428.04 132.629 1427.13 132.418 1426.42C132.199 1425.71 132.089 1424.99 132.089 1424.26C132.089 1423.08 132.48 1422.1 133.261 1421.31C134.043 1420.53 135.035 1420.14 136.238 1420.14C137.777 1420.14 138.933 1420.72 139.707 1421.88C140.488 1423.04 140.953 1425.46 141.101 1429.14H141.5C142.422 1429.14 143.101 1428.87 143.539 1428.32C143.984 1427.78 144.207 1426.81 144.207 1425.44C144.207 1424.23 143.894 1422.88 143.269 1421.4V1421.3H145.414C145.812 1422.76 146.011 1424.17 146.011 1425.52C146.011 1427.48 145.644 1428.92 144.91 1429.82C144.183 1430.74 143.05 1431.19 141.511 1431.19H132.453V1429.14ZM135.593 1443.63H143.433C143.964 1442.47 144.23 1441.39 144.23 1440.38C144.23 1439.08 143.773 1438.07 142.859 1437.35C141.953 1436.62 140.675 1436.26 139.027 1436.26C135.699 1436.26 134.035 1437.45 134.035 1439.83C134.035 1441.17 134.554 1442.43 135.593 1443.63ZM132.453 1443.63H133.918C132.699 1442.12 132.089 1440.66 132.089 1439.24C132.089 1437.68 132.703 1436.44 133.929 1435.51C135.156 1434.58 136.832 1434.12 138.957 1434.12C141.058 1434.12 142.769 1434.68 144.089 1435.8C145.41 1436.92 146.07 1438.29 146.07 1439.94C146.07 1441.08 145.722 1442.31 145.027 1443.63H150.898V1445.69H132.453V1443.63ZM140.445 1450.81V1458.58C143.078 1458.52 144.394 1457.31 144.394 1454.96C144.394 1453.77 144.043 1452.81 143.339 1452.08C142.636 1451.34 141.672 1450.92 140.445 1450.81ZM132.148 1455.65C132.148 1453.45 132.742 1451.74 133.929 1450.52C135.125 1449.31 136.812 1448.7 138.992 1448.7C141.156 1448.7 142.875 1449.28 144.148 1450.45C145.429 1451.61 146.07 1453.15 146.07 1455.08C146.07 1456.83 145.547 1458.18 144.5 1459.14C143.453 1460.11 141.961 1460.6 140.023 1460.6H138.886V1450.81C137.293 1450.81 136.066 1451.24 135.207 1452.1C134.355 1452.97 133.929 1454.16 133.929 1455.69C133.929 1457.2 134.457 1458.72 135.511 1460.23V1460.33H133.273C132.523 1458.44 132.148 1456.88 132.148 1455.65ZM132.453 1463.53H145.695V1465.59H143.656C145.015 1467.24 145.695 1468.77 145.695 1470.17C145.695 1470.66 145.656 1471.16 145.578 1471.66H143.422V1471.58C143.578 1470.93 143.656 1470.27 143.656 1469.61C143.656 1468.28 143.093 1466.94 141.968 1465.59H132.453V1463.53ZM139.519 1487.94L133.507 1474.41H135.464L140.175 1485.28L144.886 1474.41H146.843L140.832 1487.94H139.519Z" fill="white"/>
<path d="M1475.05 1226.27L1481.07 1212.75H1482.38L1488.39 1226.27H1486.43L1481.72 1215.41L1477.01 1226.27H1475.05ZM1474 1242.18V1240.11H1481.41C1483.13 1240.11 1484.27 1239.89 1484.83 1239.43C1485.39 1238.98 1485.67 1238.23 1485.67 1237.2C1485.67 1235.98 1485.11 1234.68 1483.97 1233.29H1474V1231.23H1492.45V1233.29H1485.66C1486.96 1234.84 1487.62 1236.38 1487.62 1237.9C1487.62 1239.27 1487.19 1240.32 1486.33 1241.06C1485.48 1241.81 1484.24 1242.18 1482.62 1242.18H1474ZM1474 1256.59V1247.19H1475.62V1250.87H1487.76V1247.19H1489.19C1489.2 1248.63 1489.4 1249.66 1489.8 1250.27C1490.2 1250.89 1490.84 1251.24 1491.72 1251.32V1252.98H1475.62V1256.59H1474ZM1481.07 1275.47L1475.05 1261.95H1477.01L1481.72 1272.81L1486.43 1261.95H1488.39L1482.38 1275.47H1481.07Z" fill="white"/>
<path d="M1475.05 1310.22L1481.07 1296.7H1482.38L1488.39 1310.22H1486.43L1481.72 1299.36L1477.01 1310.22H1475.05ZM1492.45 1323.22L1470.44 1314.73V1312.85L1492.45 1321.3V1323.22ZM1474 1336.91V1334.84H1481.41C1483.13 1334.84 1484.27 1334.62 1484.83 1334.16C1485.39 1333.71 1485.67 1332.96 1485.67 1331.93C1485.67 1330.71 1485.11 1329.41 1483.97 1328.02H1474V1325.96H1492.45V1328.02H1485.66C1486.96 1329.57 1487.62 1331.11 1487.62 1332.63C1487.62 1334 1487.19 1335.05 1486.33 1335.79C1485.48 1336.53 1484.24 1336.91 1482.62 1336.91H1474ZM1474 1351.32V1341.92H1475.62V1345.6H1487.76V1341.92H1489.19C1489.2 1343.36 1489.4 1344.39 1489.8 1345C1490.2 1345.62 1490.84 1345.97 1491.72 1346.05V1347.71H1475.62V1351.32H1474ZM1481.07 1370.2L1475.05 1356.68H1477.01L1481.72 1367.54L1486.43 1356.68H1488.39L1482.38 1370.2H1481.07Z" fill="white"/>
<path d="M863.417 732.162L869.428 718.639H870.741L876.753 732.162H874.796L870.085 721.299L865.374 732.162H863.417ZM863.065 739.193L862.362 739.018V737.119H880.807V739.182H874.151C875.37 740.69 875.979 742.154 875.979 743.576C875.979 745.131 875.366 746.369 874.139 747.291C872.913 748.221 871.233 748.686 869.1 748.686C866.991 748.686 865.28 748.127 863.967 747.01C862.655 745.893 861.999 744.51 861.999 742.861C861.999 741.572 862.354 740.35 863.065 739.193ZM872.475 739.182H864.624C864.1 740.354 863.839 741.44 863.839 742.44C863.839 743.736 864.292 744.744 865.198 745.463C866.104 746.19 867.385 746.553 869.042 746.553C872.37 746.553 874.034 745.361 874.034 742.979C874.034 741.713 873.514 740.447 872.475 739.182ZM862.362 751.721H875.604V753.783H873.565C874.924 755.44 875.604 756.967 875.604 758.365C875.604 758.857 875.565 759.354 875.487 759.854H873.331V759.772C873.487 759.123 873.565 758.467 873.565 757.803C873.565 756.475 873.003 755.135 871.878 753.783H862.362V751.721ZM869.428 776.131L863.417 762.607H865.374L870.085 773.471L874.796 762.607H876.753L870.741 776.131H869.428Z" fill="white"/>
<path d="M1405.89 336.078L1411.91 322.555H1413.22L1419.23 336.078H1417.27L1412.56 325.215L1407.85 336.078H1405.89ZM1405.54 343.109L1404.84 342.934V341.035H1423.28V343.098H1416.63C1417.85 344.605 1418.46 346.07 1418.46 347.492C1418.46 349.047 1417.84 350.285 1416.62 351.207C1415.39 352.137 1413.71 352.601 1411.58 352.601C1409.47 352.601 1407.76 352.043 1406.45 350.926C1405.13 349.809 1404.48 348.426 1404.48 346.777C1404.48 345.488 1404.83 344.266 1405.54 343.109ZM1414.95 343.098H1407.1C1406.58 344.269 1406.32 345.355 1406.32 346.355C1406.32 347.652 1406.77 348.66 1407.68 349.379C1408.58 350.105 1409.86 350.469 1411.52 350.469C1414.85 350.469 1416.51 349.277 1416.51 346.894C1416.51 345.629 1415.99 344.363 1414.95 343.098ZM1404.48 360.769C1404.48 358.887 1405.1 357.398 1406.34 356.305C1407.59 355.211 1409.29 354.664 1411.45 354.664C1413.61 354.664 1415.31 355.215 1416.57 356.316C1417.83 357.418 1418.46 358.902 1418.46 360.769C1418.46 362.637 1417.83 364.121 1416.58 365.223C1415.33 366.324 1413.62 366.875 1411.45 366.875C1409.28 366.875 1407.57 366.324 1406.33 365.223C1405.09 364.129 1404.48 362.644 1404.48 360.769ZM1416.7 360.769C1416.7 359.496 1416.25 358.516 1415.35 357.828C1414.45 357.141 1413.15 356.797 1411.45 356.797C1409.77 356.797 1408.48 357.141 1407.58 357.828C1406.68 358.516 1406.23 359.496 1406.23 360.769C1406.23 362.043 1406.68 363.023 1407.58 363.711C1408.48 364.398 1409.77 364.742 1411.45 364.742C1414.95 364.742 1416.7 363.418 1416.7 360.769ZM1407.98 378.441H1415.82C1416.35 377.285 1416.62 376.203 1416.62 375.195C1416.62 373.898 1416.16 372.887 1415.25 372.16C1414.34 371.434 1413.06 371.07 1411.41 371.07C1408.09 371.07 1406.42 372.262 1406.42 374.644C1406.42 375.98 1406.94 377.246 1407.98 378.441ZM1404.84 378.441H1406.3C1405.09 376.934 1404.48 375.473 1404.48 374.059C1404.48 372.496 1405.09 371.25 1406.32 370.32C1407.54 369.398 1409.22 368.937 1411.34 368.937C1413.45 368.937 1415.16 369.496 1416.48 370.613C1417.8 371.73 1418.46 373.109 1418.46 374.75C1418.46 375.898 1418.11 377.129 1417.41 378.441H1423.28V380.504H1404.84V378.441ZM1418.08 395.703L1399.95 387.934V385.73L1405.41 388.191L1418.08 382.859V385.098L1408 389.316L1418.08 393.547V395.703ZM1411.91 412.578L1405.89 399.055H1407.85L1412.56 409.918L1417.27 399.055H1419.23L1413.22 412.578H1411.91Z" fill="white"/>
<path d="M1405.89 448.615L1411.91 435.091H1413.22L1419.23 448.615H1417.27L1412.56 437.752L1407.85 448.615H1405.89ZM1423.29 461.611L1401.28 453.127V451.24L1423.29 459.689V461.611ZM1405.54 466.427L1404.84 466.252V464.353H1423.29V466.416H1416.63C1417.85 467.924 1418.46 469.388 1418.46 470.81C1418.46 472.365 1417.84 473.603 1416.62 474.525C1415.39 475.455 1413.71 475.92 1411.58 475.92C1409.47 475.92 1407.76 475.361 1406.45 474.244C1405.13 473.127 1404.48 471.744 1404.48 470.095C1404.48 468.806 1404.83 467.584 1405.54 466.427ZM1414.95 466.416H1407.1C1406.58 467.588 1406.32 468.674 1406.32 469.674C1406.32 470.97 1406.77 471.978 1407.68 472.697C1408.58 473.424 1409.86 473.787 1411.52 473.787C1414.85 473.787 1416.51 472.595 1416.51 470.213C1416.51 468.947 1415.99 467.681 1414.95 466.416ZM1404.48 484.088C1404.48 482.205 1405.1 480.716 1406.34 479.623C1407.59 478.529 1409.29 477.982 1411.45 477.982C1413.61 477.982 1415.31 478.533 1416.57 479.634C1417.83 480.736 1418.46 482.22 1418.46 484.088C1418.46 485.955 1417.83 487.439 1416.58 488.541C1415.33 489.642 1413.62 490.193 1411.45 490.193C1409.28 490.193 1407.57 489.642 1406.33 488.541C1405.09 487.447 1404.48 485.963 1404.48 484.088ZM1416.7 484.088C1416.7 482.814 1416.25 481.834 1415.35 481.146C1414.45 480.459 1413.15 480.115 1411.45 480.115C1409.77 480.115 1408.48 480.459 1407.58 481.146C1406.68 481.834 1406.23 482.814 1406.23 484.088C1406.23 485.361 1406.68 486.341 1407.58 487.029C1408.48 487.716 1409.77 488.06 1411.45 488.06C1414.95 488.06 1416.7 486.736 1416.7 484.088ZM1407.98 501.759H1415.82C1416.35 500.603 1416.62 499.521 1416.62 498.513C1416.62 497.216 1416.16 496.205 1415.25 495.478C1414.34 494.752 1413.06 494.388 1411.41 494.388C1408.09 494.388 1406.42 495.58 1406.42 497.963C1406.42 499.299 1406.94 500.564 1407.98 501.759ZM1404.84 501.759H1406.3C1405.09 500.252 1404.48 498.791 1404.48 497.377C1404.48 495.814 1405.09 494.568 1406.32 493.638C1407.54 492.716 1409.22 492.256 1411.34 492.256C1413.45 492.256 1415.16 492.814 1416.48 493.931C1417.8 495.049 1418.46 496.427 1418.46 498.068C1418.46 499.216 1418.11 500.447 1417.41 501.759H1423.29V503.822H1404.84V501.759ZM1418.08 519.021L1399.95 511.252V509.049L1405.41 511.509L1418.08 506.177V508.416L1408 512.634L1418.08 516.865V519.021ZM1411.91 535.896L1405.89 522.373H1407.85L1412.56 533.236L1417.27 522.373H1419.23L1413.22 535.896H1411.91Z" fill="white"/>
</svg>
