<svg width="729" height="1487" viewBox="0 0 729 1487" fill="none" xmlns="http://www.w3.org/2000/svg">
<path d="M74.4395 1130.07L76.9443 1124.43H77.4912L79.9961 1130.07H79.1807L77.2178 1125.54L75.2549 1130.07H74.4395ZM74 1136.69V1135.83H77.0859C77.8053 1135.83 78.2806 1135.74 78.5117 1135.55C78.7461 1135.36 78.8633 1135.05 78.8633 1134.62C78.8633 1134.11 78.6273 1133.57 78.1553 1132.99H74V1132.13H81.6855V1132.99H78.8584C79.402 1133.64 79.6738 1134.28 79.6738 1134.91C79.6738 1135.48 79.4948 1135.92 79.1367 1136.23C78.7819 1136.54 78.2676 1136.69 77.5938 1136.69H74ZM76.1191 1143.29V1142.21H74V1141.33H76.1191V1137.79H77.1445L81.3584 1141.37V1142.21H76.8418V1143.29H76.1191ZM76.8418 1141.33H80.2842L76.8418 1138.4V1141.33ZM76.9443 1150.57L74.4395 1144.93H75.2549L77.2178 1149.46L79.1807 1144.93H79.9961L77.4912 1150.57H76.9443Z" fill="white"/>
<path d="M74.4395 1174.82L76.9443 1169.19H77.4912L79.9961 1174.82H79.1807L77.2178 1170.3L75.2549 1174.82H74.4395ZM81.6855 1180.24L72.5156 1176.7V1175.92L81.6855 1179.44V1180.24ZM74 1185.94V1185.08H77.0859C77.8053 1185.08 78.2806 1184.99 78.5117 1184.8C78.7461 1184.61 78.8633 1184.3 78.8633 1183.87C78.8633 1183.36 78.6273 1182.82 78.1553 1182.24H74V1181.38H81.6855V1182.24H78.8584C79.402 1182.88 79.6738 1183.52 79.6738 1184.16C79.6738 1184.73 79.4948 1185.17 79.1367 1185.48C78.7819 1185.79 78.2676 1185.94 77.5938 1185.94H74ZM76.1191 1192.53V1191.45H74V1190.57H76.1191V1187.03H77.1445L81.3584 1190.61V1191.45H76.8418V1192.53H76.1191ZM76.8418 1190.57H80.2842L76.8418 1187.65V1190.57ZM76.9443 1199.81L74.4395 1194.18H75.2549L77.2178 1198.7L79.1807 1194.18H79.9961L77.4912 1199.81H76.9443Z" fill="white"/>
<path d="M173.936 36.377L176.441 30.7422H176.988L179.493 36.377H178.677L176.714 31.8506L174.751 36.377H173.936ZM180.118 39.3652V38.3936H181.011V39.3652H180.118ZM173.497 39.3115V38.4521L179.014 38.4521V39.3115L173.497 39.3115ZM173.497 45.542V44.6826H176.587C177.304 44.6826 177.777 44.5882 178.008 44.3994C178.243 44.2106 178.36 43.8997 178.36 43.4668C178.36 42.9557 178.122 42.4137 177.647 41.8408H173.497V40.9814L179.014 40.9814V41.8408H178.35C178.897 42.4886 179.17 43.1283 179.17 43.7598C179.17 44.3294 178.991 44.7689 178.633 45.0781C178.278 45.3874 177.764 45.542 177.09 45.542H173.497ZM173.814 48.0225L171.46 48.0225V47.1631L179.014 47.1631V48.0225H178.404C178.915 48.6507 179.17 49.2611 179.17 49.8535C179.17 50.5046 178.917 51.0221 178.409 51.4062C177.904 51.7904 177.209 51.9824 176.324 51.9824C175.455 51.9824 174.748 51.7497 174.205 51.2842C173.661 50.8187 173.389 50.2425 173.389 49.5557C173.389 49.0316 173.531 48.5205 173.814 48.0225ZM177.706 48.0225H174.483C174.265 48.5107 174.156 48.9632 174.156 49.3799C174.156 49.917 174.341 50.3369 174.712 50.6396C175.087 50.9424 175.614 51.0938 176.294 51.0938C177.671 51.0938 178.36 50.5973 178.36 49.6045C178.36 49.0771 178.142 48.5498 177.706 48.0225ZM173.497 57.7686V56.9092H174.161C173.617 56.2419 173.345 55.6022 173.345 54.9902C173.345 54.4141 173.523 53.973 173.877 53.667C174.236 53.361 174.747 53.208 175.411 53.208H179.014V54.0674H175.914C175.204 54.0674 174.734 54.1618 174.502 54.3506C174.271 54.5426 174.156 54.8535 174.156 55.2832C174.156 55.791 174.392 56.333 174.864 56.9092H179.014V57.7686L173.497 57.7686ZM173.389 61.1719C173.389 60.0326 174.016 59.4629 175.269 59.4629H178.311V58.833H179.014V59.4678H180.601V60.3223H179.014V62.2559H178.311V60.3223H175.757C175.178 60.3223 174.802 60.3613 174.629 60.4395C174.46 60.5208 174.335 60.6429 174.253 60.8057C174.175 60.9684 174.136 61.1768 174.136 61.4307C174.136 61.6715 174.195 61.9368 174.312 62.2266V62.2559H173.531C173.436 61.8685 173.389 61.5072 173.389 61.1719ZM176.441 69.2578L173.936 63.623L174.751 63.623L176.714 68.1494L178.677 63.623H179.493L176.988 69.2578H176.441Z" fill="white"/>
<path d="M29.9358 162.177L32.4407 156.542H32.9875L35.4924 162.177H34.677L32.7141 157.65L30.7512 162.177H29.9358ZM30.8098 167.572H32.4114C32.356 166.358 32.2209 165.577 32.0061 165.229C31.7945 164.883 31.5015 164.711 31.1272 164.711C30.4664 164.711 30.136 165.111 30.136 165.912C30.136 166.456 30.3606 167.009 30.8098 167.572ZM29.4963 167.572H30.1116C29.7795 167.113 29.5696 166.736 29.4817 166.439C29.3905 166.143 29.345 165.842 29.345 165.536C29.345 165.045 29.5077 164.636 29.8333 164.311C30.1588 163.985 30.5722 163.822 31.0735 163.822C31.7148 163.822 32.1965 164.063 32.5188 164.545C32.8443 165.03 33.038 166.039 33.0999 167.572H33.2659C33.65 167.572 33.9332 167.458 34.1155 167.23C34.301 167.003 34.3938 166.602 34.3938 166.029C34.3938 165.525 34.2636 164.963 34.0032 164.345V164.306H34.8967C35.0627 164.914 35.1458 165.5 35.1458 166.063C35.1458 166.881 34.9928 167.478 34.6868 167.855C34.384 168.236 33.912 168.427 33.2708 168.427H29.4963V167.572ZM29.3645 171.601C29.3645 170.91 29.5159 170.263 29.8186 169.657H30.8147V169.691C30.3264 170.349 30.0823 171.002 30.0823 171.649C30.0823 172.558 30.3687 173.012 30.9417 173.012C31.1663 173.012 31.3404 172.951 31.4641 172.831C31.5878 172.711 31.6936 172.46 31.7815 172.079C31.8433 171.76 31.9231 171.394 32.0208 170.98C32.1184 170.567 32.2893 170.246 32.5334 170.019C32.7808 169.794 33.0966 169.682 33.4807 169.682C33.969 169.682 34.3678 169.88 34.677 170.277C34.9895 170.674 35.1458 171.205 35.1458 171.869C35.1458 172.553 35.0123 173.153 34.7454 173.671H33.7981V173.637C34.218 173.067 34.428 172.463 34.428 171.825C34.428 171.431 34.3547 171.12 34.2083 170.893C34.065 170.665 33.8648 170.551 33.6077 170.551C33.3798 170.551 33.2056 170.611 33.0852 170.731C32.9648 170.855 32.859 171.099 32.7678 171.464L32.5334 172.543C32.4358 172.989 32.2633 173.324 32.0159 173.549C31.7717 173.773 31.4543 173.886 31.0637 173.886C30.5592 173.886 30.149 173.679 29.8333 173.266C29.5208 172.852 29.3645 172.297 29.3645 171.601ZM36.1174 175.946V174.975H37.011V175.946H36.1174ZM29.4963 175.893V175.033H35.0139V175.893H29.4963ZM30.8049 181.127H34.0715C34.2929 180.645 34.4036 180.194 34.4036 179.774C34.4036 179.234 34.2131 178.812 33.8323 178.51C33.4547 178.207 32.9224 178.056 32.2356 178.056C30.8489 178.056 30.1555 178.552 30.1555 179.545C30.1555 180.102 30.372 180.629 30.8049 181.127ZM29.4963 181.127H30.1067C29.5989 180.499 29.345 179.89 29.345 179.301C29.345 178.65 29.6005 178.131 30.1116 177.743C30.6226 177.359 31.3209 177.167 32.2063 177.167C33.0819 177.167 33.7948 177.4 34.345 177.865C34.8951 178.331 35.1702 178.905 35.1702 179.589C35.1702 180.067 35.0253 180.58 34.7356 181.127H37.1819V181.986H29.4963V181.127ZM32.8264 184.12V187.357C33.9234 187.331 34.4719 186.828 34.4719 185.849C34.4719 185.354 34.3254 184.953 34.0325 184.647C33.7395 184.341 33.3375 184.166 32.8264 184.12ZM29.3694 186.137C29.3694 185.219 29.6168 184.506 30.1116 183.998C30.6096 183.493 31.3127 183.241 32.2209 183.241C33.1226 183.241 33.8388 183.484 34.3694 183.969C34.9032 184.454 35.1702 185.097 35.1702 185.897C35.1702 186.627 34.9521 187.191 34.5159 187.592C34.0797 187.995 33.4579 188.197 32.6506 188.197H32.177V184.12C31.5129 184.12 31.0019 184.299 30.6438 184.657C30.289 185.019 30.1116 185.517 30.1116 186.151C30.1116 186.783 30.3313 187.414 30.7708 188.046V188.085H29.8381C29.5256 187.3 29.3694 186.651 29.3694 186.137ZM32.4407 195.458L29.9358 189.823H30.7512L32.7141 194.35L34.677 189.823H35.4924L32.9875 195.458H32.4407Z" fill="white"/>
<path d="M29.9358 221.431L32.4407 215.796H32.9875L35.4924 221.431H34.677L32.7141 216.904L30.7512 221.431H29.9358ZM37.1819 226.846L28.012 223.311V222.524L37.1819 226.045V226.846ZM30.8098 231.318H32.4114C32.356 230.104 32.2209 229.323 32.0061 228.975C31.7945 228.63 31.5015 228.457 31.1272 228.457C30.4664 228.457 30.136 228.857 30.136 229.658C30.136 230.202 30.3606 230.755 30.8098 231.318ZM29.4963 231.318H30.1116C29.7795 230.859 29.5696 230.482 29.4817 230.186C29.3905 229.889 29.345 229.588 29.345 229.282C29.345 228.791 29.5077 228.382 29.8333 228.057C30.1588 227.731 30.5722 227.568 31.0735 227.568C31.7148 227.568 32.1965 227.809 32.5188 228.291C32.8443 228.776 33.038 229.785 33.0999 231.318H33.2659C33.65 231.318 33.9332 231.204 34.1155 230.977C34.301 230.749 34.3938 230.348 34.3938 229.775C34.3938 229.271 34.2636 228.709 34.0032 228.091V228.052H34.8967C35.0627 228.66 35.1458 229.246 35.1458 229.81C35.1458 230.627 34.9928 231.224 34.6868 231.602C34.384 231.982 33.912 232.173 33.2708 232.173H29.4963V231.318ZM29.3645 235.347C29.3645 234.657 29.5159 234.009 29.8186 233.403H30.8147V233.438C30.3264 234.095 30.0823 234.748 30.0823 235.396C30.0823 236.304 30.3687 236.758 30.9417 236.758C31.1663 236.758 31.3404 236.698 31.4641 236.577C31.5878 236.457 31.6936 236.206 31.7815 235.825C31.8433 235.506 31.9231 235.14 32.0208 234.727C32.1184 234.313 32.2893 233.993 32.5334 233.765C32.7808 233.54 33.0966 233.428 33.4807 233.428C33.969 233.428 34.3678 233.626 34.677 234.023C34.9895 234.421 35.1458 234.951 35.1458 235.615C35.1458 236.299 35.0123 236.899 34.7454 237.417H33.7981V237.383C34.218 236.813 34.428 236.209 34.428 235.571C34.428 235.177 34.3547 234.867 34.2083 234.639C34.065 234.411 33.8648 234.297 33.6077 234.297C33.3798 234.297 33.2056 234.357 33.0852 234.478C32.9648 234.601 32.859 234.845 32.7678 235.21L32.5334 236.289C32.4358 236.735 32.2633 237.07 32.0159 237.295C31.7717 237.52 31.4543 237.632 31.0637 237.632C30.5592 237.632 30.149 237.425 29.8333 237.012C29.5208 236.598 29.3645 236.043 29.3645 235.347ZM36.1174 239.692V238.721H37.011V239.692H36.1174ZM29.4963 239.639V238.779H35.0139V239.639H29.4963ZM30.8049 244.873H34.0715C34.2929 244.391 34.4036 243.94 34.4036 243.521C34.4036 242.98 34.2131 242.559 33.8323 242.256C33.4547 241.953 32.9224 241.802 32.2356 241.802C30.8489 241.802 30.1555 242.298 30.1555 243.291C30.1555 243.848 30.372 244.375 30.8049 244.873ZM29.4963 244.873H30.1067C29.5989 244.245 29.345 243.636 29.345 243.047C29.345 242.396 29.6005 241.877 30.1116 241.489C30.6226 241.105 31.3209 240.913 32.2063 240.913C33.0819 240.913 33.7948 241.146 34.345 241.611C34.8951 242.077 35.1702 242.651 35.1702 243.335C35.1702 243.813 35.0253 244.326 34.7356 244.873H37.1819V245.732H29.4963V244.873ZM32.8264 247.866V251.104C33.9234 251.077 34.4719 250.575 34.4719 249.595C34.4719 249.1 34.3254 248.7 34.0325 248.394C33.7395 248.088 33.3375 247.912 32.8264 247.866ZM29.3694 249.883C29.3694 248.965 29.6168 248.252 30.1116 247.744C30.6096 247.24 31.3127 246.987 32.2209 246.987C33.1226 246.987 33.8388 247.23 34.3694 247.715C34.9032 248.2 35.1702 248.843 35.1702 249.644C35.1702 250.373 34.9521 250.938 34.5159 251.338C34.0797 251.742 33.4579 251.943 32.6506 251.943H32.177V247.866C31.5129 247.866 31.0019 248.045 30.6438 248.403C30.289 248.765 30.1116 249.263 30.1116 249.897C30.1116 250.529 30.3313 251.16 30.7708 251.792V251.831H29.8381C29.5256 251.047 29.3694 250.397 29.3694 249.883ZM32.4407 259.204L29.9358 253.569H30.7512L32.7141 258.096L34.677 253.569H35.4924L32.9875 259.204H32.4407Z" fill="white"/>
<path d="M201.439 1249.23L203.944 1243.59H204.491L206.996 1249.23H206.181L204.218 1244.7L202.255 1249.23H201.439ZM201 1252.16V1251.3H208.686V1252.16H201ZM207.621 1254.75V1253.78H208.515V1254.75H207.621ZM201 1254.7V1253.84H206.518V1254.7H201ZM203.944 1262.41L201.439 1256.77H202.255L204.218 1261.3L206.181 1256.77H206.996L204.491 1262.41H203.944Z" fill="white"/>
<path d="M201.439 1289.98L203.944 1284.34H204.491L206.996 1289.98H206.181L204.218 1285.45L202.255 1289.98H201.439ZM208.686 1295.39L199.516 1291.86V1291.07L208.686 1294.59V1295.39ZM201 1297.41V1296.55H208.686V1297.41H201ZM207.621 1300V1299.03H208.515V1300H207.621ZM201 1299.95V1299.09H206.518V1299.95H201ZM203.944 1307.66L201.439 1302.02H202.255L204.218 1306.55L206.181 1302.02H206.996L204.491 1307.66H203.944Z" fill="white"/>
<path d="M4.43945 1002.89L6.94434 997.26H7.49121L9.99609 1002.89H9.18066L7.21777 998.368L5.25488 1002.89H4.43945ZM4 1009.52V1008.66H7.08594C7.80534 1008.66 8.2806 1008.57 8.51172 1008.38C8.74609 1008.19 8.86328 1007.88 8.86328 1007.45C8.86328 1006.94 8.62728 1006.4 8.15527 1005.82H4V1004.96H11.6855V1005.82H8.8584C9.40202 1006.46 9.67383 1007.1 9.67383 1007.74C9.67383 1008.31 9.49479 1008.75 9.13672 1009.06C8.7819 1009.37 8.26758 1009.52 7.59375 1009.52H4ZM7.33008 1011.62V1014.85C8.42708 1014.83 8.97559 1014.32 8.97559 1013.34C8.97559 1012.85 8.8291 1012.45 8.53613 1012.14C8.24316 1011.84 7.84115 1011.66 7.33008 1011.62ZM3.87305 1013.63C3.87305 1012.71 4.12044 1012 4.61523 1011.49C5.11328 1010.99 5.81641 1010.74 6.72461 1010.74C7.6263 1010.74 8.34245 1010.98 8.87305 1011.46C9.4069 1011.95 9.67383 1012.59 9.67383 1013.39C9.67383 1014.12 9.45573 1014.69 9.01953 1015.09C8.58333 1015.49 7.96159 1015.69 7.1543 1015.69H6.68066V1011.62C6.0166 1011.62 5.50553 1011.79 5.14746 1012.15C4.79264 1012.51 4.61523 1013.01 4.61523 1013.65C4.61523 1014.28 4.83496 1014.91 5.27441 1015.54V1015.58H4.3418C4.0293 1014.8 3.87305 1014.15 3.87305 1013.63ZM5.31348 1020.24H6.91504C6.8597 1019.03 6.72461 1018.25 6.50977 1017.9C6.29818 1017.55 6.00521 1017.38 5.63086 1017.38C4.97005 1017.38 4.63965 1017.78 4.63965 1018.58C4.63965 1019.13 4.86426 1019.68 5.31348 1020.24ZM4 1020.24H4.61523C4.2832 1019.78 4.07324 1019.41 3.98535 1019.11C3.89421 1018.81 3.84863 1018.51 3.84863 1018.21C3.84863 1017.72 4.01139 1017.31 4.33691 1016.98C4.66243 1016.66 5.07585 1016.49 5.57715 1016.49C6.21842 1016.49 6.7002 1016.73 7.02246 1017.22C7.34798 1017.7 7.54167 1018.71 7.60352 1020.24H7.76953C8.15365 1020.24 8.43685 1020.13 8.61914 1019.9C8.80469 1019.67 8.89746 1019.27 8.89746 1018.7C8.89746 1018.2 8.76725 1017.63 8.50684 1017.02V1016.98H9.40039C9.56641 1017.59 9.64941 1018.17 9.64941 1018.73C9.64941 1019.55 9.49642 1020.15 9.19043 1020.53C8.8877 1020.91 8.41569 1021.1 7.77441 1021.1H4V1020.24ZM5.30859 1026.28H8.5752C8.79655 1025.8 8.90723 1025.35 8.90723 1024.93C8.90723 1024.39 8.7168 1023.96 8.33594 1023.66C7.95833 1023.36 7.42611 1023.21 6.73926 1023.21C5.35254 1023.21 4.65918 1023.7 4.65918 1024.7C4.65918 1025.25 4.87565 1025.78 5.30859 1026.28ZM4 1026.28H4.61035C4.10254 1025.65 3.84863 1025.04 3.84863 1024.45C3.84863 1023.8 4.10417 1023.28 4.61523 1022.89C5.1263 1022.51 5.82454 1022.32 6.70996 1022.32C7.58561 1022.32 8.2985 1022.55 8.84863 1023.02C9.39876 1023.48 9.67383 1024.06 9.67383 1024.74C9.67383 1025.22 9.52897 1025.73 9.23926 1026.28H11.6855V1027.14H4V1026.28ZM7.33008 1029.27V1032.51C8.42708 1032.48 8.97559 1031.98 8.97559 1031C8.97559 1030.51 8.8291 1030.1 8.53613 1029.8C8.24316 1029.49 7.84115 1029.32 7.33008 1029.27ZM3.87305 1031.29C3.87305 1030.37 4.12044 1029.66 4.61523 1029.15C5.11328 1028.64 5.81641 1028.39 6.72461 1028.39C7.6263 1028.39 8.34245 1028.64 8.87305 1029.12C9.4069 1029.61 9.67383 1030.25 9.67383 1031.05C9.67383 1031.78 9.45573 1032.34 9.01953 1032.74C8.58333 1033.15 7.96159 1033.35 7.1543 1033.35H6.68066V1029.27C6.0166 1029.27 5.50553 1029.45 5.14746 1029.81C4.79264 1030.17 4.61523 1030.67 4.61523 1031.3C4.61523 1031.93 4.83496 1032.57 5.27441 1033.2V1033.24H4.3418C4.0293 1032.45 3.87305 1031.8 3.87305 1031.29ZM4 1034.57H9.51758V1035.43H8.66797C9.23438 1036.12 9.51758 1036.76 9.51758 1037.34C9.51758 1037.54 9.5013 1037.75 9.46875 1037.96H8.57031V1037.92C8.63542 1037.65 8.66797 1037.38 8.66797 1037.1C8.66797 1036.55 8.43359 1035.99 7.96484 1035.43H4V1034.57ZM6.94434 1044.74L4.43945 1039.11H5.25488L7.21777 1043.63L9.18066 1039.11H9.99609L7.49121 1044.74H6.94434Z" fill="white"/>
<path d="M4.43945 1070.15L6.94434 1064.51H7.49121L9.99609 1070.15H9.18066L7.21777 1065.62L5.25488 1070.15H4.43945ZM11.6855 1075.56L2.51562 1072.03V1071.24L11.6855 1074.76V1075.56ZM4 1081.27V1080.41H7.08594C7.80534 1080.41 8.2806 1080.31 8.51172 1080.12C8.74609 1079.94 8.86328 1079.62 8.86328 1079.19C8.86328 1078.68 8.62728 1078.14 8.15527 1077.57H4V1076.71H11.6855V1077.57H8.8584C9.40202 1078.21 9.67383 1078.85 9.67383 1079.48C9.67383 1080.05 9.49479 1080.49 9.13672 1080.8C8.7819 1081.11 8.26758 1081.27 7.59375 1081.27H4ZM7.33008 1083.36L7.33008 1086.6C8.42708 1086.57 8.97559 1086.07 8.97559 1085.09C8.97559 1084.6 8.8291 1084.19 8.53613 1083.89C8.24316 1083.58 7.84115 1083.41 7.33008 1083.36ZM3.87305 1085.38C3.87305 1084.46 4.12044 1083.75 4.61523 1083.24C5.11328 1082.73 5.81641 1082.48 6.72461 1082.48C7.6263 1082.48 8.34245 1082.72 8.87305 1083.21C9.4069 1083.69 9.67383 1084.34 9.67383 1085.14C9.67383 1085.87 9.45573 1086.43 9.01953 1086.83C8.58333 1087.24 7.96159 1087.44 7.1543 1087.44H6.68066V1083.36C6.0166 1083.36 5.50553 1083.54 5.14746 1083.9C4.79264 1084.26 4.61523 1084.76 4.61523 1085.39C4.61523 1086.02 4.83496 1086.66 5.27441 1087.29V1087.33H4.3418C4.0293 1086.54 3.87305 1085.89 3.87305 1085.38ZM5.31348 1091.99H6.91504C6.8597 1090.78 6.72461 1089.99 6.50977 1089.65C6.29818 1089.3 6.00521 1089.13 5.63086 1089.13C4.97005 1089.13 4.63965 1089.53 4.63965 1090.33C4.63965 1090.87 4.86426 1091.43 5.31348 1091.99ZM4 1091.99H4.61523C4.2832 1091.53 4.07324 1091.15 3.98535 1090.86C3.89421 1090.56 3.84863 1090.26 3.84863 1089.95C3.84863 1089.46 4.01139 1089.05 4.33691 1088.73C4.66243 1088.4 5.07585 1088.24 5.57715 1088.24C6.21842 1088.24 6.7002 1088.48 7.02246 1088.96C7.34798 1089.45 7.54167 1090.46 7.60352 1091.99H7.76953C8.15365 1091.99 8.43685 1091.88 8.61914 1091.65C8.80469 1091.42 8.89746 1091.02 8.89746 1090.45C8.89746 1089.94 8.76725 1089.38 8.50684 1088.76V1088.72H9.40039C9.56641 1089.33 9.64941 1089.92 9.64941 1090.48C9.64941 1091.3 9.49642 1091.89 9.19043 1092.27C8.8877 1092.65 8.41569 1092.84 7.77441 1092.84H4V1091.99ZM5.30859 1098.02H8.5752C8.79655 1097.54 8.90723 1097.09 8.90723 1096.67C8.90723 1096.13 8.7168 1095.71 8.33594 1095.41C7.95833 1095.1 7.42611 1094.95 6.73926 1094.95C5.35254 1094.95 4.65918 1095.45 4.65918 1096.44C4.65918 1097 4.87565 1097.53 5.30859 1098.02ZM4 1098.02H4.61035C4.10254 1097.4 3.84863 1096.79 3.84863 1096.2C3.84863 1095.55 4.10417 1095.03 4.61523 1094.64C5.1263 1094.26 5.82454 1094.06 6.70996 1094.06C7.58561 1094.06 8.2985 1094.3 8.84863 1094.76C9.39876 1095.23 9.67383 1095.8 9.67383 1096.49C9.67383 1096.96 9.52897 1097.48 9.23926 1098.02H11.6855V1098.88H4V1098.02ZM7.33008 1101.02V1104.25C8.42708 1104.23 8.97559 1103.73 8.97559 1102.75C8.97559 1102.25 8.8291 1101.85 8.53613 1101.54C8.24316 1101.24 7.84115 1101.06 7.33008 1101.02ZM3.87305 1103.03C3.87305 1102.12 4.12044 1101.4 4.61523 1100.9C5.11328 1100.39 5.81641 1100.14 6.72461 1100.14C7.6263 1100.14 8.34245 1100.38 8.87305 1100.87C9.4069 1101.35 9.67383 1101.99 9.67383 1102.79C9.67383 1103.52 9.45573 1104.09 9.01953 1104.49C8.58333 1104.89 7.96159 1105.09 7.1543 1105.09H6.68066V1101.02C6.0166 1101.02 5.50553 1101.2 5.14746 1101.55C4.79264 1101.92 4.61523 1102.41 4.61523 1103.05C4.61523 1103.68 4.83496 1104.31 5.27441 1104.94V1104.98H4.3418C4.0293 1104.2 3.87305 1103.55 3.87305 1103.03ZM4 1106.32H9.51758V1107.17H8.66797C9.23438 1107.86 9.51758 1108.5 9.51758 1109.08C9.51758 1109.29 9.5013 1109.5 9.46875 1109.7H8.57031V1109.67C8.63542 1109.4 8.66797 1109.13 8.66797 1108.85C8.66797 1108.3 8.43359 1107.74 7.96484 1107.17H4V1106.32ZM6.94434 1116.49L4.43945 1110.85H5.25488L7.21777 1115.38L9.18066 1110.85H9.99609L7.49121 1116.49H6.94434Z" fill="white"/>
<path d="M304.439 1371.07L306.944 1365.43H307.491L309.996 1371.07H309.181L307.218 1366.54L305.255 1371.07H304.439ZM304 1377.69V1376.83H307.086C307.805 1376.83 308.281 1376.74 308.512 1376.55C308.746 1376.36 308.863 1376.05 308.863 1375.62C308.863 1375.11 308.627 1374.57 308.155 1373.99H304V1373.13H311.686V1373.99H308.858C309.402 1374.64 309.674 1375.28 309.674 1375.91C309.674 1376.48 309.495 1376.92 309.137 1377.23C308.782 1377.54 308.268 1377.69 307.594 1377.69H304ZM304 1383.7V1379.78H304.674V1381.32H309.732V1379.78H310.328C310.331 1380.38 310.416 1380.81 310.582 1381.07C310.751 1381.33 311.018 1381.47 311.383 1381.5V1382.2H304.674V1383.7H304ZM306.944 1391.57L304.439 1385.93H305.255L307.218 1390.46L309.181 1385.93H309.996L307.491 1391.57H306.944Z" fill="white"/>
<path d="M304.439 1444.32L306.944 1438.69H307.491L309.996 1444.32H309.181L307.218 1439.8L305.255 1444.32H304.439ZM311.686 1449.74L302.516 1446.2V1445.42L311.686 1448.94V1449.74ZM304 1455.44V1454.58H307.086C307.805 1454.58 308.281 1454.49 308.512 1454.3C308.746 1454.11 308.863 1453.8 308.863 1453.37C308.863 1452.86 308.627 1452.32 308.155 1451.74H304V1450.88H311.686V1451.74H308.858C309.402 1452.38 309.674 1453.02 309.674 1453.66C309.674 1454.23 309.495 1454.67 309.137 1454.98C308.782 1455.29 308.268 1455.44 307.594 1455.44H304ZM304 1461.45V1457.53H304.674V1459.06H309.732V1457.53H310.328C310.331 1458.13 310.416 1458.56 310.582 1458.81C310.751 1459.07 311.018 1459.22 311.383 1459.25V1459.94H304.674V1461.45H304ZM306.944 1469.31L304.439 1463.68H305.255L307.218 1468.2L309.181 1463.68H309.996L307.491 1469.31H306.944Z" fill="white"/>
<path d="M38.4395 810.21L40.9443 804.575H41.4912L43.9961 810.21H43.1807L41.2178 805.684L39.2549 810.21H38.4395ZM38 816.836V815.977H41.0859C41.8053 815.977 42.2806 815.882 42.5117 815.693C42.7461 815.505 42.8633 815.194 42.8633 814.761C42.8633 814.253 42.6273 813.711 42.1553 813.135H38V812.275H45.6855V813.135H42.8584C43.402 813.779 43.6738 814.419 43.6738 815.054C43.6738 815.623 43.4948 816.063 43.1367 816.372C42.7819 816.681 42.2676 816.836 41.5938 816.836H38ZM37.8926 820.2C37.8926 819.061 38.5192 818.491 39.7725 818.491H42.8145V817.861H43.5176V818.496H45.1045V819.351H43.5176V821.284H42.8145V819.351H40.2607C39.6813 819.351 39.3053 819.39 39.1328 819.468C38.9635 819.549 38.8382 819.671 38.7568 819.834C38.6787 819.997 38.6396 820.205 38.6396 820.459C38.6396 820.7 38.6982 820.965 38.8154 821.255V821.284H38.0342C37.9398 820.897 37.8926 820.535 37.8926 820.2ZM38 829.36H41.0908C41.6865 829.36 42.0837 829.318 42.2822 829.233C42.484 829.152 42.6305 829.025 42.7217 828.853C42.8161 828.683 42.8633 828.468 42.8633 828.208C42.8633 827.762 42.6175 827.236 42.126 826.631C41.9567 826.65 41.7402 826.66 41.4766 826.66H38V825.801H41.0908C41.7028 825.801 42.1048 825.758 42.2969 825.674C42.4922 825.592 42.6354 825.467 42.7266 825.298C42.8177 825.132 42.8633 824.92 42.8633 824.663C42.8633 824.198 42.6257 823.678 42.1504 823.105H38V822.246H43.5176V823.105H42.8535C43.4004 823.76 43.6738 824.378 43.6738 824.961C43.6738 825.713 43.3727 826.221 42.7705 826.484C43.3727 827.194 43.6738 827.868 43.6738 828.506C43.6738 829.648 42.9805 830.22 41.5938 830.22H38V829.36ZM38 832.715V831.855H45.6855V832.715H38ZM40.9443 840.425L38.4395 834.79H39.2549L41.2178 839.316L43.1807 834.79H43.9961L41.4912 840.425H40.9443Z" fill="white"/>
<path d="M38.4395 886.964L40.9443 881.329H41.4912L43.9961 886.964H43.1807L41.2178 882.438L39.2549 886.964H38.4395ZM45.6855 892.379L36.5156 888.844V888.058L45.6855 891.578V892.379ZM38 898.082V897.223H41.0859C41.8053 897.223 42.2806 897.128 42.5117 896.939C42.7461 896.751 42.8633 896.44 42.8633 896.007C42.8633 895.499 42.6273 894.957 42.1553 894.381H38V893.521H45.6855V894.381H42.8584C43.402 895.025 43.6738 895.665 43.6738 896.3C43.6738 896.869 43.4948 897.309 43.1367 897.618C42.7819 897.927 42.2676 898.082 41.5938 898.082H38ZM37.8926 901.446C37.8926 900.307 38.5192 899.737 39.7725 899.737H42.8145V899.107H43.5176V899.742H45.1045V900.597H43.5176V902.53H42.8145V900.597H40.2607C39.6813 900.597 39.3053 900.636 39.1328 900.714C38.9635 900.795 38.8382 900.917 38.7568 901.08C38.6787 901.243 38.6396 901.451 38.6396 901.705C38.6396 901.946 38.6982 902.211 38.8154 902.501V902.53H38.0342C37.9398 902.143 37.8926 901.782 37.8926 901.446ZM38 910.606H41.0908C41.6865 910.606 42.0837 910.564 42.2822 910.479C42.484 910.398 42.6305 910.271 42.7217 910.099C42.8161 909.929 42.8633 909.715 42.8633 909.454C42.8633 909.008 42.6175 908.482 42.126 907.877C41.9567 907.896 41.7402 907.906 41.4766 907.906H38L38 907.047H41.0908C41.7028 907.047 42.1048 907.005 42.2969 906.92C42.4922 906.839 42.6354 906.713 42.7266 906.544C42.8177 906.378 42.8633 906.166 42.8633 905.909C42.8633 905.444 42.6257 904.924 42.1504 904.352H38V903.492H43.5176V904.352H42.8535C43.4004 905.006 43.6738 905.624 43.6738 906.207C43.6738 906.959 43.3727 907.467 42.7705 907.73C43.3727 908.44 43.6738 909.114 43.6738 909.752C43.6738 910.895 42.9805 911.466 41.5938 911.466H38V910.606ZM38 913.961V913.102H45.6855V913.961H38ZM40.9443 921.671L38.4395 916.036H39.2549L41.2178 920.562L43.1807 916.036H43.9961L41.4912 921.671H40.9443Z" fill="white"/>
<path d="M330.615 755.981L334.122 748.093H334.888L338.395 755.981H337.253L334.505 749.645L331.757 755.981H330.615ZM329.85 761.313C329.85 759.718 330.727 758.921 332.481 758.921H336.74V758.039H337.725V758.928H339.946V760.124H337.725V762.831H336.74V760.124H333.165C332.354 760.124 331.827 760.179 331.586 760.288C331.349 760.402 331.174 760.573 331.06 760.801C330.95 761.029 330.896 761.32 330.896 761.676C330.896 762.013 330.978 762.384 331.142 762.79V762.831H330.048C329.916 762.289 329.85 761.783 329.85 761.313ZM331.839 768.84H334.081C334.004 767.14 333.814 766.046 333.514 765.559C333.217 765.076 332.807 764.834 332.283 764.834C331.358 764.834 330.896 765.395 330.896 766.516C330.896 767.277 331.21 768.051 331.839 768.84ZM330 768.84H330.861C330.396 768.197 330.103 767.669 329.979 767.254C329.852 766.839 329.788 766.418 329.788 765.989C329.788 765.301 330.016 764.729 330.472 764.273C330.927 763.818 331.506 763.59 332.208 763.59C333.106 763.59 333.78 763.927 334.231 764.602C334.687 765.281 334.958 766.693 335.045 768.84H335.277C335.815 768.84 336.212 768.68 336.467 768.361C336.727 768.042 336.856 767.482 336.856 766.68C336.856 765.973 336.674 765.187 336.31 764.321V764.267H337.561C337.793 765.119 337.909 765.939 337.909 766.728C337.909 767.871 337.695 768.708 337.267 769.236C336.843 769.77 336.182 770.036 335.284 770.036H330V768.84ZM330.41 773.509L330 773.406V772.299H340.76V773.502H336.877C337.588 774.382 337.943 775.236 337.943 776.065C337.943 776.972 337.586 777.695 336.87 778.232C336.155 778.775 335.175 779.046 333.931 779.046C332.7 779.046 331.702 778.72 330.937 778.068C330.171 777.417 329.788 776.61 329.788 775.648C329.788 774.896 329.995 774.183 330.41 773.509ZM335.899 773.502H331.319C331.014 774.186 330.861 774.819 330.861 775.402C330.861 776.159 331.126 776.747 331.654 777.166C332.183 777.59 332.93 777.802 333.896 777.802C335.838 777.802 336.809 777.107 336.809 775.717C336.809 774.979 336.506 774.24 335.899 773.502ZM330 782.033V780.83H340.76V782.033H330ZM334.662 785.034V789.566C336.198 789.53 336.966 788.826 336.966 787.454C336.966 786.761 336.761 786.201 336.351 785.772C335.94 785.344 335.378 785.098 334.662 785.034ZM329.822 787.857C329.822 786.572 330.169 785.574 330.861 784.863C331.559 784.157 332.543 783.804 333.814 783.804C335.077 783.804 336.079 784.143 336.822 784.822C337.57 785.501 337.943 786.401 337.943 787.522C337.943 788.543 337.638 789.334 337.027 789.895C336.417 790.46 335.546 790.742 334.416 790.742H333.753V785.034C332.823 785.034 332.108 785.285 331.606 785.786C331.11 786.292 330.861 786.989 330.861 787.878C330.861 788.762 331.169 789.646 331.784 790.53V790.585H330.479C330.041 789.487 329.822 788.577 329.822 787.857ZM334.122 800.907L330.615 793.019H331.757L334.505 799.355L337.253 793.019H338.395L334.888 800.907H334.122Z" fill="white"/>
<path d="M330.615 827.837L334.122 819.948H334.888L338.395 827.837H337.253L334.505 821.5L331.757 827.837H330.615ZM340.76 835.418L327.922 830.469V829.368L340.76 834.297V835.418ZM329.85 839.458C329.85 837.863 330.727 837.065 332.481 837.065H336.74V836.184H337.725V837.072H339.946V838.269H337.725V840.976H336.74V838.269H333.165C332.354 838.269 331.827 838.323 331.586 838.433C331.349 838.547 331.174 838.717 331.06 838.945C330.95 839.173 330.896 839.465 330.896 839.82C330.896 840.158 330.978 840.529 331.142 840.935V840.976H330.048C329.916 840.433 329.85 839.927 329.85 839.458ZM331.839 846.984H334.081C334.004 845.285 333.814 844.191 333.514 843.703C333.217 843.22 332.807 842.979 332.283 842.979C331.358 842.979 330.896 843.539 330.896 844.66C330.896 845.421 331.21 846.196 331.839 846.984ZM330 846.984H330.861C330.396 846.342 330.103 845.813 329.979 845.398C329.852 844.984 329.788 844.562 329.788 844.134C329.788 843.446 330.016 842.874 330.472 842.418C330.927 841.962 331.506 841.734 332.208 841.734C333.106 841.734 333.78 842.072 334.231 842.746C334.687 843.425 334.958 844.838 335.045 846.984H335.277C335.815 846.984 336.212 846.825 336.467 846.506C336.727 846.187 336.856 845.626 336.856 844.824C336.856 844.118 336.674 843.332 336.31 842.466V842.411H337.561C337.793 843.263 337.909 844.084 337.909 844.872C337.909 846.016 337.695 846.852 337.267 847.381C336.843 847.914 336.182 848.181 335.284 848.181H330V846.984ZM330.41 851.653L330 851.551V850.443H340.76V851.646H336.877C337.588 852.526 337.943 853.381 337.943 854.21C337.943 855.117 337.586 855.839 336.87 856.377C336.155 856.919 335.175 857.19 333.931 857.19C332.7 857.19 331.702 856.865 330.937 856.213C330.171 855.561 329.788 854.755 329.788 853.793C329.788 853.041 329.995 852.328 330.41 851.653ZM335.899 851.646H331.319C331.014 852.33 330.861 852.964 330.861 853.547C330.861 854.303 331.126 854.891 331.654 855.311C332.183 855.734 332.93 855.946 333.896 855.946C335.838 855.946 336.809 855.251 336.809 853.861C336.809 853.123 336.506 852.385 335.899 851.646ZM330 860.178V858.975H340.76V860.178H330ZM334.662 863.179V867.711C336.198 867.674 336.966 866.97 336.966 865.599C336.966 864.906 336.761 864.345 336.351 863.917C335.94 863.489 335.378 863.243 334.662 863.179ZM329.822 866.002C329.822 864.717 330.169 863.719 330.861 863.008C331.559 862.301 332.543 861.948 333.814 861.948C335.077 861.948 336.079 862.288 336.822 862.967C337.57 863.646 337.943 864.546 337.943 865.667C337.943 866.688 337.638 867.479 337.027 868.039C336.417 868.604 335.546 868.887 334.416 868.887H333.753V863.179C332.823 863.179 332.108 863.429 331.606 863.931C331.11 864.437 330.861 865.134 330.861 866.022C330.861 866.907 331.169 867.791 331.784 868.675V868.729H330.479C330.041 867.631 329.822 866.722 329.822 866.002ZM334.122 879.052L330.615 871.163H331.757L334.505 877.5L337.253 871.163H338.395L334.888 879.052H334.122Z" fill="white"/>
<path d="M232.176 285.966L235.683 278.077H236.448L239.955 285.966H238.814L236.066 279.629L233.318 285.966H232.176ZM231.561 295.242V294.039H235.888C236.891 294.039 237.554 293.907 237.877 293.643C238.205 293.378 238.369 292.943 238.369 292.337C238.369 291.621 238.037 290.863 237.371 290.061H231.561V288.857H239.285V290.061H238.356C239.121 290.967 239.504 291.863 239.504 292.747C239.504 293.545 239.253 294.16 238.752 294.593C238.255 295.026 237.535 295.242 236.592 295.242H231.561ZM233.4 302.174H235.642C235.564 300.474 235.375 299.38 235.074 298.893C234.778 298.41 234.368 298.168 233.844 298.168C232.919 298.168 232.456 298.729 232.456 299.85C232.456 300.611 232.771 301.385 233.4 302.174ZM231.561 302.174H232.422C231.957 301.531 231.663 301.003 231.54 300.588C231.413 300.173 231.349 299.752 231.349 299.323C231.349 298.635 231.577 298.063 232.032 297.607C232.488 297.152 233.067 296.924 233.769 296.924C234.667 296.924 235.341 297.261 235.792 297.936C236.248 298.615 236.519 300.027 236.606 302.174H236.838C237.376 302.174 237.772 302.014 238.028 301.695C238.287 301.376 238.417 300.816 238.417 300.014C238.417 299.307 238.235 298.521 237.87 297.655V297.601H239.121C239.354 298.453 239.47 299.273 239.47 300.062C239.47 301.205 239.256 302.042 238.827 302.57C238.404 303.104 237.743 303.37 236.845 303.37H231.561V302.174ZM239.285 312.079L231.561 308.791V307.854L239.285 304.587V305.893L233.256 308.374L239.285 310.821V312.079ZM235.683 321.923L232.176 314.034H233.318L236.066 320.371L238.814 314.034H239.955L236.448 321.923H235.683Z" fill="white"/>
<path d="M232.176 349.821L235.683 341.933H236.448L239.955 349.821H238.814L236.066 343.484L233.318 349.821H232.176ZM242.321 357.402L229.483 352.453V351.353L242.321 356.281V357.402ZM231.561 365.387V364.184H235.888C236.891 364.184 237.554 364.051 237.877 363.787C238.205 363.523 238.369 363.088 238.369 362.481C238.369 361.766 238.037 361.007 237.371 360.205H231.561V359.002H239.285V360.205H238.356C239.121 361.112 239.504 362.007 239.504 362.892C239.504 363.689 239.253 364.304 238.752 364.737C238.255 365.17 237.535 365.387 236.592 365.387H231.561ZM233.4 372.318H235.642C235.564 370.618 235.375 369.525 235.074 369.037C234.778 368.554 234.368 368.312 233.844 368.312C232.919 368.312 232.456 368.873 232.456 369.994C232.456 370.755 232.771 371.53 233.4 372.318ZM231.561 372.318H232.422C231.957 371.676 231.663 371.147 231.54 370.732C231.413 370.318 231.349 369.896 231.349 369.468C231.349 368.78 231.577 368.208 232.032 367.752C232.488 367.296 233.067 367.068 233.769 367.068C234.667 367.068 235.341 367.406 235.792 368.08C236.248 368.759 236.519 370.172 236.606 372.318H236.838C237.376 372.318 237.772 372.159 238.028 371.84C238.287 371.521 238.417 370.96 238.417 370.158C238.417 369.452 238.235 368.666 237.87 367.8V367.745H239.121C239.354 368.597 239.47 369.418 239.47 370.206C239.47 371.35 239.256 372.186 238.827 372.715C238.404 373.248 237.743 373.515 236.845 373.515H231.561V372.318ZM239.285 382.224L231.561 378.936V377.999L239.285 374.731V376.037L233.256 378.519L239.285 380.966V382.224ZM235.683 392.067L232.176 384.179H233.318L236.066 390.516L238.814 384.179H239.955L236.448 392.067H235.683Z" fill="white"/>
<path d="M261.277 1080.65L264.784 1072.76H265.55L269.057 1080.65H267.915L265.167 1074.31L262.419 1080.65H261.277ZM270.253 1087.65V1087.61C270.39 1087.19 270.458 1086.82 270.458 1086.5C270.458 1085.88 270.314 1085.44 270.027 1085.18C269.74 1084.92 269.269 1084.79 268.612 1084.79H268.387V1087.16H267.402V1084.83H260.662V1083.63H267.402V1082.75H268.387V1083.63H268.688C269.594 1083.63 270.289 1083.86 270.772 1084.32C271.256 1084.77 271.497 1085.42 271.497 1086.27C271.497 1086.69 271.451 1087.15 271.36 1087.65H270.253ZM260.45 1091.24C260.45 1090.14 260.812 1089.27 261.537 1088.64C262.266 1088 263.26 1087.68 264.518 1087.68C265.775 1087.68 266.771 1088 267.505 1088.64C268.239 1089.29 268.605 1090.15 268.605 1091.24C268.605 1092.33 268.241 1093.2 267.512 1093.84C266.783 1094.48 265.785 1094.8 264.518 1094.8C263.251 1094.8 262.255 1094.48 261.53 1093.84C260.81 1093.2 260.45 1092.33 260.45 1091.24ZM267.58 1091.24C267.58 1090.5 267.318 1089.93 266.794 1089.52C266.27 1089.12 265.511 1088.92 264.518 1088.92C263.538 1088.92 262.786 1089.12 262.262 1089.52C261.738 1089.93 261.476 1090.5 261.476 1091.24C261.476 1091.98 261.738 1092.56 262.262 1092.96C262.786 1093.36 263.538 1093.56 264.518 1093.56C266.559 1093.56 267.58 1092.79 267.58 1091.24ZM260.662 1096.56H268.387V1097.76H267.197C267.99 1098.73 268.387 1099.62 268.387 1100.43C268.387 1100.72 268.364 1101.01 268.318 1101.3H267.061V1101.25C267.152 1100.88 267.197 1100.49 267.197 1100.11C267.197 1099.33 266.869 1098.55 266.213 1097.76H260.662V1096.56ZM260.662 1112.3H264.989C265.823 1112.3 266.379 1112.24 266.657 1112.12C266.94 1112.01 267.145 1111.83 267.272 1111.59C267.405 1111.35 267.471 1111.05 267.471 1110.69C267.471 1110.06 267.127 1109.33 266.438 1108.48C266.201 1108.51 265.898 1108.52 265.529 1108.52H260.662V1107.32H264.989C265.846 1107.32 266.409 1107.26 266.678 1107.14C266.951 1107.03 267.152 1106.85 267.279 1106.61C267.407 1106.38 267.471 1106.09 267.471 1105.73C267.471 1105.07 267.138 1104.35 266.473 1103.54H260.662V1102.34H268.387V1103.54H267.457C268.223 1104.46 268.605 1105.33 268.605 1106.14C268.605 1107.2 268.184 1107.91 267.341 1108.28C268.184 1109.27 268.605 1110.21 268.605 1111.11C268.605 1112.71 267.635 1113.5 265.693 1113.5H260.662V1112.3ZM264.784 1124.24L261.277 1116.35H262.419L265.167 1122.69L267.915 1116.35H269.057L265.55 1124.24H264.784Z" fill="white"/>
<path d="M261.277 1151.01L264.784 1143.12H265.55L269.057 1151.01H267.915L265.167 1144.67L262.419 1151.01H261.277ZM271.422 1158.59L258.584 1153.64V1152.54L271.422 1157.47V1158.59ZM270.253 1164.3V1164.25C270.39 1163.84 270.458 1163.46 270.458 1163.14C270.458 1162.53 270.314 1162.09 270.027 1161.83C269.74 1161.57 269.269 1161.44 268.612 1161.44H268.387V1163.8H267.402V1161.48H260.662V1160.28H267.402V1159.39H268.387V1160.28H268.688C269.594 1160.28 270.289 1160.5 270.772 1160.96C271.256 1161.42 271.497 1162.07 271.497 1162.92C271.497 1163.33 271.451 1163.79 271.36 1164.3H270.253ZM260.45 1167.88C260.45 1166.79 260.812 1165.92 261.537 1165.28C262.266 1164.64 263.26 1164.32 264.518 1164.32C265.775 1164.32 266.771 1164.64 267.505 1165.29C268.239 1165.93 268.605 1166.8 268.605 1167.88C268.605 1168.97 268.241 1169.84 267.512 1170.48C266.783 1171.12 265.785 1171.45 264.518 1171.45C263.251 1171.45 262.255 1171.12 261.53 1170.48C260.81 1169.84 260.45 1168.98 260.45 1167.88ZM267.58 1167.88C267.58 1167.14 267.318 1166.57 266.794 1166.17C266.27 1165.77 265.511 1165.57 264.518 1165.57C263.538 1165.57 262.786 1165.77 262.262 1166.17C261.738 1166.57 261.476 1167.14 261.476 1167.88C261.476 1168.63 261.738 1169.2 262.262 1169.6C262.786 1170 263.538 1170.2 264.518 1170.2C266.559 1170.2 267.58 1169.43 267.58 1167.88ZM260.662 1173.2H268.387V1174.41H267.197C267.99 1175.37 268.387 1176.26 268.387 1177.08C268.387 1177.37 268.364 1177.66 268.318 1177.95H267.061V1177.9C267.152 1177.52 267.197 1177.14 267.197 1176.75C267.197 1175.98 266.869 1175.19 266.213 1174.41H260.662V1173.2ZM260.662 1188.95H264.989C265.823 1188.95 266.379 1188.89 266.657 1188.77C266.94 1188.65 267.145 1188.48 267.272 1188.24C267.405 1188 267.471 1187.7 267.471 1187.33C267.471 1186.71 267.127 1185.97 266.438 1185.12C266.201 1185.15 265.898 1185.17 265.529 1185.17H260.662V1183.96H264.989C265.846 1183.96 266.409 1183.9 266.678 1183.79C266.951 1183.67 267.152 1183.5 267.279 1183.26C267.407 1183.03 267.471 1182.73 267.471 1182.37C267.471 1181.72 267.138 1180.99 266.473 1180.19H260.662V1178.99H268.387V1180.19H267.457C268.223 1181.11 268.605 1181.97 268.605 1182.79C268.605 1183.84 268.184 1184.55 267.341 1184.92C268.184 1185.91 268.605 1186.86 268.605 1187.75C268.605 1189.35 267.635 1190.15 265.693 1190.15H260.662V1188.95ZM264.784 1200.88L261.277 1192.99H262.419L265.167 1199.33L267.915 1192.99H269.057L265.55 1200.88H264.784Z" fill="white"/>
<path d="M278.615 62.5957L282.122 54.707H282.888L286.395 62.5957H285.253L282.505 56.2588L279.757 62.5957L278.615 62.5957ZM278 71.8721V70.6689L282.32 70.6689C283.327 70.6689 283.993 70.5368 284.316 70.2725C284.645 70.0081 284.809 69.5729 284.809 68.9668C284.809 68.2559 284.478 67.4971 283.817 66.6904L278 66.6904V65.4873L288.76 65.4873V66.6904H284.802C285.563 67.5928 285.943 68.4883 285.943 69.377C285.943 70.1745 285.693 70.7897 285.191 71.2227C284.695 71.6556 283.975 71.8721 283.031 71.8721L278 71.8721ZM278.431 74.0186H279.805V74.1279C279.194 75.0531 278.889 76.0101 278.889 76.999C278.889 77.7282 279.087 78.3115 279.483 78.749C279.88 79.1911 280.431 79.4121 281.138 79.4121C281.794 79.4121 282.277 79.2207 282.587 78.8379C282.897 78.4551 283.052 77.8353 283.052 76.9785V76.377H284.104V76.8418C284.104 77.5801 284.262 78.1589 284.576 78.5781C284.891 78.9974 285.333 79.207 285.902 79.207C286.385 79.207 286.757 79.0225 287.017 78.6533C287.281 78.2887 287.413 77.7852 287.413 77.1426C287.413 76.2174 287.115 75.2992 286.518 74.3877V74.3125H287.864C288.297 75.2331 288.514 76.1878 288.514 77.1768C288.514 78.2386 288.29 79.0589 287.844 79.6377C287.402 80.221 286.802 80.5127 286.046 80.5127C285.49 80.5127 284.993 80.319 284.556 79.9316C284.118 79.5443 283.84 79.0589 283.722 78.4756H283.612C283.343 79.9749 282.48 80.7246 281.021 80.7246C280.078 80.7246 279.303 80.3805 278.697 79.6924C278.091 79.0042 277.788 78.1178 277.788 77.0332C277.788 75.9987 278.002 74.9938 278.431 74.0186ZM282.122 91.293L278.615 83.4043H279.757L282.505 89.7412L285.253 83.4043H286.395L282.888 91.293H282.122Z" fill="white"/>
<path d="M278.615 118.951L282.122 111.062H282.888L286.395 118.951H285.253L282.505 112.614L279.757 118.951H278.615ZM288.76 126.532L275.922 121.583V120.482L288.76 125.411V126.532ZM278 134.517V133.313H282.32C283.327 133.313 283.993 133.181 284.316 132.917C284.645 132.653 284.809 132.217 284.809 131.611C284.809 130.9 284.478 130.142 283.817 129.335H278V128.132H288.76V129.335H284.802C285.563 130.237 285.943 131.133 285.943 132.021C285.943 132.819 285.693 133.434 285.191 133.867C284.695 134.3 283.975 134.517 283.031 134.517H278ZM278.431 136.663H279.805V136.772C279.194 137.698 278.889 138.655 278.889 139.644C278.889 140.373 279.087 140.956 279.483 141.394C279.88 141.836 280.431 142.057 281.138 142.057C281.794 142.057 282.277 141.865 282.587 141.482C282.897 141.1 283.052 140.48 283.052 139.623V139.021H284.104V139.486C284.104 140.225 284.262 140.803 284.576 141.223C284.891 141.642 285.333 141.852 285.902 141.852C286.385 141.852 286.757 141.667 287.017 141.298C287.281 140.933 287.413 140.43 287.413 139.787C287.413 138.862 287.115 137.944 286.518 137.032V136.957H287.864C288.297 137.878 288.514 138.832 288.514 139.821C288.514 140.883 288.29 141.703 287.844 142.282C287.402 142.866 286.802 143.157 286.046 143.157C285.49 143.157 284.993 142.964 284.556 142.576C284.118 142.189 283.84 141.703 283.722 141.12H283.612C283.343 142.619 282.48 143.369 281.021 143.369C280.078 143.369 279.303 143.025 278.697 142.337C278.091 141.649 277.788 140.762 277.788 139.678C277.788 138.643 278.002 137.638 278.431 136.663ZM282.122 153.938L278.615 146.049H279.757L282.505 152.386L285.253 146.049H286.395L282.888 153.938H282.122Z" fill="white"/>
<path d="M447.439 791.068L449.944 785.434H450.491L452.996 791.068H452.181L450.218 786.542L448.255 791.068H447.439ZM447 797.694V796.835H450.086C450.805 796.835 451.281 796.741 451.512 796.552C451.746 796.363 451.863 796.052 451.863 795.619C451.863 795.111 451.627 794.569 451.155 793.993H447V793.134H454.686V793.993H451.858C452.402 794.638 452.674 795.277 452.674 795.912C452.674 796.482 452.495 796.921 452.137 797.23C451.782 797.54 451.268 797.694 450.594 797.694H447ZM449.119 804.286V803.207H447V802.328H449.119V798.788H450.145L454.358 802.367V803.207H449.842V804.286H449.119ZM449.842 802.328H453.284L449.842 799.403V802.328ZM449.944 811.566L447.439 805.932H448.255L450.218 810.458L452.181 805.932H452.996L450.491 811.566H449.944Z" fill="white"/>
<path d="M447.439 835.822L449.944 830.188H450.491L452.996 835.822H452.181L450.218 831.296L448.255 835.822H447.439ZM454.686 841.237L445.516 837.702V836.916L454.686 840.437V841.237ZM447 846.94V846.081H450.086C450.805 846.081 451.281 845.987 451.512 845.798C451.746 845.609 451.863 845.298 451.863 844.865C451.863 844.357 451.627 843.815 451.155 843.239H447V842.38H454.686V843.239H451.858C452.402 843.884 452.674 844.523 452.674 845.158C452.674 845.728 452.495 846.167 452.137 846.477C451.782 846.786 451.268 846.94 450.594 846.94H447ZM449.119 853.532V852.453H447V851.574H449.119V848.034H450.145L454.358 851.613V852.453H449.842V853.532H449.119ZM449.842 851.574H453.284L449.842 848.649V851.574ZM449.944 860.812L447.439 855.178H448.255L450.218 859.704L452.181 855.178H452.996L450.491 860.812H449.944Z" fill="white"/>
<path d="M652.936 894.377L655.441 888.742H655.988L658.493 894.377H657.677L655.714 889.851L653.751 894.377H652.936ZM659.118 897.365V896.394H660.011V897.365H659.118ZM652.497 897.312V896.452H658.014V897.312H652.497ZM652.497 903.542V902.683H655.587C656.304 902.683 656.777 902.588 657.008 902.399C657.243 902.211 657.36 901.9 657.36 901.467C657.36 900.956 657.122 900.414 656.647 899.841H652.497V898.981H658.014V899.841H657.35C657.897 900.489 658.17 901.128 658.17 901.76C658.17 902.329 657.991 902.769 657.633 903.078C657.278 903.387 656.764 903.542 656.09 903.542H652.497ZM652.814 906.022H650.46V905.163H658.014V906.022H657.404C657.915 906.651 658.17 907.261 658.17 907.854C658.17 908.505 657.917 909.022 657.409 909.406C656.904 909.79 656.209 909.982 655.324 909.982C654.455 909.982 653.748 909.75 653.205 909.284C652.661 908.819 652.389 908.243 652.389 907.556C652.389 907.032 652.531 906.521 652.814 906.022ZM656.706 906.022H653.483C653.265 906.511 653.156 906.963 653.156 907.38C653.156 907.917 653.341 908.337 653.712 908.64C654.087 908.942 654.614 909.094 655.294 909.094C656.671 909.094 657.36 908.597 657.36 907.604C657.36 907.077 657.142 906.55 656.706 906.022ZM652.497 915.769V914.909H653.161C652.617 914.242 652.345 913.602 652.345 912.99C652.345 912.414 652.523 911.973 652.877 911.667C653.236 911.361 653.747 911.208 654.411 911.208H658.014V912.067H654.914C654.204 912.067 653.734 912.162 653.502 912.351C653.271 912.543 653.156 912.854 653.156 913.283C653.156 913.791 653.392 914.333 653.864 914.909H658.014V915.769H652.497ZM652.389 919.172C652.389 918.033 653.016 917.463 654.269 917.463H657.311V916.833H658.014V917.468H659.601V918.322H658.014V920.256H657.311V918.322H654.757C654.178 918.322 653.802 918.361 653.629 918.439C653.46 918.521 653.335 918.643 653.253 918.806C653.175 918.968 653.136 919.177 653.136 919.431C653.136 919.672 653.195 919.937 653.312 920.227V920.256H652.531C652.436 919.868 652.389 919.507 652.389 919.172ZM655.441 927.258L652.936 921.623H653.751L655.714 926.149L657.677 921.623H658.493L655.988 927.258H655.441Z" fill="white"/>
<path d="M720.936 482.177L723.441 476.542H723.988L726.492 482.177H725.677L723.714 477.65L721.751 482.177H720.936ZM721.81 487.572H723.411C723.356 486.358 723.221 485.577 723.006 485.229C722.795 484.883 722.502 484.711 722.127 484.711C721.466 484.711 721.136 485.111 721.136 485.912C721.136 486.456 721.361 487.009 721.81 487.572ZM720.496 487.572H721.112C720.78 487.113 720.57 486.736 720.482 486.439C720.391 486.143 720.345 485.842 720.345 485.536C720.345 485.045 720.508 484.636 720.833 484.311C721.159 483.985 721.572 483.822 722.073 483.822C722.715 483.822 723.197 484.063 723.519 484.545C723.844 485.03 724.038 486.039 724.1 487.572H724.266C724.65 487.572 724.933 487.458 725.115 487.23C725.301 487.003 725.394 486.602 725.394 486.029C725.394 485.525 725.264 484.963 725.003 484.345V484.306H725.897C726.063 484.914 726.146 485.5 726.146 486.063C726.146 486.881 725.993 487.478 725.687 487.855C725.384 488.236 724.912 488.427 724.271 488.427H720.496V487.572ZM720.365 491.601C720.365 490.91 720.516 490.263 720.819 489.657H721.815V489.691C721.326 490.349 721.082 491.002 721.082 491.649C721.082 492.558 721.369 493.012 721.942 493.012C722.166 493.012 722.34 492.951 722.464 492.831C722.588 492.711 722.694 492.46 722.781 492.079C722.843 491.76 722.923 491.394 723.021 490.98C723.118 490.567 723.289 490.246 723.533 490.019C723.781 489.794 724.097 489.682 724.481 489.682C724.969 489.682 725.368 489.88 725.677 490.277C725.99 490.674 726.146 491.205 726.146 491.869C726.146 492.553 726.012 493.153 725.745 493.671H724.798V493.637C725.218 493.067 725.428 492.463 725.428 491.825C725.428 491.431 725.355 491.12 725.208 490.893C725.065 490.665 724.865 490.551 724.608 490.551C724.38 490.551 724.206 490.611 724.085 490.731C723.965 490.855 723.859 491.099 723.768 491.464L723.533 492.543C723.436 492.989 723.263 493.324 723.016 493.549C722.772 493.773 722.454 493.886 722.064 493.886C721.559 493.886 721.149 493.679 720.833 493.266C720.521 492.852 720.365 492.297 720.365 491.601ZM727.117 495.946V494.975H728.011V495.946H727.117ZM720.496 495.893V495.033H726.014V495.893H720.496ZM721.805 501.127H725.072C725.293 500.645 725.404 500.194 725.404 499.774C725.404 499.234 725.213 498.812 724.832 498.51C724.455 498.207 723.922 498.056 723.236 498.056C721.849 498.056 721.156 498.552 721.156 499.545C721.156 500.102 721.372 500.629 721.805 501.127ZM720.496 501.127H721.107C720.599 500.499 720.345 499.89 720.345 499.301C720.345 498.65 720.601 498.131 721.112 497.743C721.623 497.359 722.321 497.167 723.206 497.167C724.082 497.167 724.795 497.4 725.345 497.865C725.895 498.331 726.17 498.905 726.17 499.589C726.17 500.067 726.025 500.58 725.736 501.127H728.182V501.986H720.496V501.127ZM723.826 504.12V507.357C724.923 507.331 725.472 506.828 725.472 505.849C725.472 505.354 725.325 504.953 725.032 504.647C724.74 504.341 724.337 504.166 723.826 504.12ZM720.369 506.137C720.369 505.219 720.617 504.506 721.112 503.998C721.61 503.493 722.313 503.241 723.221 503.241C724.123 503.241 724.839 503.484 725.369 503.969C725.903 504.454 726.17 505.097 726.17 505.897C726.17 506.627 725.952 507.191 725.516 507.592C725.08 507.995 724.458 508.197 723.651 508.197H723.177V504.12C722.513 504.12 722.002 504.299 721.644 504.657C721.289 505.019 721.112 505.517 721.112 506.151C721.112 506.783 721.331 507.414 721.771 508.046V508.085H720.838C720.526 507.3 720.369 506.651 720.369 506.137ZM723.441 515.458L720.936 509.823H721.751L723.714 514.35L725.677 509.823H726.492L723.988 515.458H723.441Z" fill="white"/>
<path d="M720.936 541.431L723.441 535.796H723.988L726.492 541.431H725.677L723.714 536.904L721.751 541.431H720.936ZM728.182 546.846L719.012 543.311V542.524L728.182 546.045V546.846ZM721.81 551.318H723.411C723.356 550.104 723.221 549.323 723.006 548.975C722.795 548.63 722.502 548.457 722.127 548.457C721.466 548.457 721.136 548.857 721.136 549.658C721.136 550.202 721.361 550.755 721.81 551.318ZM720.496 551.318H721.112C720.78 550.859 720.57 550.482 720.482 550.186C720.391 549.889 720.345 549.588 720.345 549.282C720.345 548.791 720.508 548.382 720.833 548.057C721.159 547.731 721.572 547.568 722.073 547.568C722.715 547.568 723.197 547.809 723.519 548.291C723.844 548.776 724.038 549.785 724.1 551.318H724.266C724.65 551.318 724.933 551.204 725.115 550.977C725.301 550.749 725.394 550.348 725.394 549.775C725.394 549.271 725.264 548.709 725.003 548.091V548.052H725.897C726.063 548.66 726.146 549.246 726.146 549.81C726.146 550.627 725.993 551.224 725.687 551.602C725.384 551.982 724.912 552.173 724.271 552.173H720.496V551.318ZM720.365 555.347C720.365 554.657 720.516 554.009 720.819 553.403H721.815V553.438C721.326 554.095 721.082 554.748 721.082 555.396C721.082 556.304 721.369 556.758 721.942 556.758C722.166 556.758 722.34 556.698 722.464 556.577C722.588 556.457 722.694 556.206 722.781 555.825C722.843 555.506 722.923 555.14 723.021 554.727C723.118 554.313 723.289 553.993 723.533 553.765C723.781 553.54 724.097 553.428 724.481 553.428C724.969 553.428 725.368 553.626 725.677 554.023C725.99 554.421 726.146 554.951 726.146 555.615C726.146 556.299 726.012 556.899 725.745 557.417H724.798V557.383C725.218 556.813 725.428 556.209 725.428 555.571C725.428 555.177 725.355 554.867 725.208 554.639C725.065 554.411 724.865 554.297 724.608 554.297C724.38 554.297 724.206 554.357 724.085 554.478C723.965 554.601 723.859 554.845 723.768 555.21L723.533 556.289C723.436 556.735 723.263 557.07 723.016 557.295C722.772 557.52 722.454 557.632 722.064 557.632C721.559 557.632 721.149 557.425 720.833 557.012C720.521 556.598 720.365 556.043 720.365 555.347ZM727.117 559.692V558.721H728.011V559.692H727.117ZM720.496 559.639V558.779H726.014V559.639H720.496ZM721.805 564.873H725.072C725.293 564.391 725.404 563.94 725.404 563.521C725.404 562.98 725.213 562.559 724.832 562.256C724.455 561.953 723.922 561.802 723.236 561.802C721.849 561.802 721.156 562.298 721.156 563.291C721.156 563.848 721.372 564.375 721.805 564.873ZM720.496 564.873H721.107C720.599 564.245 720.345 563.636 720.345 563.047C720.345 562.396 720.601 561.877 721.112 561.489C721.623 561.105 722.321 560.913 723.206 560.913C724.082 560.913 724.795 561.146 725.345 561.611C725.895 562.077 726.17 562.651 726.17 563.335C726.17 563.813 726.025 564.326 725.736 564.873H728.182V565.732H720.496V564.873ZM723.826 567.866V571.104C724.923 571.077 725.472 570.575 725.472 569.595C725.472 569.1 725.325 568.7 725.032 568.394C724.74 568.088 724.337 567.912 723.826 567.866ZM720.369 569.883C720.369 568.965 720.617 568.252 721.112 567.744C721.61 567.24 722.313 566.987 723.221 566.987C724.123 566.987 724.839 567.23 725.369 567.715C725.903 568.2 726.17 568.843 726.17 569.644C726.17 570.373 725.952 570.938 725.516 571.338C725.08 571.742 724.458 571.943 723.651 571.943H723.177V567.866C722.513 567.866 722.002 568.045 721.644 568.403C721.289 568.765 721.112 569.263 721.112 569.897C721.112 570.529 721.331 571.16 721.771 571.792V571.831H720.838C720.526 571.047 720.369 570.397 720.369 569.883ZM723.441 579.204L720.936 573.569H721.751L723.714 578.096L725.677 573.569H726.492L723.988 579.204H723.441Z" fill="white"/>
<path d="M374.439 306.226L376.944 300.591H377.491L379.996 306.226H379.181L377.218 301.699L375.255 306.226H374.439ZM374 309.16V308.301H381.686V309.16H374ZM380.621 311.753V310.781H381.515V311.753H380.621ZM374 311.699V310.84H379.518V311.699H374ZM376.944 319.409L374.439 313.774H375.255L377.218 318.301L379.181 313.774H379.996L377.491 319.409H376.944Z" fill="white"/>
<path d="M374.439 365.979L376.944 360.345H377.491L379.996 365.979H379.181L377.218 361.453L375.255 365.979H374.439ZM381.686 371.395L372.516 367.859V367.073L381.686 370.594V371.395ZM374 373.406V372.547H381.686V373.406H374ZM380.621 375.999V375.027H381.515V375.999H380.621ZM374 375.945V375.086H379.518V375.945H374ZM376.944 383.655L374.439 378.021H375.255L377.218 382.547L379.181 378.021H379.996L377.491 383.655H376.944Z" fill="white"/>
<path d="M370.439 1340.89L372.944 1335.26H373.491L375.996 1340.89H375.181L373.218 1336.37L371.255 1340.89H370.439ZM370 1347.52V1346.66H373.086C373.805 1346.66 374.281 1346.57 374.512 1346.38C374.746 1346.19 374.863 1345.88 374.863 1345.45C374.863 1344.94 374.627 1344.4 374.155 1343.82H370V1342.96H377.686V1343.82H374.858C375.402 1344.46 375.674 1345.1 375.674 1345.74C375.674 1346.31 375.495 1346.75 375.137 1347.06C374.782 1347.37 374.268 1347.52 373.594 1347.52H370ZM373.33 1349.62V1352.85C374.427 1352.83 374.976 1352.32 374.976 1351.34C374.976 1350.85 374.829 1350.45 374.536 1350.14C374.243 1349.84 373.841 1349.66 373.33 1349.62ZM369.873 1351.63C369.873 1350.71 370.12 1350 370.615 1349.49C371.113 1348.99 371.816 1348.74 372.725 1348.74C373.626 1348.74 374.342 1348.98 374.873 1349.46C375.407 1349.95 375.674 1350.59 375.674 1351.39C375.674 1352.12 375.456 1352.69 375.02 1353.09C374.583 1353.49 373.962 1353.69 373.154 1353.69H372.681V1349.62C372.017 1349.62 371.506 1349.79 371.147 1350.15C370.793 1350.51 370.615 1351.01 370.615 1351.65C370.615 1352.28 370.835 1352.91 371.274 1353.54V1353.58H370.342C370.029 1352.8 369.873 1352.15 369.873 1351.63ZM371.313 1358.24H372.915C372.86 1357.03 372.725 1356.25 372.51 1355.9C372.298 1355.55 372.005 1355.38 371.631 1355.38C370.97 1355.38 370.64 1355.78 370.64 1356.58C370.64 1357.13 370.864 1357.68 371.313 1358.24ZM370 1358.24H370.615C370.283 1357.78 370.073 1357.41 369.985 1357.11C369.894 1356.81 369.849 1356.51 369.849 1356.21C369.849 1355.72 370.011 1355.31 370.337 1354.98C370.662 1354.66 371.076 1354.49 371.577 1354.49C372.218 1354.49 372.7 1354.73 373.022 1355.22C373.348 1355.7 373.542 1356.71 373.604 1358.24H373.77C374.154 1358.24 374.437 1358.13 374.619 1357.9C374.805 1357.67 374.897 1357.27 374.897 1356.7C374.897 1356.2 374.767 1355.63 374.507 1355.02V1354.98H375.4C375.566 1355.59 375.649 1356.17 375.649 1356.73C375.649 1357.55 375.496 1358.15 375.19 1358.53C374.888 1358.91 374.416 1359.1 373.774 1359.1H370V1358.24ZM371.309 1364.28H374.575C374.797 1363.8 374.907 1363.35 374.907 1362.93C374.907 1362.39 374.717 1361.96 374.336 1361.66C373.958 1361.36 373.426 1361.21 372.739 1361.21C371.353 1361.21 370.659 1361.7 370.659 1362.7C370.659 1363.25 370.876 1363.78 371.309 1364.28ZM370 1364.28H370.61C370.103 1363.65 369.849 1363.04 369.849 1362.45C369.849 1361.8 370.104 1361.28 370.615 1360.89C371.126 1360.51 371.825 1360.32 372.71 1360.32C373.586 1360.32 374.299 1360.55 374.849 1361.02C375.399 1361.48 375.674 1362.06 375.674 1362.74C375.674 1363.22 375.529 1363.73 375.239 1364.28H377.686V1365.14H370V1364.28ZM373.33 1367.27V1370.51C374.427 1370.48 374.976 1369.98 374.976 1369C374.976 1368.51 374.829 1368.1 374.536 1367.8C374.243 1367.49 373.841 1367.32 373.33 1367.27ZM369.873 1369.29C369.873 1368.37 370.12 1367.66 370.615 1367.15C371.113 1366.64 371.816 1366.39 372.725 1366.39C373.626 1366.39 374.342 1366.64 374.873 1367.12C375.407 1367.61 375.674 1368.25 375.674 1369.05C375.674 1369.78 375.456 1370.34 375.02 1370.74C374.583 1371.15 373.962 1371.35 373.154 1371.35H372.681V1367.27C372.017 1367.27 371.506 1367.45 371.147 1367.81C370.793 1368.17 370.615 1368.67 370.615 1369.3C370.615 1369.93 370.835 1370.57 371.274 1371.2V1371.24H370.342C370.029 1370.45 369.873 1369.8 369.873 1369.29ZM370 1372.57H375.518V1373.43H374.668C375.234 1374.12 375.518 1374.76 375.518 1375.34C375.518 1375.54 375.501 1375.75 375.469 1375.96H374.57V1375.92C374.635 1375.65 374.668 1375.38 374.668 1375.1C374.668 1374.55 374.434 1373.99 373.965 1373.43H370V1372.57ZM372.944 1382.74L370.439 1377.11H371.255L373.218 1381.63L375.181 1377.11H375.996L373.491 1382.74H372.944Z" fill="white"/>
<path d="M370.439 1408.15L372.944 1402.51H373.491L375.996 1408.15H375.181L373.218 1403.62L371.255 1408.15H370.439ZM377.686 1413.56L368.516 1410.03V1409.24L377.686 1412.76V1413.56ZM370 1419.27V1418.41H373.086C373.805 1418.41 374.281 1418.31 374.512 1418.12C374.746 1417.94 374.863 1417.62 374.863 1417.19C374.863 1416.68 374.627 1416.14 374.155 1415.57H370V1414.71H377.686V1415.57H374.858C375.402 1416.21 375.674 1416.85 375.674 1417.48C375.674 1418.05 375.495 1418.49 375.137 1418.8C374.782 1419.11 374.268 1419.27 373.594 1419.27H370ZM373.33 1421.36V1424.6C374.427 1424.57 374.976 1424.07 374.976 1423.09C374.976 1422.6 374.829 1422.19 374.536 1421.89C374.243 1421.58 373.841 1421.41 373.33 1421.36ZM369.873 1423.38C369.873 1422.46 370.12 1421.75 370.615 1421.24C371.113 1420.73 371.816 1420.48 372.725 1420.48C373.626 1420.48 374.342 1420.72 374.873 1421.21C375.407 1421.69 375.674 1422.34 375.674 1423.14C375.674 1423.87 375.456 1424.43 375.02 1424.83C374.583 1425.24 373.962 1425.44 373.154 1425.44H372.681V1421.36C372.017 1421.36 371.506 1421.54 371.147 1421.9C370.793 1422.26 370.615 1422.76 370.615 1423.39C370.615 1424.02 370.835 1424.66 371.274 1425.29V1425.33H370.342C370.029 1424.54 369.873 1423.89 369.873 1423.38ZM371.313 1429.99H372.915C372.86 1428.78 372.725 1427.99 372.51 1427.65C372.298 1427.3 372.005 1427.13 371.631 1427.13C370.97 1427.13 370.64 1427.53 370.64 1428.33C370.64 1428.87 370.864 1429.43 371.313 1429.99ZM370 1429.99H370.615C370.283 1429.53 370.073 1429.15 369.985 1428.86C369.894 1428.56 369.849 1428.26 369.849 1427.95C369.849 1427.46 370.011 1427.05 370.337 1426.73C370.662 1426.4 371.076 1426.24 371.577 1426.24C372.218 1426.24 372.7 1426.48 373.022 1426.96C373.348 1427.45 373.542 1428.46 373.604 1429.99H373.77C374.154 1429.99 374.437 1429.88 374.619 1429.65C374.805 1429.42 374.897 1429.02 374.897 1428.45C374.897 1427.94 374.767 1427.38 374.507 1426.76V1426.72H375.4C375.566 1427.33 375.649 1427.92 375.649 1428.48C375.649 1429.3 375.496 1429.89 375.19 1430.27C374.888 1430.65 374.416 1430.84 373.774 1430.84H370V1429.99ZM371.309 1436.02H374.575C374.797 1435.54 374.907 1435.09 374.907 1434.67C374.907 1434.13 374.717 1433.71 374.336 1433.41C373.958 1433.1 373.426 1432.95 372.739 1432.95C371.353 1432.95 370.659 1433.45 370.659 1434.44C370.659 1435 370.876 1435.53 371.309 1436.02ZM370 1436.02H370.61C370.103 1435.4 369.849 1434.79 369.849 1434.2C369.849 1433.55 370.104 1433.03 370.615 1432.64C371.126 1432.26 371.825 1432.06 372.71 1432.06C373.586 1432.06 374.299 1432.3 374.849 1432.76C375.399 1433.23 375.674 1433.8 375.674 1434.49C375.674 1434.96 375.529 1435.48 375.239 1436.02H377.686V1436.88H370V1436.02ZM373.33 1439.02V1442.25C374.427 1442.23 374.976 1441.73 374.976 1440.75C374.976 1440.25 374.829 1439.85 374.536 1439.54C374.243 1439.24 373.841 1439.06 373.33 1439.02ZM369.873 1441.03C369.873 1440.12 370.12 1439.4 370.615 1438.9C371.113 1438.39 371.816 1438.14 372.725 1438.14C373.626 1438.14 374.342 1438.38 374.873 1438.87C375.407 1439.35 375.674 1439.99 375.674 1440.79C375.674 1441.52 375.456 1442.09 375.02 1442.49C374.583 1442.89 373.962 1443.09 373.154 1443.09H372.681V1439.02C372.017 1439.02 371.506 1439.2 371.147 1439.55C370.793 1439.92 370.615 1440.41 370.615 1441.05C370.615 1441.68 370.835 1442.31 371.274 1442.94V1442.98H370.342C370.029 1442.2 369.873 1441.55 369.873 1441.03ZM370 1444.32H375.518V1445.17H374.668C375.234 1445.86 375.518 1446.5 375.518 1447.08C375.518 1447.29 375.501 1447.5 375.469 1447.7H374.57V1447.67C374.635 1447.4 374.668 1447.13 374.668 1446.85C374.668 1446.3 374.434 1445.74 373.965 1445.17H370V1444.32ZM372.944 1454.49L370.439 1448.85H371.255L373.218 1453.38L375.181 1448.85H375.996L373.491 1454.49H372.944Z" fill="white"/>
<path d="M668.439 21.0684L670.944 15.4336H671.491L673.996 21.0684L673.181 21.0684L671.218 16.542L669.255 21.0684H668.439ZM668 27.6943V26.835L671.086 26.835C671.805 26.835 672.281 26.7406 672.512 26.5518C672.746 26.363 672.863 26.0521 672.863 25.6191C672.863 25.1113 672.627 24.5693 672.155 23.9932L668 23.9932V23.1338L675.686 23.1338V23.9932L672.858 23.9932C673.402 24.6377 673.674 25.2773 673.674 25.9121C673.674 26.4818 673.495 26.9212 673.137 27.2305C672.782 27.5397 672.268 27.6943 671.594 27.6943L668 27.6943ZM668 33.7002V29.7842H668.674V31.3174L673.732 31.3174V29.7842H674.328C674.331 30.3831 674.416 30.8112 674.582 31.0684C674.751 31.3255 675.018 31.4704 675.383 31.5029V32.1963H668.674V33.7002L668 33.7002ZM670.944 41.5664L668.439 35.9316H669.255L671.218 40.458L673.181 35.9316H673.996L671.491 41.5664H670.944Z" fill="white"/>
<path d="M668.439 68.3223L670.944 62.6875H671.491L673.996 68.3223H673.181L671.218 63.7959L669.255 68.3223H668.439ZM675.686 73.7373L666.516 70.2021V69.416L675.686 72.9365V73.7373ZM668 79.4404V78.5811L671.086 78.5811C671.805 78.5811 672.281 78.4867 672.512 78.2979C672.746 78.109 672.863 77.7982 672.863 77.3652C672.863 76.8574 672.627 76.3154 672.155 75.7393L668 75.7393V74.8799L675.686 74.8799V75.7393H672.858C673.402 76.3838 673.674 77.0234 673.674 77.6582C673.674 78.2279 673.495 78.6673 673.137 78.9766C672.782 79.2858 672.268 79.4404 671.594 79.4404L668 79.4404ZM668 85.4463V81.5303L668.674 81.5303V83.0635H673.732V81.5303H674.328C674.331 82.1292 674.416 82.5573 674.582 82.8145C674.751 83.0716 675.018 83.2165 675.383 83.249V83.9424H668.674V85.4463L668 85.4463ZM670.944 93.3125L668.439 87.6777H669.255L671.218 92.2041L673.181 87.6777H673.996L671.491 93.3125H670.944Z" fill="white"/>
<path d="M414.439 1208.21L416.944 1202.58H417.491L419.996 1208.21H419.181L417.218 1203.68L415.255 1208.21H414.439ZM414 1214.84V1213.98H417.086C417.805 1213.98 418.281 1213.88 418.512 1213.69C418.746 1213.5 418.863 1213.19 418.863 1212.76C418.863 1212.25 418.627 1211.71 418.155 1211.13H414V1210.28H421.686V1211.13H418.858C419.402 1211.78 419.674 1212.42 419.674 1213.05C419.674 1213.62 419.495 1214.06 419.137 1214.37C418.782 1214.68 418.268 1214.84 417.594 1214.84H414ZM413.893 1218.2C413.893 1217.06 414.519 1216.49 415.772 1216.49H418.814V1215.86H419.518V1216.5H421.104V1217.35H419.518V1219.28H418.814V1217.35H416.261C415.681 1217.35 415.305 1217.39 415.133 1217.47C414.964 1217.55 414.838 1217.67 414.757 1217.83C414.679 1218 414.64 1218.21 414.64 1218.46C414.64 1218.7 414.698 1218.97 414.815 1219.25V1219.28H414.034C413.94 1218.9 413.893 1218.54 413.893 1218.2ZM414 1227.36H417.091C417.687 1227.36 418.084 1227.32 418.282 1227.23C418.484 1227.15 418.631 1227.03 418.722 1226.85C418.816 1226.68 418.863 1226.47 418.863 1226.21C418.863 1225.76 418.618 1225.24 418.126 1224.63C417.957 1224.65 417.74 1224.66 417.477 1224.66H414V1223.8H417.091C417.703 1223.8 418.105 1223.76 418.297 1223.67C418.492 1223.59 418.635 1223.47 418.727 1223.3C418.818 1223.13 418.863 1222.92 418.863 1222.66C418.863 1222.2 418.626 1221.68 418.15 1221.11H414V1220.25H419.518V1221.11H418.854C419.4 1221.76 419.674 1222.38 419.674 1222.96C419.674 1223.71 419.373 1224.22 418.771 1224.48C419.373 1225.19 419.674 1225.87 419.674 1226.51C419.674 1227.65 418.98 1228.22 417.594 1228.22H414V1227.36ZM414 1230.71V1229.86H421.686V1230.71H414ZM416.944 1238.42L414.439 1232.79H415.255L417.218 1237.32L419.181 1232.79H419.996L417.491 1238.42H416.944Z" fill="white"/>
<path d="M414.439 1284.96L416.944 1279.33H417.491L419.996 1284.96H419.181L417.218 1280.44L415.255 1284.96H414.439ZM421.686 1290.38L412.516 1286.84V1286.06L421.686 1289.58V1290.38ZM414 1296.08V1295.22H417.086C417.805 1295.22 418.281 1295.13 418.512 1294.94C418.746 1294.75 418.863 1294.44 418.863 1294.01C418.863 1293.5 418.627 1292.96 418.155 1292.38H414V1291.52H421.686V1292.38H418.858C419.402 1293.03 419.674 1293.67 419.674 1294.3C419.674 1294.87 419.495 1295.31 419.137 1295.62C418.782 1295.93 418.268 1296.08 417.594 1296.08H414ZM413.893 1299.45C413.893 1298.31 414.519 1297.74 415.772 1297.74H418.814V1297.11H419.518V1297.74H421.104V1298.6H419.518V1300.53H418.814V1298.6H416.261C415.681 1298.6 415.305 1298.64 415.133 1298.71C414.964 1298.8 414.838 1298.92 414.757 1299.08C414.679 1299.24 414.64 1299.45 414.64 1299.71C414.64 1299.95 414.698 1300.21 414.815 1300.5V1300.53H414.034C413.94 1300.14 413.893 1299.78 413.893 1299.45ZM414 1308.61H417.091C417.687 1308.61 418.084 1308.56 418.282 1308.48C418.484 1308.4 418.631 1308.27 418.722 1308.1C418.816 1307.93 418.863 1307.71 418.863 1307.45C418.863 1307.01 418.618 1306.48 418.126 1305.88C417.957 1305.9 417.74 1305.91 417.477 1305.91H414V1305.05H417.091C417.703 1305.05 418.105 1305 418.297 1304.92C418.492 1304.84 418.635 1304.71 418.727 1304.54C418.818 1304.38 418.863 1304.17 418.863 1303.91C418.863 1303.44 418.626 1302.92 418.15 1302.35H414V1301.49H419.518V1302.35H418.854C419.4 1303.01 419.674 1303.62 419.674 1304.21C419.674 1304.96 419.373 1305.47 418.771 1305.73C419.373 1306.44 419.674 1307.11 419.674 1307.75C419.674 1308.89 418.98 1309.47 417.594 1309.47H414V1308.61ZM414 1311.96V1311.1H421.686V1311.96H414ZM416.944 1319.67L414.439 1314.04H415.255L417.218 1318.56L419.181 1314.04H419.996L417.491 1319.67H416.944Z" fill="white"/>
<path d="M716.439 1407.86L718.944 1402.23H719.491L721.996 1407.86H721.181L719.218 1403.34L717.255 1407.86H716.439ZM717.313 1413.26H718.915C718.86 1412.05 718.725 1411.26 718.51 1410.92C718.298 1410.57 718.005 1410.4 717.631 1410.4C716.97 1410.4 716.64 1410.8 716.64 1411.6C716.64 1412.14 716.864 1412.7 717.313 1413.26ZM716 1413.26H716.615C716.283 1412.8 716.073 1412.42 715.985 1412.13C715.894 1411.83 715.849 1411.53 715.849 1411.22C715.849 1410.73 716.011 1410.32 716.337 1410C716.662 1409.67 717.076 1409.51 717.577 1409.51C718.218 1409.51 718.7 1409.75 719.022 1410.23C719.348 1410.72 719.542 1411.73 719.604 1413.26H719.77C720.154 1413.26 720.437 1413.15 720.619 1412.92C720.805 1412.69 720.897 1412.29 720.897 1411.72C720.897 1411.21 720.767 1410.65 720.507 1410.03V1409.99H721.4C721.566 1410.6 721.649 1411.19 721.649 1411.75C721.649 1412.57 721.496 1413.17 721.19 1413.54C720.888 1413.92 720.416 1414.11 719.774 1414.11H716V1413.26ZM718.944 1421.77L716.439 1416.14H717.255L719.218 1420.66L721.181 1416.14H721.996L719.491 1421.77H718.944Z" fill="white"/>
<path d="M716.439 1449.12L718.944 1443.48H719.491L721.996 1449.12H721.181L719.218 1444.59L717.255 1449.12H716.439ZM723.686 1454.53L714.516 1451V1450.21L723.686 1453.73V1454.53ZM717.313 1459.01H718.915C718.86 1457.79 718.725 1457.01 718.51 1456.66C718.298 1456.32 718.005 1456.14 717.631 1456.14C716.97 1456.14 716.64 1456.54 716.64 1457.35C716.64 1457.89 716.864 1458.44 717.313 1459.01ZM716 1459.01H716.615C716.283 1458.55 716.073 1458.17 715.985 1457.87C715.894 1457.58 715.849 1457.28 715.849 1456.97C715.849 1456.48 716.011 1456.07 716.337 1455.74C716.662 1455.42 717.076 1455.26 717.577 1455.26C718.218 1455.26 718.7 1455.5 719.022 1455.98C719.348 1456.46 719.542 1457.47 719.604 1459.01H719.77C720.154 1459.01 720.437 1458.89 720.619 1458.66C720.805 1458.44 720.897 1458.04 720.897 1457.46C720.897 1456.96 720.767 1456.4 720.507 1455.78V1455.74H721.4C721.566 1456.35 721.649 1456.93 721.649 1457.5C721.649 1458.31 721.496 1458.91 721.19 1459.29C720.888 1459.67 720.416 1459.86 719.774 1459.86H716V1459.01ZM718.944 1467.52L716.439 1461.88H717.255L719.218 1466.41L721.181 1461.88H721.996L719.491 1467.52H718.944Z" fill="white"/>
<path d="M397.615 110.981L401.122 103.093H401.888L405.395 110.981H404.253L401.505 104.645L398.757 110.981H397.615ZM396.85 116.313C396.85 114.718 397.727 113.921 399.481 113.921L403.74 113.921V113.039H404.725V113.928H406.946V115.124H404.725V117.831H403.74V115.124L400.165 115.124C399.354 115.124 398.827 115.179 398.586 115.288C398.349 115.402 398.174 115.573 398.06 115.801C397.95 116.029 397.896 116.32 397.896 116.676C397.896 117.013 397.978 117.384 398.142 117.79V117.831H397.048C396.916 117.289 396.85 116.783 396.85 116.313ZM398.839 123.84H401.081C401.004 122.14 400.814 121.046 400.514 120.559C400.217 120.076 399.807 119.834 399.283 119.834C398.358 119.834 397.896 120.395 397.896 121.516C397.896 122.277 398.21 123.051 398.839 123.84ZM397 123.84H397.861C397.396 123.197 397.103 122.669 396.979 122.254C396.852 121.839 396.788 121.418 396.788 120.989C396.788 120.301 397.016 119.729 397.472 119.273C397.927 118.818 398.506 118.59 399.208 118.59C400.106 118.59 400.78 118.927 401.231 119.602C401.687 120.281 401.958 121.693 402.045 123.84H402.277C402.815 123.84 403.212 123.68 403.467 123.361C403.727 123.042 403.856 122.482 403.856 121.68C403.856 120.973 403.674 120.187 403.31 119.321V119.267H404.561C404.793 120.119 404.909 120.939 404.909 121.728C404.909 122.871 404.695 123.708 404.267 124.236C403.843 124.77 403.182 125.036 402.284 125.036L397 125.036V123.84ZM397.41 128.509L397 128.406V127.299L407.76 127.299V128.502H403.877C404.588 129.382 404.943 130.236 404.943 131.065C404.943 131.972 404.586 132.695 403.87 133.232C403.155 133.775 402.175 134.046 400.931 134.046C399.7 134.046 398.702 133.72 397.937 133.068C397.171 132.417 396.788 131.61 396.788 130.648C396.788 129.896 396.995 129.183 397.41 128.509ZM402.899 128.502H398.319C398.014 129.186 397.861 129.819 397.861 130.402C397.861 131.159 398.126 131.747 398.654 132.166C399.183 132.59 399.93 132.802 400.896 132.802C402.838 132.802 403.809 132.107 403.809 130.717C403.809 129.979 403.506 129.24 402.899 128.502ZM397 137.033V135.83H407.76V137.033H397ZM401.662 140.034V144.566C403.198 144.53 403.966 143.826 403.966 142.454C403.966 141.761 403.761 141.201 403.351 140.772C402.94 140.344 402.378 140.098 401.662 140.034ZM396.822 142.857C396.822 141.572 397.169 140.574 397.861 139.863C398.559 139.157 399.543 138.804 400.814 138.804C402.077 138.804 403.079 139.143 403.822 139.822C404.57 140.501 404.943 141.401 404.943 142.522C404.943 143.543 404.638 144.334 404.027 144.895C403.417 145.46 402.546 145.742 401.416 145.742H400.753V140.034C399.823 140.034 399.108 140.285 398.606 140.786C398.11 141.292 397.861 141.989 397.861 142.878C397.861 143.762 398.169 144.646 398.784 145.53V145.585H397.479C397.041 144.487 396.822 143.577 396.822 142.857ZM401.122 155.907L397.615 148.019H398.757L401.505 154.355L404.253 148.019H405.395L401.888 155.907H401.122Z" fill="white"/>
<path d="M397.615 182.837L401.122 174.948H401.888L405.395 182.837H404.253L401.505 176.5L398.757 182.837L397.615 182.837ZM407.76 190.418L394.922 185.469V184.368L407.76 189.297V190.418ZM396.85 194.458C396.85 192.863 397.727 192.065 399.481 192.065H403.74V191.184H404.725V192.072H406.946V193.269H404.725V195.976H403.74V193.269H400.165C399.354 193.269 398.827 193.323 398.586 193.433C398.349 193.547 398.174 193.717 398.06 193.945C397.95 194.173 397.896 194.465 397.896 194.82C397.896 195.158 397.978 195.529 398.142 195.935V195.976L397.048 195.976C396.916 195.433 396.85 194.927 396.85 194.458ZM398.839 201.984H401.081C401.004 200.285 400.814 199.191 400.514 198.703C400.217 198.22 399.807 197.979 399.283 197.979C398.358 197.979 397.896 198.539 397.896 199.66C397.896 200.421 398.21 201.196 398.839 201.984ZM397 201.984L397.861 201.984C397.396 201.342 397.103 200.813 396.979 200.398C396.852 199.984 396.788 199.562 396.788 199.134C396.788 198.446 397.016 197.874 397.472 197.418C397.927 196.962 398.506 196.734 399.208 196.734C400.106 196.734 400.78 197.072 401.231 197.746C401.687 198.425 401.958 199.838 402.045 201.984H402.277C402.815 201.984 403.212 201.825 403.467 201.506C403.727 201.187 403.856 200.626 403.856 199.824C403.856 199.118 403.674 198.332 403.31 197.466V197.411H404.561C404.793 198.263 404.909 199.084 404.909 199.872C404.909 201.016 404.695 201.852 404.267 202.381C403.843 202.914 403.182 203.181 402.284 203.181L397 203.181V201.984ZM397.41 206.653L397 206.551V205.443H407.76V206.646H403.877C404.588 207.526 404.943 208.381 404.943 209.21C404.943 210.117 404.586 210.839 403.87 211.377C403.155 211.919 402.175 212.19 400.931 212.19C399.7 212.19 398.702 211.865 397.937 211.213C397.171 210.561 396.788 209.755 396.788 208.793C396.788 208.041 396.995 207.328 397.41 206.653ZM402.899 206.646H398.319C398.014 207.33 397.861 207.964 397.861 208.547C397.861 209.303 398.126 209.891 398.654 210.311C399.183 210.734 399.93 210.946 400.896 210.946C402.838 210.946 403.809 210.251 403.809 208.861C403.809 208.123 403.506 207.385 402.899 206.646ZM397 215.178V213.975H407.76V215.178H397ZM401.662 218.179V222.711C403.198 222.674 403.966 221.97 403.966 220.599C403.966 219.906 403.761 219.345 403.351 218.917C402.94 218.489 402.378 218.243 401.662 218.179ZM396.822 221.002C396.822 219.717 397.169 218.719 397.861 218.008C398.559 217.301 399.543 216.948 400.814 216.948C402.077 216.948 403.079 217.288 403.822 217.967C404.57 218.646 404.943 219.546 404.943 220.667C404.943 221.688 404.638 222.479 404.027 223.039C403.417 223.604 402.546 223.887 401.416 223.887H400.753V218.179C399.823 218.179 399.108 218.429 398.606 218.931C398.11 219.437 397.861 220.134 397.861 221.022C397.861 221.907 398.169 222.791 398.784 223.675V223.729H397.479C397.041 222.631 396.822 221.722 396.822 221.002ZM401.122 234.052L397.615 226.163H398.757L401.505 232.5L404.253 226.163H405.395L401.888 234.052H401.122Z" fill="white"/>
<path d="M576.277 445.783L579.784 437.895H580.55L584.057 445.783H582.915L580.167 439.446L577.419 445.783H576.277ZM575.478 450.855C575.478 449.889 575.689 448.982 576.113 448.135H577.508V448.183C576.824 449.103 576.482 450.017 576.482 450.924C576.482 452.195 576.883 452.831 577.686 452.831C578 452.831 578.244 452.747 578.417 452.578C578.59 452.41 578.738 452.059 578.861 451.525C578.948 451.079 579.06 450.566 579.196 449.987C579.333 449.409 579.572 448.96 579.914 448.641C580.26 448.326 580.702 448.169 581.24 448.169C581.924 448.169 582.482 448.447 582.915 449.003C583.353 449.559 583.571 450.302 583.571 451.231C583.571 452.188 583.384 453.029 583.011 453.754H581.685V453.706C582.272 452.909 582.566 452.063 582.566 451.17C582.566 450.618 582.464 450.183 582.259 449.864C582.058 449.545 581.778 449.386 581.418 449.386C581.099 449.386 580.855 449.47 580.687 449.639C580.518 449.812 580.37 450.154 580.242 450.664L579.914 452.175C579.777 452.799 579.536 453.269 579.189 453.583C578.848 453.897 578.403 454.055 577.856 454.055C577.15 454.055 576.576 453.765 576.134 453.187C575.696 452.608 575.478 451.831 575.478 450.855ZM580.324 456.311V460.843C581.86 460.806 582.628 460.102 582.628 458.73C582.628 458.038 582.423 457.477 582.013 457.049C581.603 456.62 581.04 456.374 580.324 456.311ZM575.484 459.134C575.484 457.849 575.831 456.851 576.523 456.14C577.221 455.433 578.205 455.08 579.477 455.08C580.739 455.08 581.742 455.42 582.484 456.099C583.232 456.778 583.605 457.678 583.605 458.799C583.605 459.82 583.3 460.61 582.689 461.171C582.079 461.736 581.208 462.019 580.078 462.019H579.415V456.311C578.485 456.311 577.77 456.561 577.269 457.062C576.772 457.568 576.523 458.266 576.523 459.154C576.523 460.038 576.831 460.923 577.446 461.807V461.861H576.141C575.703 460.763 575.484 459.854 575.484 459.134ZM576.134 469.34C575.701 468.415 575.484 467.608 575.484 466.92C575.484 465.73 575.833 464.805 576.53 464.145C577.228 463.488 578.221 463.16 579.511 463.16C580.773 463.16 581.767 463.5 582.491 464.179C583.216 464.858 583.578 465.774 583.578 466.927C583.578 467.688 583.366 468.492 582.942 469.34H581.603V469.285C582.227 468.433 582.539 467.638 582.539 466.899C582.539 466.111 582.277 465.498 581.753 465.061C581.229 464.623 580.481 464.404 579.511 464.404C578.54 464.404 577.799 464.621 577.289 465.054C576.779 465.491 576.523 466.106 576.523 466.899C576.523 467.66 576.831 468.456 577.446 469.285V469.34H576.134ZM575.512 473.264C575.512 471.669 576.389 470.871 578.144 470.871H582.402V469.989H583.387V470.878H585.608V472.074H583.387V474.781H582.402V472.074H578.827C578.016 472.074 577.49 472.129 577.248 472.238C577.011 472.352 576.836 472.523 576.722 472.751C576.612 472.979 576.558 473.271 576.558 473.626C576.558 473.963 576.64 474.335 576.804 474.74V474.781H575.71C575.578 474.239 575.512 473.733 575.512 473.264ZM584.932 477.42V476.06H586.183V477.42H584.932ZM575.662 477.345V476.142H583.387V477.345H575.662ZM575.45 482.677C575.45 481.578 575.812 480.71 576.537 480.072C577.266 479.434 578.26 479.115 579.518 479.115C580.775 479.115 581.771 479.437 582.505 480.079C583.239 480.722 583.605 481.588 583.605 482.677C583.605 483.766 583.241 484.632 582.512 485.274C581.783 485.917 580.785 486.238 579.518 486.238C578.251 486.238 577.255 485.917 576.53 485.274C575.81 484.636 575.45 483.771 575.45 482.677ZM582.58 482.677C582.58 481.934 582.318 481.362 581.794 480.961C581.27 480.56 580.511 480.359 579.518 480.359C578.538 480.359 577.786 480.56 577.262 480.961C576.738 481.362 576.476 481.934 576.476 482.677C576.476 483.42 576.738 483.992 577.262 484.393C577.786 484.794 578.538 484.994 579.518 484.994C581.559 484.994 582.58 484.222 582.58 482.677ZM575.662 494.38V493.177H579.989C580.992 493.177 581.655 493.045 581.979 492.78C582.307 492.516 582.471 492.081 582.471 491.475C582.471 490.759 582.138 490 581.473 489.198H575.662V487.995H583.387V489.198H582.457C583.223 490.105 583.605 491.001 583.605 491.885C583.605 492.682 583.355 493.298 582.854 493.73C582.357 494.163 581.637 494.38 580.693 494.38H575.662ZM579.784 505.105L576.277 497.217H577.419L580.167 503.554L582.915 497.217H584.057L580.55 505.105H579.784Z" fill="white"/>
<path d="M576.277 532.139L579.784 524.25H580.55L584.057 532.139H582.915L580.167 525.802L577.419 532.139H576.277ZM586.422 539.72L573.584 534.771V533.67L586.422 538.599V539.72ZM575.478 543.5C575.478 542.534 575.689 541.627 576.113 540.779H577.508V540.827C576.824 541.748 576.482 542.661 576.482 543.568C576.482 544.84 576.883 545.476 577.686 545.476C578 545.476 578.244 545.391 578.417 545.223C578.59 545.054 578.738 544.703 578.861 544.17C578.948 543.723 579.06 543.211 579.196 542.632C579.333 542.053 579.572 541.604 579.914 541.285C580.26 540.971 580.702 540.813 581.24 540.813C581.924 540.813 582.482 541.091 582.915 541.647C583.353 542.203 583.571 542.946 583.571 543.876C583.571 544.833 583.384 545.674 583.011 546.398H581.685V546.351C582.272 545.553 582.566 544.708 582.566 543.814C582.566 543.263 582.464 542.828 582.259 542.509C582.058 542.19 581.778 542.03 581.418 542.03C581.099 542.03 580.855 542.115 580.687 542.283C580.518 542.456 580.37 542.798 580.242 543.309L579.914 544.819C579.777 545.444 579.536 545.913 579.189 546.228C578.848 546.542 578.403 546.699 577.856 546.699C577.15 546.699 576.576 546.41 576.134 545.831C575.696 545.252 575.478 544.475 575.478 543.5ZM580.324 548.955V553.487C581.86 553.451 582.628 552.747 582.628 551.375C582.628 550.682 582.423 550.122 582.013 549.693C581.603 549.265 581.04 549.019 580.324 548.955ZM575.484 551.778C575.484 550.493 575.831 549.495 576.523 548.784C577.221 548.078 578.205 547.725 579.477 547.725C580.739 547.725 581.742 548.064 582.484 548.743C583.232 549.422 583.605 550.322 583.605 551.443C583.605 552.464 583.3 553.255 582.689 553.815C582.079 554.381 581.208 554.663 580.078 554.663H579.415V548.955C578.485 548.955 577.77 549.206 577.269 549.707C576.772 550.213 576.523 550.91 576.523 551.799C576.523 552.683 576.831 553.567 577.446 554.451V554.506H576.141C575.703 553.408 575.484 552.498 575.484 551.778ZM576.134 561.984C575.701 561.059 575.484 560.253 575.484 559.564C575.484 558.375 575.833 557.45 576.53 556.789C577.228 556.133 578.221 555.805 579.511 555.805C580.773 555.805 581.767 556.144 582.491 556.823C583.216 557.502 583.578 558.418 583.578 559.571C583.578 560.332 583.366 561.137 582.942 561.984H581.603V561.93C582.227 561.077 582.539 560.282 582.539 559.544C582.539 558.756 582.277 558.143 581.753 557.705C581.229 557.268 580.481 557.049 579.511 557.049C578.54 557.049 577.799 557.265 577.289 557.698C576.779 558.136 576.523 558.751 576.523 559.544C576.523 560.305 576.831 561.1 577.446 561.93V561.984H576.134ZM575.512 565.908C575.512 564.313 576.389 563.516 578.144 563.516H582.402V562.634H583.387V563.522H585.608V564.719H583.387V567.426H582.402V564.719H578.827C578.016 564.719 577.49 564.773 577.248 564.883C577.011 564.997 576.836 565.168 576.722 565.396C576.612 565.623 576.558 565.915 576.558 566.271C576.558 566.608 576.64 566.979 576.804 567.385V567.426H575.71C575.578 566.883 575.512 566.378 575.512 565.908ZM584.932 570.064V568.704H586.183V570.064H584.932ZM575.662 569.989V568.786H583.387V569.989H575.662ZM575.45 575.321C575.45 574.223 575.812 573.355 576.537 572.717C577.266 572.079 578.26 571.76 579.518 571.76C580.775 571.76 581.771 572.081 582.505 572.724C583.239 573.366 583.605 574.232 583.605 575.321C583.605 576.41 583.241 577.276 582.512 577.919C581.783 578.562 580.785 578.883 579.518 578.883C578.251 578.883 577.255 578.562 576.53 577.919C575.81 577.281 575.45 576.415 575.45 575.321ZM582.58 575.321C582.58 574.578 582.318 574.007 581.794 573.605C581.27 573.204 580.511 573.004 579.518 573.004C578.538 573.004 577.786 573.204 577.262 573.605C576.738 574.007 576.476 574.578 576.476 575.321C576.476 576.064 576.738 576.636 577.262 577.037C577.786 577.438 578.538 577.639 579.518 577.639C581.559 577.639 582.58 576.866 582.58 575.321ZM575.662 587.024V585.821H579.989C580.992 585.821 581.655 585.689 581.979 585.425C582.307 585.16 582.471 584.725 582.471 584.119C582.471 583.404 582.138 582.645 581.473 581.843H575.662V580.64H583.387V581.843H582.457C583.223 582.75 583.605 583.645 583.605 584.529C583.605 585.327 583.355 585.942 582.854 586.375C582.357 586.808 581.637 587.024 580.693 587.024H575.662ZM579.784 597.75L576.277 589.861H577.419L580.167 596.198L582.915 589.861H584.057L580.55 597.75H579.784Z" fill="white"/>
<path d="M527.277 1218.92L530.783 1211.03H531.549L535.056 1218.92H533.914L531.166 1212.58L528.418 1218.92H527.277ZM528.5 1226.47H530.742C530.665 1224.77 530.476 1223.68 530.175 1223.19C529.879 1222.71 529.469 1222.47 528.945 1222.47C528.019 1222.47 527.557 1223.03 527.557 1224.15C527.557 1224.91 527.871 1225.69 528.5 1226.47ZM526.661 1226.47H527.523C527.058 1225.83 526.764 1225.3 526.641 1224.89C526.513 1224.47 526.449 1224.05 526.449 1223.62C526.449 1222.94 526.677 1222.36 527.133 1221.91C527.589 1221.45 528.168 1221.22 528.869 1221.22C529.767 1221.22 530.442 1221.56 530.893 1222.24C531.349 1222.92 531.62 1224.33 531.706 1226.47H531.939C532.476 1226.47 532.873 1226.32 533.128 1226C533.388 1225.68 533.518 1225.12 533.518 1224.31C533.518 1223.61 533.336 1222.82 532.971 1221.96V1221.9H534.222C534.454 1222.75 534.571 1223.57 534.571 1224.36C534.571 1225.51 534.356 1226.34 533.928 1226.87C533.504 1227.4 532.843 1227.67 531.946 1227.67H526.661V1226.47ZM526.661 1229.93H534.386V1231.14H533.197C533.99 1232.1 534.386 1232.99 534.386 1233.81C534.386 1234.1 534.363 1234.39 534.318 1234.68H533.06V1234.63C533.151 1234.25 533.197 1233.87 533.197 1233.48C533.197 1232.71 532.868 1231.93 532.212 1231.14H526.661V1229.93ZM526.511 1238.36C526.511 1236.77 527.388 1235.97 529.143 1235.97H533.402V1235.09H534.386V1235.98H536.608V1237.17H534.386V1239.88H533.402V1237.17H529.826C529.015 1237.17 528.489 1237.23 528.247 1237.34C528.01 1237.45 527.835 1237.62 527.721 1237.85C527.612 1238.08 527.557 1238.37 527.557 1238.72C527.557 1239.06 527.639 1239.43 527.803 1239.84V1239.88H526.709C526.577 1239.34 526.511 1238.83 526.511 1238.36ZM535.931 1242.52V1241.16H537.182V1242.52H535.931ZM526.661 1242.44V1241.24H534.386V1242.44H526.661ZM527.133 1250.39C526.7 1249.47 526.484 1248.66 526.484 1247.97C526.484 1246.78 526.832 1245.86 527.53 1245.2C528.227 1244.54 529.22 1244.21 530.51 1244.21C531.772 1244.21 532.766 1244.55 533.49 1245.23C534.215 1245.91 534.577 1246.83 534.577 1247.98C534.577 1248.74 534.365 1249.55 533.942 1250.39H532.602V1250.34C533.226 1249.49 533.538 1248.69 533.538 1247.95C533.538 1247.16 533.276 1246.55 532.752 1246.11C532.228 1245.68 531.481 1245.46 530.51 1245.46C529.539 1245.46 528.799 1245.67 528.288 1246.11C527.778 1246.54 527.523 1247.16 527.523 1247.95C527.523 1248.71 527.83 1249.51 528.446 1250.34V1250.39H527.133ZM526.661 1253.09V1251.89H537.421V1253.09H526.661ZM531.323 1256.09V1260.63C532.859 1260.59 533.627 1259.89 533.627 1258.51C533.627 1257.82 533.422 1257.26 533.012 1256.83C532.602 1256.4 532.039 1256.16 531.323 1256.09ZM526.484 1258.92C526.484 1257.63 526.83 1256.63 527.523 1255.92C528.22 1255.22 529.204 1254.86 530.476 1254.86C531.738 1254.86 532.741 1255.2 533.484 1255.88C534.231 1256.56 534.605 1257.46 534.605 1258.58C534.605 1259.6 534.299 1260.39 533.689 1260.96C533.078 1261.52 532.208 1261.8 531.077 1261.8H530.414V1256.09C529.485 1256.09 528.769 1256.35 528.268 1256.85C527.771 1257.35 527.523 1258.05 527.523 1258.94C527.523 1259.82 527.83 1260.71 528.446 1261.59V1261.65H527.14C526.702 1260.55 526.484 1259.64 526.484 1258.92ZM530.783 1271.97L527.277 1264.08H528.418L531.166 1270.42L533.914 1264.08H535.056L531.549 1271.97H530.783Z" fill="white"/>
<path d="M527.277 1300.78L530.783 1292.89H531.549L535.056 1300.78H533.914L531.166 1294.44L528.418 1300.78H527.277ZM537.421 1308.36L524.583 1303.41V1302.31L537.421 1307.24V1308.36ZM528.5 1314.62H530.742C530.665 1312.92 530.476 1311.83 530.175 1311.34C529.879 1310.85 529.469 1310.61 528.945 1310.61C528.019 1310.61 527.557 1311.17 527.557 1312.29C527.557 1313.06 527.871 1313.83 528.5 1314.62ZM526.661 1314.62H527.523C527.058 1313.98 526.764 1313.45 526.641 1313.03C526.513 1312.62 526.449 1312.2 526.449 1311.77C526.449 1311.08 526.677 1310.51 527.133 1310.05C527.589 1309.6 528.168 1309.37 528.869 1309.37C529.767 1309.37 530.442 1309.71 530.893 1310.38C531.349 1311.06 531.62 1312.47 531.706 1314.62H531.939C532.476 1314.62 532.873 1314.46 533.128 1314.14C533.388 1313.82 533.518 1313.26 533.518 1312.46C533.518 1311.75 533.336 1310.97 532.971 1310.1V1310.05H534.222C534.454 1310.9 534.571 1311.72 534.571 1312.51C534.571 1313.65 534.356 1314.49 533.928 1315.02C533.504 1315.55 532.843 1315.82 531.946 1315.82H526.661V1314.62ZM526.661 1318.08H534.386V1319.28H533.197C533.99 1320.25 534.386 1321.14 534.386 1321.95C534.386 1322.24 534.363 1322.53 534.318 1322.82H533.06V1322.77C533.151 1322.4 533.197 1322.01 533.197 1321.63C533.197 1320.85 532.868 1320.07 532.212 1319.28H526.661V1318.08ZM526.511 1326.51C526.511 1324.91 527.388 1324.11 529.143 1324.11H533.402V1323.23H534.386V1324.12H536.608V1325.32H534.386V1328.02H533.402V1325.32H529.826C529.015 1325.32 528.489 1325.37 528.247 1325.48C528.01 1325.6 527.835 1325.77 527.721 1325.99C527.612 1326.22 527.557 1326.51 527.557 1326.87C527.557 1327.21 527.639 1327.58 527.803 1327.98V1328.02H526.709C526.577 1327.48 526.511 1326.98 526.511 1326.51ZM535.931 1330.66V1329.3H537.182V1330.66H535.931ZM526.661 1330.59V1329.38H534.386V1330.59H526.661ZM527.133 1338.54C526.7 1337.61 526.484 1336.81 526.484 1336.12C526.484 1334.93 526.832 1334 527.53 1333.34C528.227 1332.69 529.22 1332.36 530.51 1332.36C531.772 1332.36 532.766 1332.7 533.49 1333.38C534.215 1334.06 534.577 1334.97 534.577 1336.12C534.577 1336.89 534.365 1337.69 533.942 1338.54H532.602V1338.48C533.226 1337.63 533.538 1336.84 533.538 1336.1C533.538 1335.31 533.276 1334.7 532.752 1334.26C532.228 1333.82 531.481 1333.6 530.51 1333.6C529.539 1333.6 528.799 1333.82 528.288 1334.25C527.778 1334.69 527.523 1335.3 527.523 1336.1C527.523 1336.86 527.83 1337.65 528.446 1338.48V1338.54H527.133ZM526.661 1341.24V1340.04H537.421V1341.24H526.661ZM531.323 1344.24V1348.77C532.859 1348.74 533.627 1348.03 533.627 1346.66C533.627 1345.97 533.422 1345.41 533.012 1344.98C532.602 1344.55 532.039 1344.3 531.323 1344.24ZM526.484 1347.06C526.484 1345.78 526.83 1344.78 527.523 1344.07C528.22 1343.36 529.204 1343.01 530.476 1343.01C531.738 1343.01 532.741 1343.35 533.484 1344.03C534.231 1344.71 534.605 1345.61 534.605 1346.73C534.605 1347.75 534.299 1348.54 533.689 1349.1C533.078 1349.66 532.208 1349.95 531.077 1349.95H530.414V1344.24C529.485 1344.24 528.769 1344.49 528.268 1344.99C527.771 1345.5 527.523 1346.19 527.523 1347.08C527.523 1347.97 527.83 1348.85 528.446 1349.74V1349.79H527.14C526.702 1348.69 526.484 1347.78 526.484 1347.06ZM530.783 1360.11L527.277 1352.22H528.418L531.166 1358.56L533.914 1352.22H535.056L531.549 1360.11H530.783Z" fill="white"/>
<path d="M621.277 1322.65L624.784 1314.76H625.55L629.057 1322.65H627.915L625.167 1316.31L622.419 1322.65H621.277ZM630.253 1329.65V1329.61C630.39 1329.19 630.458 1328.82 630.458 1328.5C630.458 1327.88 630.314 1327.44 630.027 1327.18C629.74 1326.92 629.269 1326.79 628.612 1326.79H628.387V1329.16H627.402V1326.83H620.662V1325.63H627.402V1324.75H628.387V1325.63H628.688C629.594 1325.63 630.289 1325.86 630.772 1326.32C631.256 1326.77 631.497 1327.42 631.497 1328.27C631.497 1328.69 631.451 1329.15 631.36 1329.65H630.253ZM620.45 1333.24C620.45 1332.14 620.812 1331.27 621.537 1330.64C622.266 1330 623.26 1329.68 624.518 1329.68C625.775 1329.68 626.771 1330 627.505 1330.64C628.239 1331.29 628.605 1332.15 628.605 1333.24C628.605 1334.33 628.241 1335.2 627.512 1335.84C626.783 1336.48 625.785 1336.8 624.518 1336.8C623.251 1336.8 622.255 1336.48 621.53 1335.84C620.81 1335.2 620.45 1334.33 620.45 1333.24ZM627.58 1333.24C627.58 1332.5 627.318 1331.93 626.794 1331.52C626.27 1331.12 625.511 1330.92 624.518 1330.92C623.538 1330.92 622.786 1331.12 622.262 1331.52C621.738 1331.93 621.476 1332.5 621.476 1333.24C621.476 1333.98 621.738 1334.56 622.262 1334.96C622.786 1335.36 623.538 1335.56 624.518 1335.56C626.559 1335.56 627.58 1334.79 627.58 1333.24ZM620.662 1338.56H628.387V1339.76H627.197C627.99 1340.73 628.387 1341.62 628.387 1342.43C628.387 1342.72 628.364 1343.01 628.318 1343.3H627.061V1343.25C627.152 1342.88 627.197 1342.49 627.197 1342.11C627.197 1341.33 626.869 1340.55 626.213 1339.76H620.662V1338.56ZM620.662 1354.3H624.989C625.823 1354.3 626.379 1354.24 626.657 1354.12C626.94 1354.01 627.145 1353.83 627.272 1353.59C627.405 1353.35 627.471 1353.05 627.471 1352.69C627.471 1352.06 627.127 1351.33 626.438 1350.48C626.201 1350.51 625.898 1350.52 625.529 1350.52H620.662V1349.32H624.989C625.846 1349.32 626.409 1349.26 626.678 1349.14C626.951 1349.03 627.152 1348.85 627.279 1348.61C627.407 1348.38 627.471 1348.09 627.471 1347.73C627.471 1347.07 627.138 1346.35 626.473 1345.54H620.662V1344.34H628.387V1345.54H627.457C628.223 1346.46 628.605 1347.33 628.605 1348.14C628.605 1349.2 628.184 1349.91 627.341 1350.28C628.184 1351.27 628.605 1352.21 628.605 1353.11C628.605 1354.71 627.635 1355.5 625.693 1355.5H620.662V1354.3ZM624.784 1366.24L621.277 1358.35H622.419L625.167 1364.69L627.915 1358.35H629.057L625.55 1366.24H624.784Z" fill="white"/>
<path d="M621.277 1393.01L624.784 1385.12H625.55L629.057 1393.01H627.915L625.167 1386.67L622.419 1393.01H621.277ZM631.422 1400.59L618.584 1395.64V1394.54L631.422 1399.47V1400.59ZM630.253 1406.3V1406.25C630.39 1405.84 630.458 1405.46 630.458 1405.14C630.458 1404.53 630.314 1404.09 630.027 1403.83C629.74 1403.57 629.269 1403.44 628.612 1403.44H628.387V1405.8H627.402V1403.48H620.662V1402.28H627.402V1401.39H628.387V1402.28H628.688C629.594 1402.28 630.289 1402.5 630.772 1402.96C631.256 1403.42 631.497 1404.07 631.497 1404.92C631.497 1405.33 631.451 1405.79 631.36 1406.3H630.253ZM620.45 1409.88C620.45 1408.79 620.812 1407.92 621.537 1407.28C622.266 1406.64 623.26 1406.32 624.518 1406.32C625.775 1406.32 626.771 1406.64 627.505 1407.29C628.239 1407.93 628.605 1408.8 628.605 1409.88C628.605 1410.97 628.241 1411.84 627.512 1412.48C626.783 1413.12 625.785 1413.45 624.518 1413.45C623.251 1413.45 622.255 1413.12 621.53 1412.48C620.81 1411.84 620.45 1410.98 620.45 1409.88ZM627.58 1409.88C627.58 1409.14 627.318 1408.57 626.794 1408.17C626.27 1407.77 625.511 1407.57 624.518 1407.57C623.538 1407.57 622.786 1407.77 622.262 1408.17C621.738 1408.57 621.476 1409.14 621.476 1409.88C621.476 1410.63 621.738 1411.2 622.262 1411.6C622.786 1412 623.538 1412.2 624.518 1412.2C626.559 1412.2 627.58 1411.43 627.58 1409.88ZM620.662 1415.2H628.387V1416.41H627.197C627.99 1417.37 628.387 1418.26 628.387 1419.08C628.387 1419.37 628.364 1419.66 628.318 1419.95H627.061V1419.9C627.152 1419.52 627.197 1419.14 627.197 1418.75C627.197 1417.98 626.869 1417.19 626.213 1416.41H620.662V1415.2ZM620.662 1430.95H624.989C625.823 1430.95 626.379 1430.89 626.657 1430.77C626.94 1430.65 627.145 1430.48 627.272 1430.24C627.405 1430 627.471 1429.7 627.471 1429.33C627.471 1428.71 627.127 1427.97 626.438 1427.12C626.201 1427.15 625.898 1427.17 625.529 1427.17H620.662V1425.96H624.989C625.846 1425.96 626.409 1425.9 626.678 1425.79C626.951 1425.67 627.152 1425.5 627.279 1425.26C627.407 1425.03 627.471 1424.73 627.471 1424.37C627.471 1423.72 627.138 1422.99 626.473 1422.19H620.662V1420.99H628.387V1422.19H627.457C628.223 1423.11 628.605 1423.97 628.605 1424.79C628.605 1425.84 628.184 1426.55 627.341 1426.92C628.184 1427.91 628.605 1428.86 628.605 1429.75C628.605 1431.35 627.635 1432.15 625.693 1432.15H620.662V1430.95ZM624.784 1442.88L621.277 1434.99H622.419L625.167 1441.33L627.915 1434.99H629.057L625.55 1442.88H624.784Z" fill="white"/>
<path d="M543.615 734.596L547.122 726.707H547.888L551.395 734.596H550.253L547.505 728.259L544.757 734.596H543.615ZM543 743.872V742.669H547.32C548.327 742.669 548.993 742.537 549.316 742.272C549.645 742.008 549.809 741.573 549.809 740.967C549.809 740.256 549.478 739.497 548.817 738.69H543V737.487H553.76V738.69H549.802C550.563 739.593 550.943 740.488 550.943 741.377C550.943 742.174 550.693 742.79 550.191 743.223C549.695 743.656 548.975 743.872 548.031 743.872H543ZM543.431 746.019H544.805V746.128C544.194 747.053 543.889 748.01 543.889 748.999C543.889 749.728 544.087 750.312 544.483 750.749C544.88 751.191 545.431 751.412 546.138 751.412C546.794 751.412 547.277 751.221 547.587 750.838C547.897 750.455 548.052 749.835 548.052 748.979V748.377H549.104V748.842C549.104 749.58 549.262 750.159 549.576 750.578C549.891 750.997 550.333 751.207 550.902 751.207C551.385 751.207 551.757 751.022 552.017 750.653C552.281 750.289 552.413 749.785 552.413 749.143C552.413 748.217 552.115 747.299 551.518 746.388V746.312H552.864C553.297 747.233 553.514 748.188 553.514 749.177C553.514 750.239 553.29 751.059 552.844 751.638C552.402 752.221 551.802 752.513 551.046 752.513C550.49 752.513 549.993 752.319 549.556 751.932C549.118 751.544 548.84 751.059 548.722 750.476H548.612C548.343 751.975 547.48 752.725 546.021 752.725C545.078 752.725 544.303 752.381 543.697 751.692C543.091 751.004 542.788 750.118 542.788 749.033C542.788 747.999 543.002 746.994 543.431 746.019ZM547.122 763.293L543.615 755.404H544.757L547.505 761.741L550.253 755.404H551.395L547.888 763.293H547.122Z" fill="white"/>
<path d="M543.615 790.951L547.122 783.062H547.888L551.395 790.951H550.253L547.505 784.614L544.757 790.951H543.615ZM553.76 798.532L540.922 793.583V792.482L553.76 797.411V798.532ZM543 806.517V805.313H547.32C548.327 805.313 548.993 805.181 549.316 804.917C549.645 804.653 549.809 804.217 549.809 803.611C549.809 802.9 549.478 802.142 548.817 801.335H543V800.132H553.76V801.335H549.802C550.563 802.237 550.943 803.133 550.943 804.021C550.943 804.819 550.693 805.434 550.191 805.867C549.695 806.3 548.975 806.517 548.031 806.517H543ZM543.431 808.663H544.805V808.772C544.194 809.698 543.889 810.655 543.889 811.644C543.889 812.373 544.087 812.956 544.483 813.394C544.88 813.836 545.431 814.057 546.138 814.057C546.794 814.057 547.277 813.865 547.587 813.482C547.897 813.1 548.052 812.48 548.052 811.623V811.021H549.104V811.486C549.104 812.225 549.262 812.803 549.576 813.223C549.891 813.642 550.333 813.852 550.902 813.852C551.385 813.852 551.757 813.667 552.017 813.298C552.281 812.933 552.413 812.43 552.413 811.787C552.413 810.862 552.115 809.944 551.518 809.032V808.957H552.864C553.297 809.878 553.514 810.832 553.514 811.821C553.514 812.883 553.29 813.703 552.844 814.282C552.402 814.866 551.802 815.157 551.046 815.157C550.49 815.157 549.993 814.964 549.556 814.576C549.118 814.189 548.84 813.703 548.722 813.12H548.612C548.343 814.619 547.48 815.369 546.021 815.369C545.078 815.369 544.303 815.025 543.697 814.337C543.091 813.649 542.788 812.762 542.788 811.678C542.788 810.643 543.002 809.638 543.431 808.663ZM547.122 825.938L543.615 818.049H544.757L547.505 824.386L550.253 818.049H551.395L547.888 825.938H547.122Z" fill="white"/>
</svg>
