<svg width="227" height="227" viewBox="0 0 227 227" fill="none" xmlns="http://www.w3.org/2000/svg">
<rect width="205" height="224.5" rx="100" transform="matrix(1 0 0.00814696 0.999967 10 1.89999)" fill="white"/>
<path d="M112.64 0C50.9766 0 1.38732 50.7239 1.89712 113.298C2.30495 163.355 34.6466 205.824 79.1369 220.805C84.7261 221.854 86.7464 218.348 86.722 215.355C86.7 212.653 86.5237 203.728 86.3985 194.261C55.3888 201.115 48.6689 180.894 48.6689 180.894C43.4826 167.798 36.1354 164.316 36.1354 164.316C25.9467 157.284 36.843 157.429 36.843 157.429C48.0626 158.228 54.0556 169.104 54.0556 169.104C64.1561 186.425 80.2787 181.417 86.6272 178.522C87.5698 171.2 90.423 166.202 93.5934 163.372C68.7675 160.507 42.6155 150.793 42.2618 107.38C42.1611 95.0106 46.4408 84.9037 53.5194 76.9695C52.3368 74.1158 48.4207 62.5925 54.3569 46.9866C54.3569 46.9866 63.7091 43.9415 85.1675 58.6C94.0544 56.0897 103.597 54.8308 113.086 54.7876C122.576 54.8308 132.147 56.0897 141.091 58.6C162.285 43.9415 171.674 46.9866 171.674 46.9866C177.879 62.5925 174.149 74.1158 173.013 76.9695C180.237 84.9037 184.652 95.0106 184.753 107.38C185.107 150.896 159.063 160.477 134.22 163.282C138.254 166.798 141.879 173.693 141.965 184.263C142.089 199.423 142.059 211.623 142.089 215.355C142.113 218.37 144.152 221.903 149.803 220.79C194.025 205.792 225.635 163.338 225.227 113.298C224.717 50.7239 174.309 0 112.64 0ZM44.1114 161.395C43.8701 161.958 42.9987 162.126 42.2004 161.74C41.3875 161.37 40.9263 160.603 41.1843 160.038C41.42 159.459 42.2933 159.297 43.1045 159.686C43.9193 160.055 44.3879 160.83 44.1114 161.395ZM49.6447 166.367C49.1162 166.868 48.0732 166.636 47.3604 165.844C46.6236 165.054 46.4781 163.998 47.0139 163.489C47.5591 162.988 48.5706 163.223 49.3093 164.013C50.0462 164.812 50.1971 165.861 49.6447 166.367ZM53.4647 172.73C52.7845 173.212 51.6621 172.76 50.9623 171.752C50.2699 170.745 50.26 169.537 50.9551 169.053C51.6446 168.569 52.7502 169.004 53.4592 170.004C54.1498 171.028 54.1597 172.236 53.4647 172.73ZM59.8976 180.098C59.2911 180.783 57.986 180.599 57.0242 179.665C56.0404 178.751 55.758 177.455 56.3664 176.77C56.9802 176.083 58.2929 176.277 59.262 177.203C60.2383 178.115 60.5448 179.421 59.8976 180.098ZM68.1542 182.586C67.8914 183.473 66.6391 183.877 65.3713 183.5C64.1051 183.111 63.2701 182.072 63.518 181.175C63.7733 180.282 65.031 179.862 66.3083 180.265C67.5726 180.652 68.4094 181.684 68.1542 182.586ZM77.536 183.641C77.5751 184.575 76.5089 185.35 75.1813 185.367C73.8465 185.397 72.7604 184.641 72.7381 183.722C72.7305 182.778 73.7727 182.011 75.1076 181.988C76.435 181.962 77.5284 182.712 77.536 183.641ZM86.7413 183.283C86.9077 184.195 85.9926 185.131 84.6762 185.381C83.3819 185.621 82.1772 185.058 82.0053 184.153C81.8368 183.219 82.7686 182.283 84.061 182.041C85.3794 181.808 86.5654 182.356 86.7413 183.283Z" fill="#161614"/>
</svg>
