<svg width="178" height="175" viewBox="0 0 178 175" fill="none" xmlns="http://www.w3.org/2000/svg">
<g clip-path="url(#clip0_74_20)">
<path d="M2 86.5724C2 39.8644 39.8643 2.00012 86.5723 2.00012H90.9794C137.687 2.00012 175.552 39.8644 175.552 86.5724V86.5724C175.552 133.28 137.687 171.145 90.9793 171.145H86.5723C39.8643 171.145 2 133.28 2 86.5724V86.5724Z" fill="white"/>
<path d="M12.6018 87.0115C12.6018 116.558 30.0965 142.092 55.4651 154.192L19.1864 56.6328C14.9665 65.9163 12.6018 76.1898 12.6018 87.0115ZM139.998 83.2447C139.998 74.0194 136.621 67.6306 133.726 62.6579C129.871 56.5092 126.257 51.3021 126.257 45.1534C126.257 38.2916 131.559 31.9042 139.028 31.9042C139.365 31.9042 139.685 31.9454 140.014 31.9639C126.483 19.797 108.456 12.3685 88.6556 12.3685C62.0858 12.3685 38.7099 25.7484 25.111 46.0141C26.8954 46.0667 28.577 46.1036 30.0053 46.1036C37.9603 46.1036 50.2741 45.1562 50.2741 45.1562C54.3739 44.919 54.8573 50.8291 50.7618 51.305C50.7618 51.305 46.6418 51.7808 42.0572 52.0166L69.7528 132.871L86.3966 83.8782L74.5473 52.0137C70.4518 51.778 66.572 51.3021 66.572 51.3021C62.4737 51.0664 62.9541 44.9162 67.0524 45.1534C67.0524 45.1534 79.6123 46.1008 87.0854 46.1008C95.039 46.1008 107.354 45.1534 107.354 45.1534C111.457 44.9162 111.939 50.8263 107.842 51.3021C107.842 51.3021 103.713 51.778 99.1373 52.0137L126.622 132.256L134.208 107.375C137.496 97.0506 139.998 89.6349 139.998 83.2447ZM89.9898 93.5409L67.1711 158.621C73.9843 160.586 81.1897 161.662 88.6556 161.662C97.5121 161.662 106.005 160.159 113.911 157.43C113.707 157.111 113.522 156.771 113.37 156.402L89.9898 93.5409ZM155.39 51.1984C155.717 53.5761 155.902 56.1285 155.902 58.8741C155.902 66.4489 154.461 74.964 150.119 85.611L126.888 151.534C149.498 138.593 164.706 114.551 164.706 87.0129C164.708 74.0351 161.33 61.8313 155.39 51.1984ZM88.6556 0C39.7721 0 0 39.033 0 87.0115C0 134.996 39.7721 174.027 88.6556 174.027C137.538 174.027 177.315 134.996 177.315 87.0115C177.314 39.033 137.538 0 88.6556 0ZM88.6556 170.039C42.0138 170.039 4.06506 132.793 4.06506 87.0115C4.06506 41.2332 42.0123 3.9898 88.6556 3.9898C135.296 3.9898 173.242 41.2332 173.242 87.0115C173.242 132.793 135.296 170.039 88.6556 170.039Z" fill="#464342"/>
</g>
<defs>
<clipPath id="clip0_74_20">
<rect width="178" height="174.022" fill="white"/>
</clipPath>
</defs>
</svg>
